{"glyphs":{"0":{"ha":521,"x_min":7,"x_max":492,"o":"m 222 -79 q 199 -81 214 -81 q 174 -78 182 -81 q 106 -43 129 -65 q 67 3 81 -18 l 49 35 q 36 63 46 42 q 22 101 26 83 q 17 138 17 126 q 15 142 17 140 q 14 147 14 144 q 8 181 11 158 l 7 226 q 8 236 7 231 q 7 249 8 242 l 10 294 q 11 325 11 304 q 13 329 13 326 q 18 367 15 342 q 25 404 21 392 q 28 422 26 411 q 32 439 29 432 q 38 471 35 461 l 44 499 q 58 554 54 540 q 88 644 72 601 q 110 701 108 697 q 151 779 126 744 l 161 790 q 188 800 172 806 q 192 801 190 800 q 208 825 203 815 q 258 869 231 851 q 303 882 279 882 l 317 881 q 393 847 360 879 q 433 794 414 828 q 483 651 464 740 q 492 557 489 619 q 490 488 492 510 q 485 432 488 451 q 482 409 483 422 q 476 379 481 396 q 464 314 472 344 q 444 228 454 260 q 425 160 442 213 q 404 106 411 119 q 346 7 375 44 q 307 -35 321 -24 q 258 -69 285 -57 q 222 -79 233 -78 m 194 -33 q 247 -11 224 -29 q 326 75 294 22 q 374 172 354 119 q 401 260 392 221 q 406 276 404 267 q 410 290 408 285 l 418 326 q 425 357 424 346 l 439 450 q 446 531 442 504 l 446 538 l 447 565 q 444 635 444 613 q 435 692 442 665 q 399 789 421 747 q 367 832 388 814 q 329 844 349 844 q 294 836 311 844 q 263 808 278 824 q 214 735 231 776 q 212 728 213 732 q 208 722 211 725 l 182 665 q 151 582 163 610 q 125 496 135 524 q 118 465 124 483 q 108 414 113 432 l 97 350 l 93 315 q 91 301 93 308 q 89 286 89 293 l 85 238 q 85 222 85 232 q 85 199 86 213 l 85 189 q 88 154 85 179 l 90 131 q 96 97 90 119 q 99 85 97 92 q 101 72 101 78 q 113 39 107 47 q 131 1 115 32 q 147 -21 143 -18 l 153 -28 q 194 -33 181 -36 z "},"1":{"ha":278,"x_min":-15,"x_max":218,"o":"m -8 -54 q -15 -37 -15 -47 l -12 -21 l 1 58 l 25 185 l 46 294 l 67 397 l 79 468 q 97 560 90 529 l 107 610 l 118 667 l 139 771 l 139 779 l 133 776 l 119 764 q 74 725 89 739 q 54 719 63 717 q 51 720 53 721 q 49 719 50 719 l 43 719 q 26 732 32 719 l 21 740 q 29 753 21 747 q 67 788 53 776 q 124 840 65 786 l 156 871 l 161 878 q 172 889 172 889 q 190 892 181 897 l 214 879 q 218 849 218 863 l 217 824 q 213 781 215 800 q 208 750 210 763 q 190 622 204 710 q 179 561 188 606 l 174 531 q 154 428 169 503 q 135 333 144 368 l 118 263 l 97 167 l 79 81 l 75 58 q 51 -42 58 -8 q 40 -58 50 -51 q 17 -65 29 -65 q -8 -54 0 -65 z "},"2":{"ha":486,"x_min":-50,"x_max":435,"o":"m -7 -87 q -22 -83 -12 -83 q -49 -62 -42 -79 q -50 -56 -50 -61 q -46 -44 -50 -51 q -39 -35 -43 -40 q -29 -22 -35 -29 q 13 26 -22 -15 l 60 85 l 108 151 q 144 206 126 176 q 165 244 161 236 q 185 283 178 267 q 199 311 193 300 l 236 399 q 254 442 240 407 l 264 469 q 290 547 276 504 q 318 663 310 607 q 329 757 328 713 q 315 838 329 793 q 286 871 307 858 q 268 876 279 876 q 254 878 264 878 q 219 872 244 878 q 78 772 132 844 q 46 704 54 739 q 44 688 44 699 q 50 661 44 672 q 67 646 57 649 l 75 642 q 78 633 79 639 q 72 626 78 628 q 60 625 68 625 q 11 653 28 628 q -1 694 -1 672 q 0 710 -1 704 q 14 756 4 735 q 83 844 39 808 q 143 885 101 860 q 243 911 192 911 q 264 910 257 911 q 335 885 304 908 q 367 846 361 864 q 374 836 368 842 q 386 813 382 826 q 394 784 388 808 q 400 736 401 760 q 399 732 399 733 q 400 729 400 731 q 401 710 401 722 q 400 694 401 700 q 399 690 399 693 q 389 610 399 656 q 383 579 388 596 q 376 554 378 563 q 357 489 369 526 q 347 456 354 479 q 331 414 339 433 l 318 379 q 304 346 310 357 q 268 263 293 318 q 238 204 244 214 q 225 182 231 193 q 214 163 219 171 l 193 132 l 161 86 q 124 39 136 51 l 110 19 q 103 11 108 17 l 103 10 q 111 6 104 6 q 135 8 128 8 q 163 10 143 10 q 207 7 176 10 q 274 -6 240 6 l 383 -39 q 406 -44 400 -42 q 429 -54 419 -47 q 435 -64 435 -60 q 428 -75 435 -71 q 407 -81 418 -81 q 394 -79 399 -81 l 356 -69 q 247 -43 283 -50 q 196 -37 225 -37 q 163 -39 174 -37 l 154 -39 q 135 -44 147 -43 q 118 -47 124 -46 q 85 -58 96 -56 l 63 -68 q 46 -75 57 -71 q 26 -85 35 -79 q 7 -90 13 -90 q -7 -87 4 -90 z "},"3":{"ha":521,"x_min":-57,"x_max":436,"o":"m 35 -96 q -4 -82 8 -93 q -24 -65 -11 -78 q -44 -37 -35 -54 q -53 3 -57 -18 q -31 72 -46 42 q -4 92 -21 90 q 4 90 0 94 q 18 79 10 88 q 19 61 26 71 q -1 0 6 38 l -1 -6 q 6 -29 -1 -18 q 18 -33 11 -35 q 85 -10 60 -22 l 119 10 q 171 49 147 29 l 213 88 q 260 139 214 89 l 282 167 q 332 246 317 211 q 365 343 356 294 q 367 363 367 350 q 347 419 367 392 q 315 453 336 438 q 301 463 314 454 q 250 474 275 474 q 156 464 210 474 q 99 454 117 456 q 81 457 86 454 q 61 472 72 461 l 47 493 q 61 525 47 511 l 83 544 l 121 576 l 192 639 l 274 718 q 333 790 301 746 q 358 832 347 808 q 361 853 363 843 q 351 856 353 856 q 324 858 332 858 q 285 854 303 858 q 221 842 250 850 l 179 829 q 156 822 171 826 q 132 813 142 817 q 57 772 88 794 l 43 764 q 29 761 38 761 q 11 765 19 761 q 3 776 3 769 q 13 794 3 785 q 39 815 35 813 q 90 842 58 829 q 188 875 133 858 q 271 893 243 889 l 319 897 q 343 894 326 897 q 408 856 386 888 q 421 810 425 833 q 399 751 414 776 l 371 708 l 346 678 l 301 631 l 289 619 q 285 615 285 615 q 250 582 267 594 l 228 561 q 185 524 215 549 l 181 518 l 186 517 q 201 518 192 518 q 224 517 217 518 l 243 515 l 249 514 q 329 482 286 510 q 410 403 376 451 q 429 357 425 381 q 433 338 431 353 q 433 311 436 324 q 419 243 428 265 q 367 143 397 185 q 351 121 358 131 q 338 103 343 111 l 307 67 l 269 29 q 208 -22 231 -7 q 164 -51 189 -37 q 156 -57 158 -54 q 118 -76 146 -64 q 78 -90 106 -82 q 35 -96 60 -96 z "},"4":{"ha":451,"x_min":-56,"x_max":394,"o":"m 231 -67 q 204 -51 214 -67 q 197 -39 201 -44 q 189 -26 192 -33 q 188 -12 188 -22 q 194 42 189 6 l 199 81 q 210 185 207 150 l 221 278 q 228 328 224 311 q 231 356 231 338 q 233 381 231 367 q 238 400 236 394 l 239 418 l 233 419 q 213 416 229 418 q 183 408 196 414 l 135 392 q 117 385 126 390 q 104 379 108 381 q 74 363 81 367 q 60 354 71 360 l 40 343 q 4 329 21 331 q -7 328 0 328 q -29 336 -19 328 q -46 349 -46 349 q -51 369 -56 357 q -47 381 -49 374 q -43 393 -44 389 l -18 461 q 15 575 7 536 q 33 660 29 629 l 39 690 q 53 768 44 715 l 56 783 q 67 853 58 803 l 72 888 q 90 904 75 899 q 96 903 94 904 l 119 893 q 132 874 131 888 q 136 835 136 856 l 135 803 q 129 746 132 764 q 124 703 126 715 l 118 665 l 101 578 q 97 557 100 569 q 89 528 94 544 q 67 456 72 472 q 64 447 67 453 l 58 425 q 142 458 111 450 q 246 475 174 465 q 249 486 249 479 q 250 496 250 493 l 254 526 q 278 649 269 611 q 292 710 285 685 q 301 746 296 731 q 336 842 324 810 l 343 851 q 361 858 350 863 q 368 857 363 858 q 376 853 374 856 q 382 849 378 851 q 393 831 394 844 q 386 789 392 817 q 367 689 375 722 q 351 611 354 632 l 336 514 l 332 489 l 329 471 q 340 467 331 469 q 367 460 357 461 q 382 449 375 456 q 385 440 385 443 q 376 431 385 433 q 349 428 361 426 l 325 429 q 322 415 322 421 q 321 406 322 410 l 314 356 l 311 333 q 297 214 303 253 l 290 138 l 283 82 q 272 0 281 56 q 269 -32 272 -10 q 267 -41 268 -35 q 265 -53 265 -47 l 265 -54 q 257 -62 265 -60 q 231 -67 244 -67 z "},"5":{"ha":417,"x_min":-26,"x_max":410,"o":"m 68 -71 q -4 -36 24 -64 q -24 13 -26 -17 q -17 54 -24 33 q 1 110 -10 85 l 10 126 q 31 146 19 140 q 65 158 47 154 q 81 151 75 158 l 90 140 q 75 129 86 135 q 51 106 63 125 q 29 4 29 60 q 42 -22 29 -12 q 58 -25 49 -28 q 65 -22 63 -25 q 135 21 115 3 q 165 57 146 32 q 211 128 190 85 q 238 199 231 167 q 244 219 239 206 l 244 222 q 251 256 246 233 q 258 288 257 274 q 263 329 263 308 q 265 367 265 354 q 267 388 267 374 q 261 442 267 406 q 256 456 257 453 q 228 471 247 475 q 178 454 196 465 q 131 417 151 440 l 110 393 l 101 379 q 88 343 94 360 q 81 328 85 335 q 75 318 78 322 l 65 310 q 51 306 60 306 q 40 310 47 306 l 36 311 q 11 329 22 313 q 10 344 8 336 l 11 351 l 26 399 l 38 444 l 42 458 q 46 474 43 465 q 51 493 49 483 q 75 572 67 539 l 90 638 l 113 746 l 117 771 l 111 779 q 107 786 107 783 q 104 797 104 790 q 113 808 104 804 l 128 818 q 133 833 132 825 l 150 836 l 157 836 q 176 836 165 832 l 225 853 l 261 865 l 272 868 l 294 874 q 306 878 297 875 q 321 881 314 881 q 331 885 322 881 q 347 888 336 888 q 364 885 358 888 q 393 867 382 878 l 399 860 l 410 839 q 403 828 410 832 q 371 815 383 817 q 301 797 331 808 q 267 786 296 796 l 232 779 l 225 779 q 179 765 194 771 l 174 763 l 167 692 l 156 621 q 144 550 153 597 q 138 510 143 539 q 131 479 132 490 l 167 497 q 225 510 200 511 q 242 507 231 510 q 290 476 272 493 q 317 436 308 458 q 328 406 318 432 q 335 376 333 390 q 335 370 336 374 q 336 364 335 367 q 338 331 338 353 l 339 315 l 335 264 q 325 214 332 240 q 317 179 318 188 q 293 110 308 146 l 282 88 q 217 -3 258 43 q 174 -39 196 -26 q 153 -50 167 -42 q 94 -69 129 -65 q 81 -71 89 -69 q 68 -71 74 -72 z "},"6":{"ha":382,"x_min":-28,"x_max":347,"o":"m 122 -75 q 51 -50 79 -72 q 15 -10 26 -32 q 0 22 10 6 q -17 74 -12 47 q -25 113 -25 110 q -28 174 -28 154 q -25 224 -28 190 q -6 336 -19 274 q 25 446 3 374 q 68 556 44 506 q 144 696 104 635 q 203 779 171 740 l 244 829 q 282 857 253 838 q 296 863 285 858 q 307 863 303 865 q 329 853 324 857 q 338 843 333 849 q 344 833 342 838 q 343 822 347 828 l 338 818 q 313 788 322 803 l 279 747 l 260 721 l 239 689 q 220 662 232 679 q 201 631 208 644 q 153 539 164 567 q 142 516 149 529 q 128 485 135 503 q 113 444 118 463 q 85 354 96 393 q 58 231 67 299 l 60 228 l 67 235 l 94 265 q 147 300 121 292 q 181 306 163 306 q 243 281 214 306 q 281 211 272 254 q 285 176 285 194 q 275 111 285 150 q 242 22 265 71 q 193 -46 221 -21 q 122 -75 161 -75 m 104 -33 q 144 -18 124 -32 q 178 18 160 -7 q 229 129 215 74 q 236 179 238 163 l 236 190 q 232 224 236 207 q 213 265 225 249 q 196 272 203 272 q 178 271 183 272 q 161 262 174 268 q 142 247 149 256 q 92 193 115 222 q 57 142 75 169 q 53 124 53 133 l 57 83 l 60 60 l 69 15 q 86 -24 78 -12 q 104 -33 96 -33 z "},"7":{"ha":417,"x_min":-18,"x_max":415,"o":"m 197 -24 q 172 -15 183 -24 q 161 -8 163 -8 q 151 -1 156 -7 q 144 7 147 4 q 140 21 140 14 q 144 38 140 29 q 150 53 150 43 l 154 104 l 156 122 q 158 154 158 144 q 160 174 158 163 q 164 193 163 186 l 165 203 l 169 247 q 172 264 169 253 q 175 280 174 269 q 176 299 176 290 l 181 325 l 188 364 l 190 382 l 179 382 l 140 378 l 131 378 q 106 381 122 378 q 83 393 92 383 l 83 411 l 93 418 q 121 425 114 424 q 151 431 132 428 l 160 432 l 200 435 l 204 446 q 214 486 210 463 q 228 544 222 525 l 246 607 q 289 736 260 664 l 310 782 l 321 807 q 314 810 319 813 q 293 808 300 810 l 254 804 q 228 803 247 804 q 194 799 210 801 q 166 795 178 796 q 146 794 154 794 q 126 793 139 794 q 106 790 114 792 l 92 790 q 76 789 82 790 l 69 790 l 53 792 l 47 792 q 10 800 35 792 q -10 814 1 803 q -17 825 -15 819 l -18 829 q -8 840 -18 838 q 3 842 -4 842 q 19 840 14 842 q 40 842 33 840 q 60 845 51 844 q 74 846 68 846 l 132 851 q 186 857 150 854 q 254 864 211 858 q 278 865 271 864 l 322 869 q 342 871 328 871 q 400 843 375 872 q 411 828 410 829 q 415 817 415 824 q 410 799 413 803 q 378 732 388 754 q 340 638 354 679 l 324 588 l 308 525 q 300 496 304 514 q 293 467 296 478 q 288 443 290 460 q 293 442 288 439 q 313 447 307 444 q 336 449 325 453 q 361 438 353 440 q 374 422 368 433 q 375 417 375 421 q 369 407 375 408 q 351 401 358 401 q 326 399 342 401 q 299 394 310 396 l 283 393 q 274 385 275 392 l 264 335 l 256 283 l 254 276 q 249 240 249 251 q 247 228 250 236 l 240 183 l 240 175 q 238 154 240 161 q 237 148 236 151 q 236 142 238 144 l 232 111 l 232 103 q 231 85 232 96 q 228 58 231 74 q 226 41 228 50 q 224 22 224 32 q 217 -8 222 10 q 211 -19 215 -17 q 197 -24 207 -22 z "},"8":{"ha":417,"x_min":-26,"x_max":399,"o":"m 133 -69 q 118 -67 122 -67 q 89 -60 106 -67 q 8 3 42 -37 q -22 60 -15 33 q -24 68 -24 63 q -26 99 -26 88 l -26 107 q -4 169 -19 142 q 50 242 15 207 l 122 315 l 178 372 q 181 386 185 379 q 143 447 175 393 l 107 515 l 97 532 q 88 553 92 540 q 81 572 83 565 q 73 587 76 578 q 68 600 69 596 l 68 601 q 55 638 64 613 q 44 682 46 663 q 43 692 44 689 q 40 744 38 713 q 43 764 40 750 q 50 790 44 769 q 129 888 71 854 q 183 910 151 901 q 222 917 207 915 q 275 897 251 918 l 293 882 q 314 867 304 876 q 364 807 343 838 q 390 747 378 783 q 397 701 394 732 q 399 678 399 693 q 396 640 399 665 q 381 568 390 592 l 379 560 q 360 507 368 524 q 343 475 354 493 q 313 425 335 458 q 265 364 282 383 q 263 361 265 364 l 275 338 q 303 283 283 319 l 311 261 q 317 246 313 258 q 331 208 328 221 q 333 197 333 200 q 338 182 338 183 q 339 175 339 181 q 342 154 339 168 q 344 133 342 149 q 344 103 346 117 q 335 53 342 75 q 325 31 331 39 q 293 -11 313 10 q 254 -43 278 -26 q 229 -54 238 -51 q 197 -67 210 -65 q 156 -71 176 -71 q 133 -69 140 -71 m 121 -8 q 196 14 164 -6 q 236 49 218 28 q 257 81 253 68 q 269 138 267 107 q 270 147 269 142 q 269 158 271 151 q 260 215 267 192 l 250 250 q 247 258 249 253 q 242 268 246 263 q 231 296 232 288 q 221 313 229 301 q 218 311 218 313 l 197 292 l 174 267 l 106 200 q 56 133 76 169 q 36 71 40 107 q 38 60 36 63 q 51 25 39 42 q 71 6 61 11 q 115 -8 81 1 l 121 -8 m 226 431 q 258 475 242 450 q 278 507 274 500 l 290 531 q 321 621 313 582 l 326 646 l 331 693 q 328 749 331 731 q 285 839 319 797 q 263 853 276 849 q 249 857 256 856 q 235 856 242 858 q 233 855 233 854 q 231 856 232 856 q 224 853 228 854 q 217 851 219 853 q 205 844 211 847 q 193 838 199 842 q 178 828 182 832 q 140 788 150 803 q 117 732 119 754 q 114 711 117 725 q 113 703 113 708 q 118 661 115 675 q 136 593 125 621 q 156 549 139 585 q 168 522 167 532 l 171 517 l 197 468 l 221 426 l 226 431 z "},"9":{"ha":451,"x_min":10,"x_max":432,"o":"m 169 -82 q 140 -86 156 -86 q 101 -78 121 -86 q 46 -37 67 -64 l 38 -25 l 25 6 q 22 21 22 14 q 14 81 21 25 l 10 131 q 18 154 10 146 l 24 158 q 33 160 26 160 q 46 158 42 160 q 58 147 54 157 l 64 139 q 56 129 57 135 q 54 114 54 124 l 58 83 q 68 19 64 38 q 76 -10 71 0 l 89 -29 q 114 -42 97 -44 q 182 -6 157 -35 q 217 47 197 11 q 253 132 239 82 q 262 159 257 144 q 272 189 267 174 l 279 219 l 290 276 q 304 371 294 303 q 311 424 306 386 l 315 461 l 308 450 l 272 399 q 206 329 250 367 q 164 307 189 315 q 146 303 156 303 q 124 308 138 303 q 69 358 90 325 l 67 364 q 49 422 53 399 q 42 464 44 436 q 38 544 35 504 q 43 611 38 567 q 56 681 44 633 q 76 742 60 704 q 108 799 96 781 q 150 846 124 824 q 243 896 190 878 q 276 901 256 901 q 297 900 290 901 q 336 882 314 897 q 382 828 367 864 q 389 810 386 819 q 396 793 392 801 q 401 766 401 781 q 400 746 400 751 q 399 740 400 742 q 396 735 397 738 q 399 732 399 732 q 425 707 411 726 q 429 683 432 699 l 425 651 q 410 553 414 581 q 406 528 408 543 q 401 496 403 514 q 396 454 399 468 l 392 424 q 381 346 389 399 q 371 279 375 301 q 358 206 360 210 l 333 114 q 319 78 331 99 q 279 -7 300 25 q 246 -46 263 -32 q 221 -64 238 -54 l 189 -78 q 178 -81 185 -79 q 169 -82 172 -82 m 144 347 q 176 363 153 349 q 226 411 199 379 q 253 446 243 428 l 293 513 q 329 586 307 536 q 335 599 332 590 l 340 633 q 358 717 344 668 q 367 731 360 724 l 374 736 l 369 749 q 368 754 369 753 q 364 769 364 758 q 340 835 363 801 q 322 854 335 846 q 296 860 308 864 q 246 835 269 851 q 199 788 215 810 q 179 760 188 774 q 142 681 156 722 q 135 660 136 667 q 121 593 129 638 q 115 519 115 543 l 115 493 q 119 454 115 476 q 124 419 122 432 q 130 390 126 403 q 136 367 133 376 q 140 356 138 360 q 144 347 143 351 z "}," ":{"ha":278,"x_min":0,"x_max":0,"o":""},"A":{"ha":671,"x_min":-24,"x_max":721,"o":"m 439 -328 q 396 -311 417 -326 q 381 -292 392 -304 q 367 -268 371 -281 q 356 -231 364 -256 q 342 -131 342 -183 l 340 -107 q 344 -14 340 -60 l 349 40 l 357 114 l 357 124 q 339 92 349 114 l 319 53 l 274 -24 q 259 -45 269 -31 q 239 -69 249 -60 l 238 -72 q 225 -88 233 -79 q 211 -106 217 -97 q 207 -110 207 -110 l 174 -143 q 133 -167 156 -158 q 101 -174 117 -174 q 82 -171 96 -174 q 54 -162 67 -168 q 6 -117 26 -153 q -15 -43 -7 -94 q -22 67 -22 3 q -22 122 -24 92 q -19 165 -19 153 l -15 217 l -7 286 l -4 306 q 15 399 8 371 l 38 472 q 79 579 50 513 l 93 608 q 107 638 99 618 q 156 722 115 656 q 169 742 164 736 q 180 757 175 750 q 188 768 185 764 q 197 781 190 772 q 213 794 204 789 l 221 804 q 281 850 242 831 q 331 863 308 863 q 386 856 357 864 q 446 818 421 846 q 478 767 469 789 l 488 746 q 510 672 499 722 q 518 613 515 653 q 519 601 519 608 l 544 582 q 546 575 546 579 q 543 563 546 571 q 501 435 518 501 l 492 393 q 482 358 489 385 q 464 272 474 324 q 446 158 456 231 l 433 64 l 431 26 q 428 -12 431 13 q 424 -56 425 -37 q 424 -86 424 -74 q 421 -153 421 -131 l 422 -200 q 436 -278 422 -236 q 439 -281 439 -281 q 442 -281 442 -281 q 469 -249 458 -265 q 494 -204 483 -229 q 557 -49 532 -126 q 588 51 568 -15 l 624 175 q 639 231 633 207 l 663 314 q 671 342 664 326 q 681 360 672 349 q 699 369 689 369 q 715 363 708 369 q 718 349 721 356 q 701 283 714 325 q 688 226 700 276 l 665 139 q 639 38 646 63 q 625 -8 632 11 q 614 -42 618 -28 q 594 -103 607 -68 q 557 -194 578 -150 q 542 -223 551 -204 q 525 -254 533 -242 q 479 -314 503 -293 q 439 -328 463 -331 m 93 -132 q 101 -131 99 -132 l 108 -128 l 140 -106 q 201 -39 171 -79 l 236 11 q 304 135 281 83 l 376 296 q 393 340 386 315 l 401 378 q 432 493 421 456 q 465 579 451 551 q 469 601 471 589 q 464 643 467 629 l 456 688 q 438 739 442 728 q 413 790 428 764 q 390 813 403 803 q 367 819 379 824 q 333 810 349 817 q 278 757 311 796 l 260 733 q 242 708 249 717 q 199 638 222 683 l 164 568 q 126 478 144 526 q 104 403 118 453 q 86 331 90 356 q 68 217 72 258 l 63 156 q 60 96 60 114 l 60 21 q 63 -29 60 -12 q 74 -94 68 -74 q 80 -112 75 -103 q 88 -126 85 -121 q 93 -132 88 -126 z "},"Á":{"ha":671,"x_min":-22,"x_max":718,"o":"m 439 -328 q 396 -311 417 -326 q 381 -292 392 -304 q 367 -268 371 -281 q 356 -231 364 -256 q 342 -131 342 -183 l 340 -107 q 344 -14 340 -60 l 349 40 l 357 114 l 357 124 q 339 92 349 114 l 319 53 l 274 -24 q 259 -45 269 -31 q 239 -69 249 -60 l 238 -72 q 225 -88 233 -79 q 211 -106 217 -97 q 207 -110 207 -110 l 174 -143 q 133 -167 156 -158 q 101 -174 117 -174 q 82 -171 96 -174 q 54 -162 67 -168 q 6 -117 26 -153 q -15 -43 -7 -94 q -22 67 -22 3 q -22 122 -24 92 q -19 165 -19 153 l -15 217 l -7 286 l -4 306 q 15 399 8 371 l 38 472 q 79 579 50 513 l 93 608 q 107 638 99 618 q 156 722 115 656 q 169 742 164 736 q 180 757 175 750 q 188 768 185 764 q 197 781 190 772 q 213 794 204 789 l 221 804 q 281 850 242 831 q 331 863 308 863 q 386 856 357 864 q 446 818 421 846 q 478 767 469 789 l 488 746 q 510 672 499 722 q 518 613 515 653 q 519 601 519 608 l 544 582 q 546 575 546 579 q 543 563 546 571 q 501 435 518 501 l 492 393 q 482 358 489 385 q 464 272 474 324 q 446 158 456 231 l 433 64 l 431 26 q 428 -12 431 13 q 424 -56 425 -37 q 424 -86 424 -74 q 421 -153 421 -131 l 422 -200 q 436 -278 422 -236 q 439 -281 439 -281 q 442 -281 442 -281 q 469 -249 458 -265 q 494 -204 483 -229 q 557 -49 532 -126 q 588 51 568 -15 l 624 175 q 639 231 633 207 l 663 314 q 671 342 664 326 q 681 360 672 349 q 699 369 689 369 q 715 363 708 369 q 718 349 721 356 q 701 283 714 325 q 688 226 700 276 l 665 139 q 639 38 646 63 q 625 -8 632 11 q 614 -42 618 -28 q 594 -103 607 -68 q 557 -194 578 -150 q 542 -223 551 -204 q 525 -254 533 -242 q 479 -314 503 -293 q 439 -328 463 -331 m 93 -132 q 101 -131 99 -132 l 108 -128 l 140 -106 q 201 -39 171 -79 l 236 11 q 304 135 281 83 l 376 296 q 393 340 386 315 l 401 378 q 432 493 421 456 q 465 579 451 551 q 469 601 471 589 q 464 643 467 629 l 456 688 q 438 739 442 728 q 413 790 428 764 q 390 813 403 803 q 367 819 379 824 q 333 810 349 817 q 278 757 311 796 l 260 733 q 242 708 249 717 q 199 638 222 683 l 164 568 q 126 478 144 526 q 104 403 118 453 q 86 331 90 356 q 68 217 72 258 l 63 156 q 60 96 60 114 l 60 21 q 63 -29 60 -12 q 74 -94 68 -74 q 80 -112 75 -103 q 88 -126 85 -121 q 93 -132 88 -126 m 383 924 q 369 928 378 924 q 357 944 361 933 q 357 957 354 951 q 392 1047 375 1006 q 397 1060 394 1056 q 410 1068 401 1068 q 431 1056 421 1068 q 436 1035 440 1044 l 413 978 l 396 936 q 394 932 396 935 q 392 928 393 929 q 383 924 389 924 z "},"Â":{"ha":671,"x_min":-22,"x_max":718,"o":"m 439 -328 q 396 -311 417 -326 q 381 -292 392 -304 q 367 -268 371 -281 q 356 -231 364 -256 q 342 -131 342 -183 l 340 -107 q 344 -14 340 -60 l 349 40 l 357 114 l 357 124 q 339 92 349 114 l 319 53 l 274 -24 q 259 -45 269 -31 q 239 -69 249 -60 l 238 -72 q 225 -88 233 -79 q 211 -106 217 -97 q 207 -110 207 -110 l 174 -143 q 133 -167 156 -158 q 101 -174 117 -174 q 82 -171 96 -174 q 54 -162 67 -168 q 6 -117 26 -153 q -15 -43 -7 -94 q -22 67 -22 3 q -22 122 -24 92 q -19 165 -19 153 l -15 217 l -7 286 l -4 306 q 15 399 8 371 l 38 472 q 79 579 50 513 l 93 608 q 107 638 99 618 q 156 722 115 656 q 169 742 164 736 q 180 757 175 750 q 188 768 185 764 q 197 781 190 772 q 213 794 204 789 l 221 804 q 281 850 242 831 q 331 863 308 863 q 386 856 357 864 q 446 818 421 846 q 478 767 469 789 l 488 746 q 510 672 499 722 q 518 613 515 653 q 519 601 519 608 l 544 582 q 546 575 546 579 q 543 563 546 571 q 501 435 518 501 l 492 393 q 482 358 489 385 q 464 272 474 324 q 446 158 456 231 l 433 64 l 431 26 q 428 -12 431 13 q 424 -56 425 -37 q 424 -86 424 -74 q 421 -153 421 -131 l 422 -200 q 436 -278 422 -236 q 439 -281 439 -281 q 442 -281 442 -281 q 469 -249 458 -265 q 494 -204 483 -229 q 557 -49 532 -126 q 588 51 568 -15 l 624 175 q 639 231 633 207 l 663 314 q 671 342 664 326 q 681 360 672 349 q 699 369 689 369 q 715 363 708 369 q 718 349 721 356 q 701 283 714 325 q 688 226 700 276 l 665 139 q 639 38 646 63 q 625 -8 632 11 q 614 -42 618 -28 q 594 -103 607 -68 q 557 -194 578 -150 q 542 -223 551 -204 q 525 -254 533 -242 q 479 -314 503 -293 q 439 -328 463 -331 m 93 -132 q 101 -131 99 -132 l 108 -128 l 140 -106 q 201 -39 171 -79 l 236 11 q 304 135 281 83 l 376 296 q 393 340 386 315 l 401 378 q 432 493 421 456 q 465 579 451 551 q 469 601 471 589 q 464 643 467 629 l 456 688 q 438 739 442 728 q 413 790 428 764 q 390 813 403 803 q 367 819 379 824 q 333 810 349 817 q 278 757 311 796 l 260 733 q 242 708 249 717 q 199 638 222 683 l 164 568 q 126 478 144 526 q 104 403 118 453 q 86 331 90 356 q 68 217 72 258 l 63 156 q 60 96 60 114 l 60 21 q 63 -29 60 -12 q 74 -94 68 -74 q 80 -112 75 -103 q 88 -126 85 -121 q 93 -132 88 -126 m 439 928 q 422 935 429 928 l 417 940 q 406 957 407 947 l 397 985 l 394 993 l 385 985 l 356 949 q 340 938 349 939 q 328 943 331 935 q 321 947 328 944 q 311 956 314 950 q 313 968 308 963 q 339 1003 325 988 l 368 1035 q 386 1044 374 1043 l 392 1044 q 407 1039 401 1044 q 435 992 431 1019 q 446 950 440 964 q 447 942 447 947 q 439 928 447 935 z "},"Ä":{"ha":671,"x_min":-22,"x_max":718,"o":"m 439 -328 q 396 -311 417 -326 q 381 -292 392 -304 q 367 -268 371 -281 q 356 -231 364 -256 q 342 -131 342 -183 l 340 -107 q 344 -14 340 -60 l 349 40 l 357 114 l 357 124 q 339 92 349 114 l 319 53 l 274 -24 q 259 -45 269 -31 q 239 -69 249 -60 l 238 -72 q 225 -88 233 -79 q 211 -106 217 -97 q 207 -110 207 -110 l 174 -143 q 133 -167 156 -158 q 101 -174 117 -174 q 82 -171 96 -174 q 54 -162 67 -168 q 6 -117 26 -153 q -15 -43 -7 -94 q -22 67 -22 3 q -22 122 -24 92 q -19 165 -19 153 l -15 217 l -7 286 l -4 306 q 15 399 8 371 l 38 472 q 79 579 50 513 l 93 608 q 107 638 99 618 q 156 722 115 656 q 169 742 164 736 q 180 757 175 750 q 188 768 185 764 q 197 781 190 772 q 213 794 204 789 l 221 804 q 281 850 242 831 q 331 863 308 863 q 386 856 357 864 q 446 818 421 846 q 478 767 469 789 l 488 746 q 510 672 499 722 q 518 613 515 653 q 519 601 519 608 l 544 582 q 546 575 546 579 q 543 563 546 571 q 501 435 518 501 l 492 393 q 482 358 489 385 q 464 272 474 324 q 446 158 456 231 l 433 64 l 431 26 q 428 -12 431 13 q 424 -56 425 -37 q 424 -86 424 -74 q 421 -153 421 -131 l 422 -200 q 436 -278 422 -236 q 439 -281 439 -281 q 442 -281 442 -281 q 469 -249 458 -265 q 494 -204 483 -229 q 557 -49 532 -126 q 588 51 568 -15 l 624 175 q 639 231 633 207 l 663 314 q 671 342 664 326 q 681 360 672 349 q 699 369 689 369 q 715 363 708 369 q 718 349 721 356 q 701 283 714 325 q 688 226 700 276 l 665 139 q 639 38 646 63 q 625 -8 632 11 q 614 -42 618 -28 q 594 -103 607 -68 q 557 -194 578 -150 q 542 -223 551 -204 q 525 -254 533 -242 q 479 -314 503 -293 q 439 -328 463 -331 m 93 -132 q 101 -131 99 -132 l 108 -128 l 140 -106 q 201 -39 171 -79 l 236 11 q 304 135 281 83 l 376 296 q 393 340 386 315 l 401 378 q 432 493 421 456 q 465 579 451 551 q 469 601 471 589 q 464 643 467 629 l 456 688 q 438 739 442 728 q 413 790 428 764 q 390 813 403 803 q 367 819 379 824 q 333 810 349 817 q 278 757 311 796 l 260 733 q 242 708 249 717 q 199 638 222 683 l 164 568 q 126 478 144 526 q 104 403 118 453 q 86 331 90 356 q 68 217 72 258 l 63 156 q 60 96 60 114 l 60 21 q 63 -29 60 -12 q 74 -94 68 -74 q 80 -112 75 -103 q 88 -126 85 -121 q 93 -132 88 -126 m 440 913 q 415 919 429 913 q 407 930 413 921 q 401 947 401 939 q 404 958 401 956 q 428 969 414 969 q 456 956 444 969 q 464 931 468 943 q 456 917 461 922 q 446 913 454 915 l 440 913 m 326 931 q 308 938 314 931 q 300 946 301 944 q 296 968 292 956 q 324 985 306 985 q 344 978 335 985 q 356 963 354 972 l 357 951 q 350 935 357 940 q 326 931 343 931 z "},"À":{"ha":671,"x_min":-22,"x_max":718,"o":"m 439 -328 q 396 -311 417 -326 q 381 -292 392 -304 q 367 -268 371 -281 q 356 -231 364 -256 q 342 -131 342 -183 l 340 -107 q 344 -14 340 -60 l 349 40 l 357 114 l 357 124 q 339 92 349 114 l 319 53 l 274 -24 q 259 -45 269 -31 q 239 -69 249 -60 l 238 -72 q 225 -88 233 -79 q 211 -106 217 -97 q 207 -110 207 -110 l 174 -143 q 133 -167 156 -158 q 101 -174 117 -174 q 82 -171 96 -174 q 54 -162 67 -168 q 6 -117 26 -153 q -15 -43 -7 -94 q -22 67 -22 3 q -22 122 -24 92 q -19 165 -19 153 l -15 217 l -7 286 l -4 306 q 15 399 8 371 l 38 472 q 79 579 50 513 l 93 608 q 107 638 99 618 q 156 722 115 656 q 169 742 164 736 q 180 757 175 750 q 188 768 185 764 q 197 781 190 772 q 213 794 204 789 l 221 804 q 281 850 242 831 q 331 863 308 863 q 386 856 357 864 q 446 818 421 846 q 478 767 469 789 l 488 746 q 510 672 499 722 q 518 613 515 653 q 519 601 519 608 l 544 582 q 546 575 546 579 q 543 563 546 571 q 501 435 518 501 l 492 393 q 482 358 489 385 q 464 272 474 324 q 446 158 456 231 l 433 64 l 431 26 q 428 -12 431 13 q 424 -56 425 -37 q 424 -86 424 -74 q 421 -153 421 -131 l 422 -200 q 436 -278 422 -236 q 439 -281 439 -281 q 442 -281 442 -281 q 469 -249 458 -265 q 494 -204 483 -229 q 557 -49 532 -126 q 588 51 568 -15 l 624 175 q 639 231 633 207 l 663 314 q 671 342 664 326 q 681 360 672 349 q 699 369 689 369 q 715 363 708 369 q 718 349 721 356 q 701 283 714 325 q 688 226 700 276 l 665 139 q 639 38 646 63 q 625 -8 632 11 q 614 -42 618 -28 q 594 -103 607 -68 q 557 -194 578 -150 q 542 -223 551 -204 q 525 -254 533 -242 q 479 -314 503 -293 q 439 -328 463 -331 m 93 -132 q 101 -131 99 -132 l 108 -128 l 140 -106 q 201 -39 171 -79 l 236 11 q 304 135 281 83 l 376 296 q 393 340 386 315 l 401 378 q 432 493 421 456 q 465 579 451 551 q 469 601 471 589 q 464 643 467 629 l 456 688 q 438 739 442 728 q 413 790 428 764 q 390 813 403 803 q 367 819 379 824 q 333 810 349 817 q 278 757 311 796 l 260 733 q 242 708 249 717 q 199 638 222 683 l 164 568 q 126 478 144 526 q 104 403 118 453 q 86 331 90 356 q 68 217 72 258 l 63 156 q 60 96 60 114 l 60 21 q 63 -29 60 -12 q 74 -94 68 -74 q 80 -112 75 -103 q 88 -126 85 -121 q 93 -132 88 -126 m 382 911 q 357 922 364 911 q 343 947 344 940 q 324 1010 338 968 l 319 1021 q 318 1029 318 1024 q 324 1038 318 1035 l 332 1039 q 347 1033 342 1039 q 354 1028 349 1031 q 365 1011 364 1021 q 381 961 376 983 q 388 939 382 951 q 389 931 389 935 q 390 925 389 928 l 389 919 q 382 911 389 911 z "},"Å":{"ha":671,"x_min":-22,"x_max":718,"o":"m 439 -328 q 396 -311 417 -326 q 381 -292 392 -304 q 367 -268 371 -281 q 356 -231 364 -256 q 342 -131 342 -183 l 340 -107 q 344 -14 340 -60 l 349 40 l 357 114 l 357 124 q 339 92 349 114 l 319 53 l 274 -24 q 259 -45 269 -31 q 239 -69 249 -60 l 238 -72 q 225 -88 233 -79 q 211 -106 217 -97 q 207 -110 207 -110 l 174 -143 q 133 -167 156 -158 q 101 -174 117 -174 q 82 -171 96 -174 q 54 -162 67 -168 q 6 -117 26 -153 q -15 -43 -7 -94 q -22 67 -22 3 q -22 122 -24 92 q -19 165 -19 153 l -15 217 l -7 286 l -4 306 q 15 399 8 371 l 38 472 q 79 579 50 513 l 93 608 q 107 638 99 618 q 156 722 115 656 q 169 742 164 736 q 180 757 175 750 q 188 768 185 764 q 197 781 190 772 q 213 794 204 789 l 221 804 q 281 850 242 831 q 331 863 308 863 q 386 856 357 864 q 446 818 421 846 q 478 767 469 789 l 488 746 q 510 672 499 722 q 518 613 515 653 q 519 601 519 608 l 544 582 q 546 575 546 579 q 543 563 546 571 q 501 435 518 501 l 492 393 q 482 358 489 385 q 464 272 474 324 q 446 158 456 231 l 433 64 l 431 26 q 428 -12 431 13 q 424 -56 425 -37 q 424 -86 424 -74 q 421 -153 421 -131 l 422 -200 q 436 -278 422 -236 q 439 -281 439 -281 q 442 -281 442 -281 q 469 -249 458 -265 q 494 -204 483 -229 q 557 -49 532 -126 q 588 51 568 -15 l 624 175 q 639 231 633 207 l 663 314 q 671 342 664 326 q 681 360 672 349 q 699 369 689 369 q 715 363 708 369 q 718 349 721 356 q 701 283 714 325 q 688 226 700 276 l 665 139 q 639 38 646 63 q 625 -8 632 11 q 614 -42 618 -28 q 594 -103 607 -68 q 557 -194 578 -150 q 542 -223 551 -204 q 525 -254 533 -242 q 479 -314 503 -293 q 439 -328 463 -331 m 93 -132 q 101 -131 99 -132 l 108 -128 l 140 -106 q 201 -39 171 -79 l 236 11 q 304 135 281 83 l 376 296 q 393 340 386 315 l 401 378 q 432 493 421 456 q 465 579 451 551 q 469 601 471 589 q 464 643 467 629 l 456 688 q 438 739 442 728 q 413 790 428 764 q 390 813 403 803 q 367 819 379 824 q 333 810 349 817 q 278 757 311 796 l 260 733 q 242 708 249 717 q 199 638 222 683 l 164 568 q 126 478 144 526 q 104 403 118 453 q 86 331 90 356 q 68 217 72 258 l 63 156 q 60 96 60 114 l 60 21 q 63 -29 60 -12 q 74 -94 68 -74 q 80 -112 75 -103 q 88 -126 85 -121 q 93 -132 88 -126 m 371 929 q 328 964 342 939 q 317 1001 317 983 q 324 1029 317 1013 q 353 1068 332 1047 q 383 1075 365 1079 q 425 1040 414 1065 q 435 1019 431 1033 l 438 997 q 415 940 440 963 q 386 926 403 926 q 371 929 382 926 m 371 965 q 389 986 382 971 q 393 1014 393 1001 q 388 1033 393 1024 q 375 1021 375 1028 q 371 1013 374 1017 q 367 1001 368 1008 q 364 988 364 996 q 371 965 364 974 z "},"Ã":{"ha":671,"x_min":-22,"x_max":718,"o":"m 439 -328 q 396 -311 417 -326 q 381 -292 392 -304 q 367 -268 371 -281 q 356 -231 364 -256 q 342 -131 342 -183 l 340 -107 q 344 -14 340 -60 l 349 40 l 357 114 l 357 124 q 339 92 349 114 l 319 53 l 274 -24 q 259 -45 269 -31 q 239 -69 249 -60 l 238 -72 q 225 -88 233 -79 q 211 -106 217 -97 q 207 -110 207 -110 l 174 -143 q 133 -167 156 -158 q 101 -174 117 -174 q 82 -171 96 -174 q 54 -162 67 -168 q 6 -117 26 -153 q -15 -43 -7 -94 q -22 67 -22 3 q -22 122 -24 92 q -19 165 -19 153 l -15 217 l -7 286 l -4 306 q 15 399 8 371 l 38 472 q 79 579 50 513 l 93 608 q 107 638 99 618 q 156 722 115 656 q 169 742 164 736 q 180 757 175 750 q 188 768 185 764 q 197 781 190 772 q 213 794 204 789 l 221 804 q 281 850 242 831 q 331 863 308 863 q 386 856 357 864 q 446 818 421 846 q 478 767 469 789 l 488 746 q 510 672 499 722 q 518 613 515 653 q 519 601 519 608 l 544 582 q 546 575 546 579 q 543 563 546 571 q 501 435 518 501 l 492 393 q 482 358 489 385 q 464 272 474 324 q 446 158 456 231 l 433 64 l 431 26 q 428 -12 431 13 q 424 -56 425 -37 q 424 -86 424 -74 q 421 -153 421 -131 l 422 -200 q 436 -278 422 -236 q 439 -281 439 -281 q 442 -281 442 -281 q 469 -249 458 -265 q 494 -204 483 -229 q 557 -49 532 -126 q 588 51 568 -15 l 624 175 q 639 231 633 207 l 663 314 q 671 342 664 326 q 681 360 672 349 q 699 369 689 369 q 715 363 708 369 q 718 349 721 356 q 701 283 714 325 q 688 226 700 276 l 665 139 q 639 38 646 63 q 625 -8 632 11 q 614 -42 618 -28 q 594 -103 607 -68 q 557 -194 578 -150 q 542 -223 551 -204 q 525 -254 533 -242 q 479 -314 503 -293 q 439 -328 463 -331 m 93 -132 q 101 -131 99 -132 l 108 -128 l 140 -106 q 201 -39 171 -79 l 236 11 q 304 135 281 83 l 376 296 q 393 340 386 315 l 401 378 q 432 493 421 456 q 465 579 451 551 q 469 601 471 589 q 464 643 467 629 l 456 688 q 438 739 442 728 q 413 790 428 764 q 390 813 403 803 q 367 819 379 824 q 333 810 349 817 q 278 757 311 796 l 260 733 q 242 708 249 717 q 199 638 222 683 l 164 568 q 126 478 144 526 q 104 403 118 453 q 86 331 90 356 q 68 217 72 258 l 63 156 q 60 96 60 114 l 60 21 q 63 -29 60 -12 q 74 -94 68 -74 q 80 -112 75 -103 q 88 -126 85 -121 q 93 -132 88 -126 m 425 951 q 397 957 410 951 l 369 975 l 353 983 q 338 982 347 988 q 313 965 321 974 q 300 954 307 958 q 278 943 285 943 q 264 952 268 943 q 261 971 260 961 q 275 996 264 982 q 317 1025 294 1018 q 335 1029 325 1029 q 351 1025 343 1029 q 388 1006 365 1019 l 407 993 q 425 994 417 989 q 449 1014 438 1003 q 469 1019 456 1019 q 488 1013 481 1019 q 489 994 494 1006 q 475 974 482 982 q 451 956 468 965 q 443 953 449 953 l 425 951 z "},"Æ":{"ha":938,"x_min":-14,"x_max":1049,"o":"m 299 -354 q 275 -358 286 -358 q 238 -346 257 -358 q 228 -319 224 -336 l 235 -299 l 247 -264 l 289 -165 q 325 -69 314 -101 q 333 -51 328 -60 q 340 -32 338 -42 l 353 3 q 354 6 354 4 q 356 10 354 8 q 358 44 356 19 l 367 118 l 367 128 q 349 96 358 118 l 329 57 l 283 -19 q 269 -41 279 -26 q 249 -65 258 -56 l 247 -68 q 235 -84 243 -75 q 221 -101 226 -93 q 217 -106 217 -106 l 183 -139 q 143 -162 165 -154 q 111 -169 126 -169 q 92 -167 106 -169 q 64 -158 76 -164 q 15 -112 36 -149 q -6 -39 3 -90 q -12 71 -12 7 q -12 126 -14 96 q -10 169 -10 157 l -6 221 l 3 290 l 6 310 q 25 403 18 375 l 47 476 q 89 583 60 517 l 103 613 q 117 642 108 622 q 165 726 125 660 q 179 746 174 740 q 190 761 185 754 q 197 772 194 768 q 207 785 200 776 q 222 799 214 793 l 231 808 q 290 854 251 835 q 340 867 318 867 q 396 860 367 868 q 456 822 431 850 q 488 771 479 793 l 497 750 l 499 746 l 503 749 l 550 772 l 597 793 l 633 808 l 642 832 q 651 847 646 843 q 664 851 656 851 q 676 850 672 851 q 703 832 696 844 l 729 840 l 783 854 q 808 860 792 857 q 835 867 824 863 q 846 869 843 869 l 967 894 l 1007 901 l 1013 901 q 1040 888 1029 901 q 1046 880 1044 883 q 1049 874 1047 876 q 1038 863 1047 865 q 985 850 1031 861 q 951 840 974 846 l 907 828 l 893 824 l 876 819 q 808 801 853 815 q 750 783 769 790 q 704 769 719 775 q 697 767 700 768 q 690 764 693 765 q 529 257 614 504 l 549 261 l 622 283 l 665 296 q 678 299 674 299 q 694 304 683 301 l 715 308 q 733 311 726 311 q 772 296 753 311 q 772 282 782 289 q 761 278 768 278 q 696 260 743 274 l 647 244 l 603 228 l 526 203 q 510 197 521 200 l 483 124 q 457 51 471 94 l 431 -21 l 403 -94 q 389 -131 396 -114 l 375 -165 l 363 -194 l 346 -237 q 349 -238 347 -239 q 351 -237 351 -237 q 444 -174 396 -203 q 458 -164 450 -169 q 472 -156 467 -158 q 511 -135 506 -136 l 524 -129 q 552 -116 535 -124 q 581 -106 569 -108 q 611 -96 588 -103 q 686 -76 653 -82 l 717 -68 l 764 -61 l 783 -57 q 794 -56 788 -56 q 808 -57 803 -56 q 818 -60 814 -58 q 839 -76 828 -62 q 835 -85 840 -82 q 821 -93 824 -93 l 790 -101 l 765 -110 l 733 -118 q 697 -128 725 -121 q 649 -140 671 -132 q 600 -156 611 -153 l 592 -160 q 546 -182 561 -174 q 532 -190 538 -186 q 521 -197 526 -194 q 503 -207 518 -200 q 461 -233 489 -217 l 421 -262 l 371 -300 l 350 -315 q 339 -325 342 -321 q 299 -354 322 -343 m 103 -128 q 111 -126 108 -128 l 118 -124 l 150 -101 q 211 -35 181 -75 l 246 15 q 314 139 290 88 l 386 300 q 403 344 396 319 l 411 382 q 442 497 431 460 q 475 583 461 556 q 479 606 481 593 q 474 647 476 633 l 465 692 q 447 743 451 732 q 422 794 438 768 q 400 817 413 807 q 376 824 389 828 q 343 814 358 821 q 288 761 321 800 l 269 738 q 251 713 258 721 q 208 642 232 688 l 174 572 q 136 482 154 531 q 114 407 128 457 q 96 335 100 360 q 78 221 82 263 l 72 160 q 69 100 69 118 l 69 25 q 72 -25 69 -8 q 83 -90 78 -69 q 90 -108 85 -99 q 97 -122 94 -117 q 103 -128 97 -122 m 568 626 l 585 676 l 601 726 l 603 731 q 597 731 600 732 q 592 729 594 729 l 583 728 l 574 724 l 515 700 l 514 699 q 519 676 517 682 q 528 617 525 657 q 529 606 529 613 l 554 586 l 554 585 l 568 626 z "},"B":{"ha":831,"x_min":-8,"x_max":876,"o":"m 256 -351 q 231 -344 247 -350 q 207 -326 215 -337 q 185 -271 189 -303 q 196 -197 183 -240 q 233 -107 211 -150 q 271 -44 250 -76 q 365 64 306 4 l 421 117 q 485 168 450 143 l 553 214 l 557 218 q 551 228 554 222 q 542 242 547 235 q 485 289 517 271 q 449 299 467 299 q 430 300 442 299 q 410 303 418 301 q 376 322 394 304 q 374 329 374 325 l 374 335 q 381 353 374 346 l 396 367 l 463 433 l 464 435 q 496 469 474 447 l 522 499 q 561 542 563 543 q 597 586 558 539 q 615 608 606 594 q 631 628 625 621 q 640 642 636 635 q 650 656 644 649 q 669 684 661 671 q 683 707 676 697 q 733 824 722 778 l 738 849 q 725 936 740 899 q 686 974 714 967 q 651 978 669 978 q 614 974 632 978 q 538 947 569 964 q 506 931 519 939 q 481 918 492 924 q 435 886 465 908 q 392 851 439 889 q 339 800 356 818 q 288 742 315 776 l 250 694 q 228 661 236 672 l 215 642 l 178 574 q 133 482 153 531 q 99 389 114 439 q 85 339 88 356 q 82 328 82 331 q 79 293 82 313 q 75 265 76 274 q 61 197 68 222 q 58 189 60 193 q 56 179 57 185 q 44 169 54 172 l 26 165 q 18 164 24 164 q 3 169 10 164 q -7 190 -8 179 l -7 231 l -7 246 q -1 324 -4 296 q 6 386 0 344 l 13 458 l 17 490 l 32 617 q 39 660 33 633 q 57 761 43 697 q 71 803 65 789 q 82 815 76 811 q 99 821 88 821 q 126 813 117 818 q 129 789 129 804 l 118 685 q 111 610 117 660 l 106 551 q 106 538 104 543 q 110 542 110 538 q 168 653 129 585 q 247 769 213 728 q 331 858 293 824 q 393 911 381 903 l 439 943 q 474 961 444 947 q 549 994 511 981 q 629 1014 597 1013 q 711 1004 674 1017 q 726 999 717 1003 q 740 992 735 996 q 752 986 746 990 q 761 979 758 982 l 764 978 q 807 915 789 960 q 817 867 817 889 l 818 843 q 807 779 818 813 q 774 701 792 738 q 739 644 747 656 q 728 628 733 638 q 717 611 724 619 q 702 591 711 604 q 683 569 693 578 q 681 565 681 567 q 667 547 676 557 q 654 532 658 538 l 629 503 l 618 489 l 565 433 l 538 404 q 513 376 519 386 l 486 353 l 482 349 q 476 341 481 347 q 463 331 471 335 q 466 327 464 328 q 469 326 468 326 q 506 313 494 318 q 564 275 538 296 q 583 258 572 268 q 601 243 593 249 l 638 261 l 694 290 l 768 325 l 778 328 l 788 332 q 839 358 810 346 q 860 363 851 363 q 876 350 876 363 q 869 336 876 343 q 840 314 856 322 q 790 290 825 306 q 750 271 771 283 l 667 229 l 628 208 q 629 205 629 207 q 631 201 629 203 q 661 142 649 174 q 682 64 678 97 q 683 13 683 46 q 668 -61 682 -24 q 643 -115 658 -90 l 635 -131 l 632 -136 l 613 -162 q 589 -194 599 -185 q 558 -224 564 -219 l 550 -232 q 544 -239 547 -235 q 536 -247 540 -243 q 486 -285 486 -285 l 478 -290 q 358 -350 421 -332 q 303 -358 331 -358 q 256 -351 275 -358 m 306 -308 q 354 -293 329 -304 q 436 -242 401 -271 l 481 -206 l 485 -200 l 510 -172 q 532 -144 518 -162 q 556 -110 546 -125 q 590 -33 578 -71 q 603 44 603 4 q 596 110 601 69 q 589 142 594 125 q 581 168 583 160 q 575 178 581 169 q 560 168 564 169 q 533 150 549 161 q 508 133 517 139 l 471 104 q 442 79 457 94 q 392 32 400 40 q 329 -43 358 -4 q 293 -103 306 -76 q 257 -192 269 -146 q 249 -251 247 -226 q 269 -300 251 -283 q 289 -308 278 -308 l 306 -308 z "},"C":{"ha":574,"x_min":-35,"x_max":621,"o":"m 171 -314 q 85 -299 124 -318 q 42 -269 58 -285 q 32 -260 42 -269 q 10 -232 24 -251 q -4 -208 0 -219 q -31 -121 -21 -175 q -32 -114 -32 -119 l -31 -101 q -32 -82 -31 -92 q -33 -62 -33 -72 l -35 -56 q -34 -33 -33 -46 q -35 -15 -35 -21 q -33 0 -35 -6 l -31 63 l -25 117 l -15 186 q 6 304 -7 249 q 32 410 13 340 q 71 526 43 449 q 121 640 92 581 q 133 666 126 654 q 144 688 140 678 q 214 801 167 731 q 235 831 225 821 q 301 900 269 875 q 367 939 328 924 l 372 942 q 419 949 397 949 q 438 947 432 949 q 453 944 442 947 q 557 876 518 935 q 579 835 569 858 q 593 803 589 811 q 595 794 593 800 q 596 782 597 788 l 585 774 q 575 776 579 774 q 567 778 571 778 q 550 794 551 781 q 543 813 549 803 q 535 832 538 824 q 503 883 519 865 q 465 910 488 899 q 457 913 463 913 q 392 893 421 917 q 342 844 365 872 q 315 813 319 817 q 309 803 313 810 q 303 793 306 797 l 276 753 q 258 726 274 750 q 215 649 249 711 q 203 624 213 642 q 188 589 193 606 l 186 585 q 148 495 165 543 q 128 439 131 447 q 101 346 121 417 q 92 309 97 331 q 85 276 88 288 q 78 249 82 265 q 72 210 75 232 l 61 142 q 50 24 51 78 q 49 -18 49 10 q 47 -65 47 -35 l 47 -68 q 51 -111 49 -79 q 58 -169 53 -143 q 74 -217 60 -181 q 75 -217 75 -217 q 75 -218 75 -218 q 92 -247 81 -235 q 104 -261 103 -260 q 143 -279 119 -279 q 206 -267 172 -281 q 289 -204 250 -246 q 342 -142 319 -171 q 371 -100 342 -142 q 468 93 426 -8 q 478 115 474 104 q 488 133 483 125 l 500 163 l 538 254 l 576 353 q 600 369 582 369 q 615 365 608 369 q 621 351 621 360 q 618 340 621 344 l 560 188 q 532 115 551 163 q 500 42 526 101 q 488 13 496 32 q 471 -19 479 -6 q 428 -99 450 -64 l 400 -142 q 384 -164 392 -154 q 371 -182 376 -174 l 358 -199 l 333 -226 q 288 -267 317 -244 q 171 -314 233 -308 z "},"Ç":{"ha":574,"x_min":-35,"x_max":621,"o":"m 171 -314 q 85 -299 124 -318 q 42 -269 58 -285 q 32 -260 42 -269 q 10 -232 24 -251 q -4 -208 0 -219 q -31 -121 -21 -175 q -32 -114 -32 -119 l -31 -101 q -32 -82 -31 -92 q -33 -62 -33 -72 l -35 -56 q -34 -33 -33 -46 q -35 -15 -35 -21 q -33 0 -35 -6 l -31 63 l -25 117 l -15 186 q 6 304 -7 249 q 32 410 13 340 q 71 526 43 449 q 121 640 92 581 q 133 666 126 654 q 144 688 140 678 q 214 801 167 731 q 235 831 225 821 q 301 900 269 875 q 367 939 328 924 l 372 942 q 419 949 397 949 q 438 947 432 949 q 453 944 442 947 q 557 876 518 935 q 579 835 569 858 q 593 803 589 811 q 595 794 593 800 q 596 782 597 788 l 585 774 q 575 776 579 774 q 567 778 571 778 q 550 794 551 781 q 543 813 549 803 q 535 832 538 824 q 503 883 519 865 q 465 910 488 899 q 457 913 463 913 q 392 893 421 917 q 342 844 365 872 q 315 813 319 817 q 309 803 313 810 q 303 793 306 797 l 276 753 q 258 726 274 750 q 215 649 249 711 q 203 624 213 642 q 188 589 193 606 l 186 585 q 148 495 165 543 q 128 439 131 447 q 101 346 121 417 q 92 309 97 331 q 85 276 88 288 q 78 249 82 265 q 72 210 75 232 l 61 142 q 50 24 51 78 q 49 -18 49 10 q 47 -65 47 -35 l 47 -68 q 51 -111 49 -79 q 58 -169 53 -143 q 74 -217 60 -181 q 75 -217 75 -217 q 75 -218 75 -218 q 92 -247 81 -235 q 104 -261 103 -260 q 143 -279 119 -279 q 206 -267 172 -281 q 289 -204 250 -246 q 342 -142 319 -171 q 371 -100 342 -142 q 468 93 426 -8 q 478 115 474 104 q 488 133 483 125 l 500 163 l 538 254 l 576 353 q 600 369 582 369 q 615 365 608 369 q 621 351 621 360 q 618 340 621 344 l 560 188 q 532 115 551 163 q 500 42 526 101 q 488 13 496 32 q 471 -19 479 -6 q 428 -99 450 -64 l 400 -142 q 384 -164 392 -154 q 371 -182 376 -174 l 358 -199 l 333 -226 q 288 -267 317 -244 q 171 -314 233 -308 m 147 -487 q 125 -492 136 -492 q 75 -468 92 -492 q 68 -453 71 -464 l 68 -446 q 78 -411 68 -426 q 85 -401 79 -407 q 99 -397 92 -397 q 107 -402 104 -399 q 110 -407 110 -406 q 116 -409 111 -408 q 124 -412 121 -410 q 126 -419 124 -414 q 116 -429 122 -424 q 108 -442 110 -435 q 108 -454 106 -450 l 113 -454 q 125 -450 121 -454 q 172 -393 161 -428 q 174 -383 174 -389 q 171 -369 174 -375 q 167 -370 169 -371 q 161 -371 164 -369 l 138 -383 q 117 -390 124 -392 q 88 -375 94 -385 q 83 -354 82 -365 q 88 -335 83 -343 q 103 -303 93 -319 l 104 -300 q 119 -289 111 -289 q 133 -296 126 -289 l 143 -303 q 155 -313 153 -308 q 154 -329 157 -318 l 154 -332 l 157 -335 q 183 -344 171 -336 q 197 -354 194 -353 q 214 -397 214 -368 q 200 -442 214 -418 q 147 -487 182 -472 z "},"D":{"ha":833,"x_min":-107,"x_max":874,"o":"m 211 -361 q 179 -358 199 -361 q 125 -331 154 -357 q 117 -320 121 -328 q 110 -308 113 -312 q 104 -274 104 -293 q 136 -133 99 -203 q 194 -56 163 -90 l 231 -12 q 283 39 247 6 l 343 92 l 388 122 q 492 192 428 151 l 521 211 q 592 251 544 224 l 628 274 q 638 309 633 289 q 646 338 643 329 q 661 415 653 365 q 667 511 668 471 q 664 582 668 544 q 658 625 661 613 q 655 641 657 629 q 649 663 653 653 q 635 700 640 688 q 594 756 625 728 q 532 779 567 779 q 454 767 497 781 q 411 746 447 764 q 318 675 372 724 q 296 655 308 668 q 275 633 283 642 l 254 608 q 206 549 231 583 q 190 525 192 528 q 163 485 175 504 q 126 424 158 476 l 93 356 q 68 283 75 322 l 64 267 l 50 211 l 33 146 q 26 115 31 133 q 17 71 21 96 l -4 -7 q -26 -81 -11 -36 q -40 -107 -29 -90 q -57 -118 -44 -118 q -65 -121 -60 -119 q -72 -122 -69 -122 q -97 -115 -90 -122 q -101 -111 -97 -115 q -106 -97 -107 -106 q -104 -82 -106 -87 q -82 26 -96 -46 q -51 144 -68 72 l -40 189 q -29 233 -37 208 l 1 350 q 32 464 18 419 q 51 526 32 465 q 68 579 57 550 q 94 636 72 596 q 106 646 97 640 q 119 647 110 647 q 140 643 129 647 q 151 628 151 639 l 151 621 q 147 588 151 603 l 133 532 l 135 528 q 156 557 135 528 q 201 617 183 596 q 257 679 224 646 q 339 750 292 718 l 353 758 q 442 804 392 786 q 497 815 471 814 l 531 815 q 611 793 565 814 q 679 743 653 774 q 719 678 710 708 q 726 656 725 664 q 736 624 733 643 l 740 604 q 747 547 744 586 q 749 481 749 525 q 739 388 746 418 q 732 338 738 371 q 731 334 731 336 q 732 331 732 332 l 775 350 q 817 363 783 354 q 854 374 850 372 l 857 374 q 869 369 864 374 q 874 360 874 365 q 863 347 874 351 q 801 322 849 343 q 726 285 753 300 q 714 269 718 279 q 699 215 710 251 q 683 171 694 204 q 658 110 671 138 q 651 92 656 104 q 640 69 646 79 l 633 56 q 621 29 626 42 q 610 7 615 17 q 596 -11 604 -3 l 592 -18 q 584 -34 590 -25 q 575 -49 578 -43 q 568 -58 574 -53 q 525 -119 549 -89 q 519 -126 522 -125 q 513 -136 518 -131 l 506 -146 l 465 -193 q 442 -222 458 -203 q 432 -232 442 -222 l 396 -265 q 387 -274 393 -269 q 376 -282 381 -279 q 315 -326 344 -312 q 219 -361 265 -354 l 211 -361 m 210 -317 q 222 -311 213 -317 q 282 -275 243 -300 q 339 -225 297 -264 l 353 -212 q 432 -121 397 -168 q 461 -81 447 -104 q 479 -54 464 -78 q 507 -11 503 -21 q 519 10 511 -3 q 532 33 528 24 q 544 59 536 44 q 558 83 553 74 q 574 118 561 92 q 593 168 586 144 l 610 213 l 604 213 l 582 200 l 535 171 q 446 114 504 153 q 369 60 410 92 q 351 46 368 58 q 275 -28 289 -14 q 267 -36 272 -32 q 185 -142 217 -86 q 161 -211 165 -179 q 157 -249 157 -231 q 158 -269 157 -262 q 169 -300 160 -286 q 210 -317 185 -324 z "},"Ð":{"ha":833,"x_min":-107,"x_max":874,"o":"m 211 -361 q 179 -358 199 -361 q 125 -331 154 -357 q 117 -320 121 -328 q 110 -308 113 -312 q 104 -274 104 -293 q 136 -133 99 -203 q 194 -56 163 -90 l 231 -12 q 283 39 247 6 l 343 92 l 388 122 q 492 192 428 151 l 521 211 q 592 251 544 224 l 628 274 q 638 309 633 289 q 646 338 643 329 q 661 415 653 365 q 667 511 668 471 q 664 582 668 544 q 658 625 661 613 q 655 641 657 629 q 649 663 653 653 q 635 700 640 688 q 594 756 625 728 q 532 779 567 779 q 454 767 497 781 q 411 746 447 764 q 318 675 372 724 q 296 655 308 668 q 275 633 283 642 l 254 608 q 206 549 231 583 q 190 525 192 528 q 163 485 175 504 q 126 424 158 476 l 93 356 q 68 283 75 322 l 64 267 l 50 211 l 33 146 q 26 115 31 133 q 17 71 21 96 l -4 -7 q -26 -81 -11 -36 q -40 -107 -29 -90 q -57 -118 -44 -118 q -65 -121 -60 -119 q -72 -122 -69 -122 q -97 -115 -90 -122 q -101 -111 -97 -115 q -106 -97 -107 -106 q -104 -82 -106 -87 q -82 26 -96 -46 q -51 144 -68 72 l -40 189 q -29 233 -37 208 l 1 350 q 32 464 18 419 q 51 526 32 465 q 68 579 57 550 q 94 636 72 596 q 106 646 97 640 q 119 647 110 647 q 140 643 129 647 q 151 628 151 639 l 151 621 q 147 588 151 603 l 133 532 l 135 528 q 156 557 135 528 q 201 617 183 596 q 257 679 224 646 q 339 750 292 718 l 353 758 q 442 804 392 786 q 497 815 471 814 l 531 815 q 611 793 565 814 q 679 743 653 774 q 719 678 710 708 q 726 656 725 664 q 736 624 733 643 l 740 604 q 747 547 744 586 q 749 481 749 525 q 739 388 746 418 q 732 338 738 371 q 731 334 731 336 q 732 331 732 332 l 775 350 q 817 363 783 354 q 854 374 850 372 l 857 374 q 869 369 864 374 q 874 360 874 365 q 863 347 874 351 q 801 322 849 343 q 726 285 753 300 q 714 269 718 279 q 699 215 710 251 q 683 171 694 204 q 658 110 671 138 q 651 92 656 104 q 640 69 646 79 l 633 56 q 621 29 626 42 q 610 7 615 17 q 596 -11 604 -3 l 592 -18 q 584 -34 590 -25 q 575 -49 578 -43 q 568 -58 574 -53 q 525 -119 549 -89 q 519 -126 522 -125 q 513 -136 518 -131 l 506 -146 l 465 -193 q 442 -222 458 -203 q 432 -232 442 -222 l 396 -265 q 387 -274 393 -269 q 376 -282 381 -279 q 315 -326 344 -312 q 219 -361 265 -354 l 211 -361 m 210 -317 q 222 -311 213 -317 q 282 -275 243 -300 q 339 -225 297 -264 l 353 -212 q 432 -121 397 -168 q 461 -81 447 -104 q 479 -54 464 -78 q 507 -11 503 -21 q 519 10 511 -3 q 532 33 528 24 q 544 59 536 44 q 558 83 553 74 q 574 118 561 92 q 593 168 586 144 l 610 213 l 604 213 l 582 200 l 535 171 q 446 114 504 153 q 369 60 410 92 q 351 46 368 58 q 275 -28 289 -14 q 267 -36 272 -32 q 185 -142 217 -86 q 161 -211 165 -179 q 157 -249 157 -231 q 158 -269 157 -262 q 169 -300 160 -286 q 210 -317 185 -324 m -64 297 q -101 319 -90 297 q -101 336 -106 328 q -92 343 -100 340 q -61 350 -72 349 l 42 363 q 60 365 49 364 q 89 367 72 367 q 117 368 99 368 l 131 367 l 161 367 l 169 367 q 194 353 186 365 q 200 326 203 340 q 190 318 200 318 l 178 318 q 143 315 165 318 q 92 308 115 308 q 39 306 75 308 q -39 299 14 304 l -64 297 z "},"E":{"ha":590,"x_min":-110,"x_max":715,"o":"m -35 -281 q -58 -285 -47 -285 q -96 -272 -78 -285 q -106 -246 -110 -262 l -99 -225 l -86 -190 l -44 -92 q -8 4 -19 -28 q -1 23 -6 14 q 7 42 4 32 l 19 76 l 44 146 q 54 174 50 158 l 71 224 l 53 226 q 32 235 38 229 q 29 251 24 243 l 42 265 l 71 282 l 96 293 l 113 339 q 126 381 118 353 q 158 471 153 451 q 185 553 168 497 l 190 567 q 213 633 204 611 l 235 700 l 251 750 l 268 800 l 269 804 q 264 804 267 806 q 258 803 261 803 l 250 801 l 240 797 l 182 774 q 174 772 179 772 q 163 775 167 772 l 150 782 q 144 787 146 783 q 140 792 142 790 q 143 804 138 799 q 169 822 160 818 l 217 846 l 264 867 l 300 882 l 308 906 q 317 921 313 917 q 331 925 322 925 q 343 924 339 925 q 369 906 363 918 l 396 914 l 450 928 q 474 933 458 931 q 501 940 490 936 q 513 943 510 943 l 633 968 l 674 975 l 679 975 q 707 961 696 975 q 713 953 711 957 q 715 947 714 950 q 704 936 714 939 q 651 924 697 935 q 618 914 640 919 l 574 901 l 560 897 l 543 893 q 475 875 519 889 q 417 857 436 864 q 371 843 386 849 q 363 840 367 842 q 357 838 360 839 q 196 331 281 578 l 215 335 l 289 357 l 332 369 q 344 372 340 372 q 361 378 350 375 l 382 382 q 400 385 393 385 q 439 369 419 385 q 439 356 449 363 q 428 351 435 351 q 363 333 410 347 l 314 318 l 269 301 l 193 276 q 176 271 188 274 l 150 197 q 124 125 138 168 l 97 53 l 69 -21 q 56 -57 63 -40 l 42 -92 l 29 -121 l 13 -164 q 16 -165 14 -165 q 18 -164 18 -164 q 111 -100 63 -129 q 125 -90 117 -96 q 139 -82 133 -85 q 178 -61 172 -62 l 190 -56 q 219 -42 201 -50 q 247 -32 236 -35 q 278 -22 254 -29 q 353 -3 319 -8 l 383 6 l 431 13 l 450 17 q 461 18 454 18 q 475 17 469 18 q 485 14 481 15 q 506 -3 494 11 q 501 -11 507 -8 q 488 -19 490 -19 l 457 -28 l 432 -36 l 400 -44 q 364 -54 392 -47 q 315 -67 338 -58 q 267 -82 278 -79 l 258 -86 q 213 -108 228 -100 q 199 -117 204 -112 q 188 -124 193 -121 q 169 -133 185 -126 q 128 -160 156 -143 l 88 -189 l 38 -226 l 17 -242 q 6 -251 8 -247 q -35 -281 -11 -269 z "},"É":{"ha":590,"x_min":-107,"x_max":715,"o":"m -35 -281 q -58 -285 -47 -285 q -96 -272 -78 -285 q -106 -246 -110 -262 l -99 -225 l -86 -190 l -44 -92 q -8 4 -19 -28 q -1 23 -6 14 q 7 42 4 32 l 19 76 l 44 146 q 54 174 50 158 l 71 224 l 53 226 q 32 235 38 229 q 29 251 24 243 l 42 265 l 71 282 l 96 293 l 113 339 q 126 381 118 353 q 158 471 153 451 q 185 553 168 497 l 190 567 q 213 633 204 611 l 235 700 l 251 750 l 268 800 l 269 804 q 264 804 267 806 q 258 803 261 803 l 250 801 l 240 797 l 182 774 q 174 772 179 772 q 163 775 167 772 l 150 782 q 144 787 146 783 q 140 792 142 790 q 143 804 138 799 q 169 822 160 818 l 217 846 l 264 867 l 300 882 l 308 906 q 317 921 313 917 q 331 925 322 925 q 343 924 339 925 q 369 906 363 918 l 396 914 l 450 928 q 474 933 458 931 q 501 940 490 936 q 513 943 510 943 l 633 968 l 674 975 l 679 975 q 707 961 696 975 q 713 953 711 957 q 715 947 714 950 q 704 936 714 939 q 651 924 697 935 q 618 914 640 919 l 574 901 l 560 897 l 543 893 q 475 875 519 889 q 417 857 436 864 q 371 843 386 849 q 363 840 367 842 q 357 838 360 839 q 196 331 281 578 l 215 335 l 289 357 l 332 369 q 344 372 340 372 q 361 378 350 375 l 382 382 q 400 385 393 385 q 439 369 419 385 q 439 356 449 363 q 428 351 435 351 q 363 333 410 347 l 314 318 l 269 301 l 193 276 q 176 271 188 274 l 150 197 q 124 125 138 168 l 97 53 l 69 -21 q 56 -57 63 -40 l 42 -92 l 29 -121 l 13 -164 q 16 -165 14 -165 q 18 -164 18 -164 q 111 -100 63 -129 q 125 -90 117 -96 q 139 -82 133 -85 q 178 -61 172 -62 l 190 -56 q 219 -42 201 -50 q 247 -32 236 -35 q 278 -22 254 -29 q 353 -3 319 -8 l 383 6 l 431 13 l 450 17 q 461 18 454 18 q 475 17 469 18 q 485 14 481 15 q 506 -3 494 11 q 501 -11 507 -8 q 488 -19 490 -19 l 457 -28 l 432 -36 l 400 -44 q 364 -54 392 -47 q 315 -67 338 -58 q 267 -82 278 -79 l 258 -86 q 213 -108 228 -100 q 199 -117 204 -112 q 188 -124 193 -121 q 169 -133 185 -126 q 128 -160 156 -143 l 88 -189 l 38 -226 l 17 -242 q 6 -251 8 -247 q -35 -281 -11 -269 m 429 985 q 415 990 424 985 q 403 1006 407 994 q 403 1018 400 1013 q 438 1108 421 1067 q 443 1121 440 1117 q 456 1129 447 1129 q 476 1117 467 1129 q 482 1096 486 1106 l 458 1039 l 442 997 q 440 993 442 996 q 438 989 439 990 q 429 985 435 985 z "},"Ê":{"ha":590,"x_min":-107,"x_max":715,"o":"m -35 -281 q -58 -285 -47 -285 q -96 -272 -78 -285 q -106 -246 -110 -262 l -99 -225 l -86 -190 l -44 -92 q -8 4 -19 -28 q -1 23 -6 14 q 7 42 4 32 l 19 76 l 44 146 q 54 174 50 158 l 71 224 l 53 226 q 32 235 38 229 q 29 251 24 243 l 42 265 l 71 282 l 96 293 l 113 339 q 126 381 118 353 q 158 471 153 451 q 185 553 168 497 l 190 567 q 213 633 204 611 l 235 700 l 251 750 l 268 800 l 269 804 q 264 804 267 806 q 258 803 261 803 l 250 801 l 240 797 l 182 774 q 174 772 179 772 q 163 775 167 772 l 150 782 q 144 787 146 783 q 140 792 142 790 q 143 804 138 799 q 169 822 160 818 l 217 846 l 264 867 l 300 882 l 308 906 q 317 921 313 917 q 331 925 322 925 q 343 924 339 925 q 369 906 363 918 l 396 914 l 450 928 q 474 933 458 931 q 501 940 490 936 q 513 943 510 943 l 633 968 l 674 975 l 679 975 q 707 961 696 975 q 713 953 711 957 q 715 947 714 950 q 704 936 714 939 q 651 924 697 935 q 618 914 640 919 l 574 901 l 560 897 l 543 893 q 475 875 519 889 q 417 857 436 864 q 371 843 386 849 q 363 840 367 842 q 357 838 360 839 q 196 331 281 578 l 215 335 l 289 357 l 332 369 q 344 372 340 372 q 361 378 350 375 l 382 382 q 400 385 393 385 q 439 369 419 385 q 439 356 449 363 q 428 351 435 351 q 363 333 410 347 l 314 318 l 269 301 l 193 276 q 176 271 188 274 l 150 197 q 124 125 138 168 l 97 53 l 69 -21 q 56 -57 63 -40 l 42 -92 l 29 -121 l 13 -164 q 16 -165 14 -165 q 18 -164 18 -164 q 111 -100 63 -129 q 125 -90 117 -96 q 139 -82 133 -85 q 178 -61 172 -62 l 190 -56 q 219 -42 201 -50 q 247 -32 236 -35 q 278 -22 254 -29 q 353 -3 319 -8 l 383 6 l 431 13 l 450 17 q 461 18 454 18 q 475 17 469 18 q 485 14 481 15 q 506 -3 494 11 q 501 -11 507 -8 q 488 -19 490 -19 l 457 -28 l 432 -36 l 400 -44 q 364 -54 392 -47 q 315 -67 338 -58 q 267 -82 278 -79 l 258 -86 q 213 -108 228 -100 q 199 -117 204 -112 q 188 -124 193 -121 q 169 -133 185 -126 q 128 -160 156 -143 l 88 -189 l 38 -226 l 17 -242 q 6 -251 8 -247 q -35 -281 -11 -269 m 519 994 q 503 1001 510 994 l 497 1007 q 486 1024 488 1014 l 478 1051 l 475 1060 l 465 1051 l 436 1015 q 421 1004 429 1006 q 408 1010 411 1001 q 401 1014 408 1011 q 392 1023 394 1017 q 393 1035 389 1029 q 419 1069 406 1054 l 449 1101 q 467 1111 454 1110 l 472 1111 q 488 1106 482 1111 q 515 1058 511 1086 q 526 1017 521 1031 q 528 1008 528 1014 q 519 994 528 1001 z "},"Ë":{"ha":590,"x_min":-107,"x_max":715,"o":"m -35 -281 q -58 -285 -47 -285 q -96 -272 -78 -285 q -106 -246 -110 -262 l -99 -225 l -86 -190 l -44 -92 q -8 4 -19 -28 q -1 23 -6 14 q 7 42 4 32 l 19 76 l 44 146 q 54 174 50 158 l 71 224 l 53 226 q 32 235 38 229 q 29 251 24 243 l 42 265 l 71 282 l 96 293 l 113 339 q 126 381 118 353 q 158 471 153 451 q 185 553 168 497 l 190 567 q 213 633 204 611 l 235 700 l 251 750 l 268 800 l 269 804 q 264 804 267 806 q 258 803 261 803 l 250 801 l 240 797 l 182 774 q 174 772 179 772 q 163 775 167 772 l 150 782 q 144 787 146 783 q 140 792 142 790 q 143 804 138 799 q 169 822 160 818 l 217 846 l 264 867 l 300 882 l 308 906 q 317 921 313 917 q 331 925 322 925 q 343 924 339 925 q 369 906 363 918 l 396 914 l 450 928 q 474 933 458 931 q 501 940 490 936 q 513 943 510 943 l 633 968 l 674 975 l 679 975 q 707 961 696 975 q 713 953 711 957 q 715 947 714 950 q 704 936 714 939 q 651 924 697 935 q 618 914 640 919 l 574 901 l 560 897 l 543 893 q 475 875 519 889 q 417 857 436 864 q 371 843 386 849 q 363 840 367 842 q 357 838 360 839 q 196 331 281 578 l 215 335 l 289 357 l 332 369 q 344 372 340 372 q 361 378 350 375 l 382 382 q 400 385 393 385 q 439 369 419 385 q 439 356 449 363 q 428 351 435 351 q 363 333 410 347 l 314 318 l 269 301 l 193 276 q 176 271 188 274 l 150 197 q 124 125 138 168 l 97 53 l 69 -21 q 56 -57 63 -40 l 42 -92 l 29 -121 l 13 -164 q 16 -165 14 -165 q 18 -164 18 -164 q 111 -100 63 -129 q 125 -90 117 -96 q 139 -82 133 -85 q 178 -61 172 -62 l 190 -56 q 219 -42 201 -50 q 247 -32 236 -35 q 278 -22 254 -29 q 353 -3 319 -8 l 383 6 l 431 13 l 450 17 q 461 18 454 18 q 475 17 469 18 q 485 14 481 15 q 506 -3 494 11 q 501 -11 507 -8 q 488 -19 490 -19 l 457 -28 l 432 -36 l 400 -44 q 364 -54 392 -47 q 315 -67 338 -58 q 267 -82 278 -79 l 258 -86 q 213 -108 228 -100 q 199 -117 204 -112 q 188 -124 193 -121 q 169 -133 185 -126 q 128 -160 156 -143 l 88 -189 l 38 -226 l 17 -242 q 6 -251 8 -247 q -35 -281 -11 -269 m 522 1008 q 497 1015 511 1008 q 489 1026 494 1017 q 483 1043 483 1035 q 486 1054 483 1051 q 510 1065 496 1065 q 538 1052 526 1065 q 546 1026 550 1039 q 538 1013 543 1018 q 528 1008 536 1011 l 522 1008 m 408 1026 q 390 1033 396 1026 q 382 1042 383 1040 q 378 1064 374 1051 q 406 1081 388 1081 q 426 1074 417 1081 q 438 1058 436 1068 l 439 1047 q 432 1031 439 1036 q 408 1026 425 1026 z "},"È":{"ha":590,"x_min":-107,"x_max":715,"o":"m -35 -281 q -58 -285 -47 -285 q -96 -272 -78 -285 q -106 -246 -110 -262 l -99 -225 l -86 -190 l -44 -92 q -8 4 -19 -28 q -1 23 -6 14 q 7 42 4 32 l 19 76 l 44 146 q 54 174 50 158 l 71 224 l 53 226 q 32 235 38 229 q 29 251 24 243 l 42 265 l 71 282 l 96 293 l 113 339 q 126 381 118 353 q 158 471 153 451 q 185 553 168 497 l 190 567 q 213 633 204 611 l 235 700 l 251 750 l 268 800 l 269 804 q 264 804 267 806 q 258 803 261 803 l 250 801 l 240 797 l 182 774 q 174 772 179 772 q 163 775 167 772 l 150 782 q 144 787 146 783 q 140 792 142 790 q 143 804 138 799 q 169 822 160 818 l 217 846 l 264 867 l 300 882 l 308 906 q 317 921 313 917 q 331 925 322 925 q 343 924 339 925 q 369 906 363 918 l 396 914 l 450 928 q 474 933 458 931 q 501 940 490 936 q 513 943 510 943 l 633 968 l 674 975 l 679 975 q 707 961 696 975 q 713 953 711 957 q 715 947 714 950 q 704 936 714 939 q 651 924 697 935 q 618 914 640 919 l 574 901 l 560 897 l 543 893 q 475 875 519 889 q 417 857 436 864 q 371 843 386 849 q 363 840 367 842 q 357 838 360 839 q 196 331 281 578 l 215 335 l 289 357 l 332 369 q 344 372 340 372 q 361 378 350 375 l 382 382 q 400 385 393 385 q 439 369 419 385 q 439 356 449 363 q 428 351 435 351 q 363 333 410 347 l 314 318 l 269 301 l 193 276 q 176 271 188 274 l 150 197 q 124 125 138 168 l 97 53 l 69 -21 q 56 -57 63 -40 l 42 -92 l 29 -121 l 13 -164 q 16 -165 14 -165 q 18 -164 18 -164 q 111 -100 63 -129 q 125 -90 117 -96 q 139 -82 133 -85 q 178 -61 172 -62 l 190 -56 q 219 -42 201 -50 q 247 -32 236 -35 q 278 -22 254 -29 q 353 -3 319 -8 l 383 6 l 431 13 l 450 17 q 461 18 454 18 q 475 17 469 18 q 485 14 481 15 q 506 -3 494 11 q 501 -11 507 -8 q 488 -19 490 -19 l 457 -28 l 432 -36 l 400 -44 q 364 -54 392 -47 q 315 -67 338 -58 q 267 -82 278 -79 l 258 -86 q 213 -108 228 -100 q 199 -117 204 -112 q 188 -124 193 -121 q 169 -133 185 -126 q 128 -160 156 -143 l 88 -189 l 38 -226 l 17 -242 q 6 -251 8 -247 q -35 -281 -11 -269 m 458 978 q 433 989 440 978 q 419 1014 421 1007 q 400 1076 414 1035 l 396 1088 q 394 1096 394 1090 q 400 1104 394 1101 l 408 1106 q 424 1100 418 1106 q 431 1094 425 1097 q 442 1078 440 1088 q 457 1028 453 1050 q 464 1006 458 1018 q 465 998 465 1001 q 467 992 465 994 l 465 986 q 458 978 465 978 z "},"F":{"ha":486,"x_min":-106,"x_max":686,"o":"m -46 -229 q -61 -226 -50 -229 q -81 -208 -76 -222 q -82 -183 -85 -197 q -72 -136 -81 -165 q -35 -8 -57 -69 q -4 76 -28 10 q 43 206 13 119 l 67 272 q 68 283 69 278 l 65 285 q 11 281 38 281 q -19 282 -10 281 q -44 288 -28 282 q -81 303 -51 290 q -97 318 -83 304 q -106 338 -106 326 q -100 356 -106 347 q -75 376 -86 372 q -29 389 -51 385 q -4 390 -21 390 q 81 356 50 390 q 85 353 82 356 q 96 356 92 349 l 100 368 l 111 401 q 126 449 121 428 l 147 507 l 172 583 l 197 660 l 210 699 q 228 753 221 735 q 250 815 242 794 l 279 892 q 281 895 281 893 q 282 899 281 897 q 272 899 278 901 q 161 869 197 882 q 146 864 156 867 q 131 858 136 861 l 122 856 q 67 833 99 850 q 42 813 53 828 q 38 803 38 808 q 43 796 38 799 q 56 789 51 790 q 69 783 61 786 q 88 776 78 779 q 113 758 100 774 q 113 749 118 754 q 82 744 96 739 l 36 763 l 19 771 q -10 794 10 775 q -17 808 -14 799 q -18 817 -18 811 l -19 825 q -8 851 -19 838 q 25 882 1 867 q 63 900 51 897 l 67 901 q 122 925 88 915 q 133 929 128 926 q 144 933 139 932 q 172 941 158 938 q 197 949 185 944 l 235 957 q 319 976 290 971 q 393 992 364 986 q 436 1001 410 996 q 463 1007 443 1003 q 500 1013 483 1011 q 507 1014 504 1013 q 536 1019 519 1018 q 561 1022 553 1021 q 606 1029 574 1024 q 622 1031 611 1031 q 640 1028 635 1031 q 652 1023 644 1025 q 664 1019 660 1021 q 683 996 679 1014 q 679 986 686 989 q 660 976 665 978 q 557 956 589 960 q 490 946 535 951 l 442 936 q 399 926 410 929 l 354 917 l 347 914 q 335 850 344 885 q 322 804 325 815 l 304 740 l 286 682 q 276 651 279 658 l 251 568 l 242 532 l 222 471 l 201 408 l 197 396 l 193 379 l 199 379 q 221 383 210 379 q 293 407 274 399 q 303 410 299 410 q 330 419 318 414 q 351 426 342 424 l 400 442 q 422 449 413 446 q 439 456 431 453 q 448 458 443 457 q 460 460 453 460 q 474 457 465 460 q 494 444 489 451 l 501 438 q 500 425 508 431 q 492 419 496 421 q 485 414 488 417 q 471 408 479 411 q 451 397 463 404 q 368 364 422 379 q 304 340 333 350 q 288 335 296 338 q 271 331 279 333 q 221 317 236 319 l 210 314 q 178 306 196 306 q 174 304 176 304 q 163 294 167 303 q 153 265 158 278 q 146 244 149 253 l 119 172 q 114 150 117 167 q 82 3 107 100 q 44 -107 68 -51 q 32 -135 39 -118 q 15 -171 25 -151 q 1 -196 8 -185 q -11 -217 -6 -207 q -46 -229 -24 -236 m -32 336 q -24 335 -29 335 l -7 336 q 21 339 1 336 q 46 343 33 339 q 33 353 36 351 q 18 356 29 354 q -25 344 3 356 q -32 336 -32 342 z "},"G":{"ha":529,"x_min":-39,"x_max":582,"o":"m 51 -311 q -3 -292 18 -308 q -19 -265 -15 -282 q -22 -236 -22 -256 q -10 -174 -22 -206 q 26 -107 4 -140 q 76 -36 61 -56 q 150 47 107 4 l 182 81 l 229 125 q 285 172 232 128 q 332 210 325 204 q 347 233 342 218 q 358 281 350 250 l 369 325 q 371 335 371 328 q 365 333 369 338 q 278 250 324 290 q 250 226 264 236 l 221 201 q 143 142 178 165 q 72 107 101 113 q 56 106 61 104 q 31 107 39 106 q -3 124 10 110 q -22 150 -19 143 q -35 186 -33 172 q -36 201 -35 194 q -39 214 -37 208 l -39 224 q -36 263 -39 235 q -29 314 -35 282 q -11 404 -25 347 l 19 511 q 39 565 25 529 q 65 633 60 619 q 96 699 79 672 q 125 751 110 728 q 181 828 144 788 q 225 869 188 835 q 228 872 225 869 q 255 888 239 878 q 282 904 271 899 q 340 918 313 918 q 411 892 378 918 q 449 825 438 869 q 453 788 453 807 q 450 760 453 779 l 443 715 q 440 706 443 714 q 422 696 435 694 q 399 708 411 696 q 397 715 397 711 q 397 721 397 719 q 404 757 403 746 q 407 790 407 779 q 400 836 407 817 q 388 864 396 854 l 374 876 q 358 878 368 881 q 326 865 340 874 q 281 828 308 856 q 265 811 275 822 q 247 790 254 800 q 206 731 211 739 q 169 667 181 689 q 163 652 168 663 q 154 632 157 642 l 153 628 q 135 588 144 611 q 122 556 126 565 l 99 488 l 88 449 q 58 336 71 393 q 46 250 47 278 q 44 219 44 239 q 46 176 44 190 q 47 163 46 169 q 50 153 49 157 q 51 151 50 151 q 53 149 51 150 q 104 171 89 163 q 160 210 124 182 q 185 230 174 219 q 204 247 196 240 l 233 272 q 300 333 267 297 q 329 363 300 333 l 386 425 l 393 435 q 424 449 401 449 q 450 439 440 449 q 460 429 460 429 q 468 413 468 424 q 467 393 468 400 l 454 326 l 450 307 q 456 307 453 304 l 526 358 l 535 365 q 556 371 544 371 q 576 363 569 371 q 575 346 582 356 l 565 335 l 546 321 l 467 263 q 438 239 457 256 q 431 228 433 236 q 411 156 424 197 l 401 119 l 393 92 q 388 71 390 85 q 354 -25 372 24 q 326 -85 338 -67 l 318 -100 q 302 -126 311 -111 q 282 -157 293 -140 l 264 -178 q 240 -208 254 -192 q 219 -229 225 -224 q 211 -235 217 -232 l 203 -242 q 183 -260 197 -251 l 165 -272 q 75 -310 136 -294 q 51 -311 61 -312 m 39 -272 q 42 -271 40 -271 q 46 -269 44 -271 q 103 -240 69 -262 q 153 -193 125 -222 q 194 -140 174 -171 q 210 -119 200 -133 q 228 -94 221 -106 q 271 -11 256 -46 q 306 89 288 28 q 321 139 317 122 q 319 146 321 144 q 297 128 322 147 q 240 78 249 86 q 175 15 218 58 q 79 -106 119 -39 q 38 -179 49 -153 q 25 -253 21 -218 q 33 -272 28 -265 l 39 -272 z "},"H":{"ha":625,"x_min":-187,"x_max":756,"o":"m 417 -243 q 405 -256 415 -251 q 382 -261 394 -261 q 352 -253 364 -261 q 343 -229 340 -244 q 358 -141 343 -224 q 379 -17 372 -58 l 388 28 l 411 149 l 438 290 l 458 403 q 476 493 467 439 q 477 496 478 494 q 478 499 476 497 q 460 494 469 499 q 446 489 451 490 q 426 483 435 486 q 413 476 418 479 l 382 464 l 351 453 l 318 440 q 305 435 313 438 q 288 428 297 433 l 257 415 l 226 404 l 193 392 q 179 387 189 390 q 164 378 169 383 l 156 349 l 135 246 l 115 157 l 107 113 l 99 75 l 88 31 q 76 -17 83 11 l 56 -112 l 40 -178 q 33 -197 39 -182 q 22 -206 29 -203 q 10 -207 18 -207 q -18 -200 -4 -207 q -26 -183 -29 -194 l -18 -147 l -6 -85 l 15 31 l 39 163 l 53 226 q 71 311 60 256 l 76 336 q 77 340 78 338 q 78 344 76 343 q 71 343 72 344 q 19 324 47 335 q -15 310 0 317 q -39 299 -29 303 l -101 272 l -135 258 q -151 253 -140 256 l -156 253 q -180 265 -172 253 q -179 283 -187 276 l -160 294 l -92 326 q -33 354 -72 335 l 61 396 q 86 407 69 399 q 94 418 92 408 q 104 458 100 435 l 129 551 l 160 669 q 186 757 176 728 l 199 800 q 217 858 206 819 l 233 906 l 236 914 q 256 924 242 924 q 269 919 263 924 q 281 910 278 914 q 282 897 282 906 q 280 881 282 890 q 278 867 278 871 l 260 792 l 244 729 l 231 671 q 219 621 228 654 q 204 557 214 594 l 192 499 l 181 454 l 181 447 l 243 472 q 271 482 258 478 q 294 490 283 486 q 354 513 307 496 l 414 533 l 483 557 q 493 568 490 558 q 511 646 503 614 q 522 696 514 663 q 581 906 564 854 q 592 922 583 917 q 613 928 601 928 q 631 922 624 928 q 640 907 639 917 q 623 784 640 861 q 581 608 606 707 l 579 592 l 583 592 q 596 594 588 592 l 656 615 q 678 622 664 617 l 685 624 q 718 619 699 626 q 747 603 738 613 q 743 588 756 593 q 715 582 735 585 q 679 574 696 579 l 631 556 l 606 547 q 588 541 597 544 q 567 533 579 538 q 560 501 565 525 q 546 424 550 444 q 526 314 542 396 q 525 306 526 310 q 524 297 524 301 l 511 232 l 499 163 l 479 58 l 467 -4 q 436 -147 464 -14 q 417 -243 421 -228 z "},"I":{"ha":243,"x_min":-46,"x_max":263,"o":"m -26 -187 q -41 -179 -36 -185 q -44 -164 -46 -174 q -40 -137 -44 -162 q -29 -78 -32 -101 q -19 -26 -26 -64 q -16 -12 -17 -18 q -15 -1 -15 -6 l -3 51 l 1 67 l 22 156 l 39 236 l 47 268 q 75 392 54 300 l 113 557 l 138 657 l 174 789 q 196 872 188 844 l 201 892 l 208 903 q 231 913 217 913 q 253 906 244 913 q 261 886 263 899 q 258 855 260 875 q 253 821 256 835 q 224 671 242 744 q 210 607 219 654 l 203 575 l 178 469 q 164 406 171 446 q 149 342 161 392 l 135 281 l 113 190 l 106 153 q 90 93 96 118 l 75 25 q 68 -3 69 4 q 56 -46 58 -40 q 47 -73 50 -61 q 43 -92 44 -85 l 22 -164 q 3 -185 19 -178 q -26 -187 -14 -192 z "},"Í":{"ha":243,"x_min":-44,"x_max":296,"o":"m -26 -187 q -41 -179 -36 -185 q -44 -164 -46 -174 q -40 -137 -44 -162 q -29 -78 -32 -101 q -19 -26 -26 -64 q -16 -12 -17 -18 q -15 -1 -15 -6 l -3 51 l 1 67 l 22 156 l 39 236 l 47 268 q 75 392 54 300 l 113 557 l 138 657 l 174 789 q 196 872 188 844 l 201 892 l 208 903 q 231 913 217 913 q 253 906 244 913 q 261 886 263 899 q 258 855 260 875 q 253 821 256 835 q 224 671 242 744 q 210 607 219 654 l 203 575 l 178 469 q 164 406 171 446 q 149 342 161 392 l 135 281 l 113 190 l 106 153 q 90 93 96 118 l 75 25 q 68 -3 69 4 q 56 -46 58 -40 q 47 -73 50 -61 q 43 -92 44 -85 l 22 -164 q 3 -185 19 -178 q -26 -187 -14 -192 m 242 985 q 228 990 236 985 q 215 1006 219 994 q 215 1018 213 1013 q 250 1108 233 1067 q 256 1121 253 1117 q 268 1129 260 1129 q 289 1117 279 1129 q 294 1096 299 1106 l 271 1039 l 254 997 q 253 993 254 996 q 250 989 251 990 q 242 985 247 985 z "},"Î":{"ha":243,"x_min":-44,"x_max":326,"o":"m -26 -187 q -41 -179 -36 -185 q -44 -164 -46 -174 q -40 -137 -44 -162 q -29 -78 -32 -101 q -19 -26 -26 -64 q -16 -12 -17 -18 q -15 -1 -15 -6 l -3 51 l 1 67 l 22 156 l 39 236 l 47 268 q 75 392 54 300 l 113 557 l 138 657 l 174 789 q 196 872 188 844 l 201 892 l 208 903 q 231 913 217 913 q 253 906 244 913 q 261 886 263 899 q 258 855 260 875 q 253 821 256 835 q 224 671 242 744 q 210 607 219 654 l 203 575 l 178 469 q 164 406 171 446 q 149 342 161 392 l 135 281 l 113 190 l 106 153 q 90 93 96 118 l 75 25 q 68 -3 69 4 q 56 -46 58 -40 q 47 -73 50 -61 q 43 -92 44 -85 l 22 -164 q 3 -185 19 -178 q -26 -187 -14 -192 m 318 965 q 301 972 308 965 l 296 978 q 285 994 286 985 l 276 1022 l 274 1031 l 264 1022 l 235 986 q 219 975 228 976 q 207 981 210 972 q 200 985 207 982 q 190 994 193 988 q 192 1006 188 1000 q 218 1040 204 1025 l 247 1072 q 265 1082 253 1081 l 271 1082 q 286 1076 281 1082 q 314 1029 310 1057 q 325 988 319 1001 q 326 979 326 985 q 318 965 326 972 z "},"Ï":{"ha":243,"x_min":-44,"x_max":342,"o":"m -26 -187 q -41 -179 -36 -185 q -44 -164 -46 -174 q -40 -137 -44 -162 q -29 -78 -32 -101 q -19 -26 -26 -64 q -16 -12 -17 -18 q -15 -1 -15 -6 l -3 51 l 1 67 l 22 156 l 39 236 l 47 268 q 75 392 54 300 l 113 557 l 138 657 l 174 789 q 196 872 188 844 l 201 892 l 208 903 q 231 913 217 913 q 253 906 244 913 q 261 886 263 899 q 258 855 260 875 q 253 821 256 835 q 224 671 242 744 q 210 607 219 654 l 203 575 l 178 469 q 164 406 171 446 q 149 342 161 392 l 135 281 l 113 190 l 106 153 q 90 93 96 118 l 75 25 q 68 -3 69 4 q 56 -46 58 -40 q 47 -73 50 -61 q 43 -92 44 -85 l 22 -164 q 3 -185 19 -178 q -26 -187 -14 -192 m 317 990 q 292 997 306 990 q 283 1008 289 999 q 278 1025 278 1017 q 281 1036 278 1033 q 304 1047 290 1047 q 333 1034 321 1047 q 340 1008 344 1021 q 332 994 338 1000 q 322 990 331 993 l 317 990 m 203 1008 q 184 1015 190 1008 q 176 1024 178 1022 q 172 1046 168 1033 q 200 1063 182 1063 q 221 1056 211 1063 q 232 1040 231 1050 l 233 1029 q 226 1013 233 1018 q 203 1008 219 1008 z "},"Ì":{"ha":243,"x_min":-44,"x_max":269,"o":"m -26 -187 q -41 -179 -36 -185 q -44 -164 -46 -174 q -40 -137 -44 -162 q -29 -78 -32 -101 q -19 -26 -26 -64 q -16 -12 -17 -18 q -15 -1 -15 -6 l -3 51 l 1 67 l 22 156 l 39 236 l 47 268 q 75 392 54 300 l 113 557 l 138 657 l 174 789 q 196 872 188 844 l 201 892 l 208 903 q 231 913 217 913 q 253 906 244 913 q 261 886 263 899 q 258 855 260 875 q 253 821 256 835 q 224 671 242 744 q 210 607 219 654 l 203 575 l 178 469 q 164 406 171 446 q 149 342 161 392 l 135 281 l 113 190 l 106 153 q 90 93 96 118 l 75 25 q 68 -3 69 4 q 56 -46 58 -40 q 47 -73 50 -61 q 43 -92 44 -85 l 22 -164 q 3 -185 19 -178 q -26 -187 -14 -192 m 261 992 q 236 1003 243 992 q 222 1028 224 1021 q 203 1090 217 1049 l 199 1101 q 197 1110 197 1104 q 203 1118 197 1115 l 211 1119 q 226 1114 221 1119 q 233 1108 228 1111 q 244 1092 243 1101 q 260 1042 256 1064 q 267 1019 261 1032 q 268 1012 268 1015 q 269 1006 268 1008 l 268 1000 q 261 992 268 992 z "},"J":{"ha":281,"x_min":-286,"x_max":329,"o":"m -219 -328 q -268 -289 -253 -321 q -283 -242 -279 -264 q -286 -206 -286 -229 q -285 -175 -286 -185 q -239 -40 -275 -111 q -190 29 -222 -10 l -151 74 l -136 89 q -75 146 -97 128 q 22 222 -28 186 l 61 247 l 72 257 l 76 282 q 83 311 78 292 q 89 346 88 331 q 96 385 90 360 l 104 429 q 119 528 108 461 l 129 601 q 139 669 133 621 q 144 708 142 683 l 149 735 q 165 833 156 786 l 172 854 q 185 867 175 865 q 189 868 188 867 q 201 871 197 871 q 222 864 211 871 q 232 851 229 860 l 236 829 q 232 765 238 807 l 221 672 l 211 599 q 197 500 207 571 l 190 446 l 182 394 q 177 369 181 383 q 174 344 174 354 q 169 321 174 342 q 168 313 169 315 l 192 321 q 292 363 226 339 l 304 365 q 322 360 315 365 q 329 347 329 354 q 317 335 329 338 q 256 311 268 315 q 181 276 221 296 l 164 267 q 157 257 160 264 l 157 254 q 138 167 151 225 l 128 128 q 107 53 119 90 q 75 -42 100 32 q 61 -72 68 -58 q 50 -94 54 -85 l 42 -112 q -14 -206 22 -156 l -26 -225 l -43 -243 q -61 -261 -51 -250 q -78 -278 -71 -272 q -88 -285 -82 -281 q -101 -294 -94 -290 l -143 -319 q -192 -331 -164 -331 q -219 -328 -200 -331 m -206 -296 q -194 -293 -200 -296 q -144 -258 -158 -274 q -115 -226 -124 -237 q -76 -167 -87 -187 q -64 -142 -71 -154 q -51 -119 -57 -131 q -15 -43 -26 -69 q -4 -15 -10 -28 q 6 8 1 -3 l 32 92 l 39 117 l 53 174 q 58 200 58 190 q 53 197 56 199 q 47 193 50 196 q 4 163 8 165 q -50 115 -40 125 l -99 68 l -129 35 q -182 -32 -153 10 q -228 -128 -212 -74 q -240 -208 -242 -174 q -231 -265 -240 -240 q -211 -296 -226 -278 l -206 -296 z "},"K":{"ha":417,"x_min":-60,"x_max":649,"o":"m 613 -275 q 572 -244 601 -272 q 532 -200 543 -215 l 504 -164 l 472 -124 q 451 -96 461 -108 q 432 -72 440 -83 q 419 -56 428 -65 q 407 -43 411 -47 l 390 -21 q 383 -10 388 -17 q 374 3 378 -4 q 365 11 372 8 q 351 28 356 21 l 325 58 q 290 99 296 90 q 287 102 289 100 q 283 106 285 104 l 269 121 q 243 151 242 153 q 236 160 238 158 q 219 176 231 171 l 211 183 q 196 202 206 192 q 181 218 186 213 l 153 247 q 135 265 135 265 l 122 276 l 117 269 l 106 231 l 85 149 q 65 72 81 132 q 58 43 64 63 q 43 -11 47 7 q 40 -23 42 -17 q 36 -35 39 -29 l 29 -58 l 26 -74 l 19 -99 l 8 -136 q -6 -150 4 -149 q -25 -153 -12 -153 q -51 -143 -43 -153 q -57 -118 -60 -133 l -42 -61 q -31 -17 -40 -50 l -12 61 l -3 107 l 22 215 l 36 278 l 44 319 l 44 326 q 33 331 42 331 l 26 331 q -3 336 17 331 q -22 354 -18 343 q -24 361 -24 357 q -19 372 -24 367 q -8 381 -15 378 q 3 382 -6 382 l 19 382 l 24 382 q 42 388 31 382 l 60 400 q 65 408 65 403 q 79 461 72 439 q 88 492 79 464 q 101 550 96 531 l 122 639 q 142 719 135 686 l 157 774 q 172 838 160 788 q 184 882 174 842 q 204 933 194 922 q 219 940 210 940 q 238 933 229 940 q 246 914 246 926 q 242 853 246 882 q 229 775 231 779 q 215 707 219 725 l 190 582 q 181 536 186 567 l 175 515 l 181 518 q 207 544 190 528 q 233 575 224 561 q 256 599 244 585 q 275 621 268 613 l 314 665 q 371 732 353 710 q 432 804 390 757 l 453 829 q 500 885 497 882 l 528 914 q 553 924 538 924 l 554 924 q 574 917 564 924 q 579 900 583 910 q 571 885 576 890 q 517 811 550 851 l 493 781 q 461 738 483 765 l 411 675 q 393 652 404 665 q 376 631 382 639 q 340 588 369 619 l 336 582 q 319 563 329 571 l 306 547 q 296 533 297 535 q 274 508 292 529 q 240 471 274 508 q 222 453 222 453 q 206 436 213 444 q 193 422 199 428 l 150 386 q 143 374 143 379 q 136 344 138 354 q 139 340 139 342 q 174 315 157 331 q 193 297 190 300 q 239 251 225 268 q 246 244 239 251 q 268 221 254 238 l 275 214 q 292 194 285 206 l 307 176 q 320 164 311 172 q 335 147 329 156 q 338 144 335 147 q 358 123 347 138 q 376 99 368 108 l 406 67 q 431 38 431 38 q 433 35 433 38 q 455 6 442 21 q 474 -15 468 -8 q 518 -72 469 -10 q 562 -128 538 -96 q 600 -179 586 -160 q 643 -239 603 -182 q 649 -254 649 -246 q 637 -272 649 -265 q 613 -275 625 -278 z "},"L":{"ha":313,"x_min":-25,"x_max":474,"o":"m 99 -218 q 60 -212 76 -218 q -3 -174 26 -206 l -7 -168 q -21 -124 -17 -150 q -25 -81 -25 -103 q -22 -29 -25 -62 q -10 50 -18 11 q 10 146 -4 93 l 18 178 q 22 192 19 183 q 26 210 25 200 l 44 276 q 58 326 49 299 l 67 357 q 107 499 94 451 l 125 554 q 133 578 128 565 q 140 601 138 590 q 147 617 143 610 q 153 633 150 625 q 188 725 178 704 l 229 822 q 239 841 233 829 q 254 868 244 853 q 276 911 264 889 q 304 949 289 933 q 325 969 313 960 q 351 979 335 979 q 379 970 368 979 q 388 949 390 961 q 384 940 386 946 q 379 929 382 933 q 353 882 371 906 q 342 865 346 872 q 336 853 339 857 l 306 788 q 272 713 283 747 l 243 638 l 219 565 l 194 496 q 188 471 193 488 q 168 406 183 456 l 154 361 q 118 232 143 318 l 97 153 l 89 114 q 71 33 83 93 l 58 -46 q 56 -89 56 -74 l 57 -119 q 68 -165 60 -146 q 82 -178 72 -176 l 104 -179 q 164 -168 125 -179 l 213 -149 q 257 -125 243 -135 l 282 -111 q 325 -86 299 -101 q 369 -60 351 -71 q 413 -31 401 -39 q 472 -15 472 4 q 474 -21 474 -17 q 467 -35 474 -28 q 439 -58 456 -50 q 379 -97 410 -82 q 357 -113 368 -106 q 338 -128 346 -121 q 290 -158 304 -147 q 273 -167 281 -162 q 258 -174 265 -171 q 230 -185 246 -178 q 193 -199 214 -192 q 118 -217 157 -215 l 99 -218 z "},"M":{"ha":1192,"x_min":-19,"x_max":1239,"o":"m 888 -225 q 867 -228 874 -228 q 818 -206 840 -228 q 806 -185 811 -197 q 796 -160 800 -174 q 788 -81 788 -128 q 789 -37 788 -51 q 802 93 792 6 q 822 232 813 181 l 842 336 q 872 467 849 374 l 885 518 l 904 590 q 947 753 914 619 q 922 705 938 736 q 901 661 906 674 q 847 556 878 622 l 807 475 q 793 444 803 467 q 772 406 783 422 l 772 406 q 733 321 767 390 l 703 256 q 696 243 700 250 q 688 225 692 236 l 688 225 l 653 158 q 644 139 649 150 q 638 122 639 128 q 584 19 618 83 q 531 -83 550 -46 l 531 -83 q 516 -101 522 -93 q 506 -115 510 -110 l 506 -114 q 467 -131 485 -131 q 439 -129 450 -131 q 419 -119 428 -126 q 408 -99 410 -111 q 406 -57 406 -68 l 406 -57 l 407 1 q 422 118 417 64 q 433 199 425 146 l 439 239 q 445 278 443 256 q 449 310 447 301 l 449 308 q 461 392 458 351 l 467 419 l 479 482 l 488 535 q 497 590 493 569 q 508 660 500 618 q 517 708 511 674 q 524 767 522 742 l 526 796 q 529 828 528 810 q 531 871 531 847 l 529 901 q 528 918 529 911 q 508 901 519 914 q 492 881 496 889 l 492 879 q 435 758 458 815 l 389 643 l 360 563 q 344 524 351 540 q 332 496 338 508 l 332 494 q 326 474 331 486 q 318 457 321 463 q 312 444 314 453 q 308 433 310 436 q 294 399 300 414 q 285 372 289 385 q 269 335 279 356 l 258 306 q 219 211 233 242 q 194 147 217 203 q 147 49 178 103 q 124 0 140 31 q 93 -40 113 -18 q 76 -50 89 -47 q 67 -53 72 -53 q 57 -56 63 -54 l 58 -56 l 44 -57 q 15 -50 33 -57 q -4 -32 0 -43 q -14 13 -15 -4 l -14 14 q -17 40 -15 26 q -19 67 -19 53 q -19 106 -19 76 q -17 160 -19 135 l -17 160 q -8 251 -15 206 l 14 399 q 25 457 22 433 q 31 485 28 468 q 49 564 33 504 l 58 604 q 81 654 64 622 q 104 690 97 686 q 136 699 115 699 q 167 676 168 699 q 157 625 165 651 q 126 506 149 583 q 96 319 117 446 q 71 153 75 193 q 68 121 71 140 q 65 74 65 88 q 66 53 65 64 q 65 38 67 43 l 69 38 q 81 42 78 38 q 85 49 85 46 q 99 80 90 61 q 114 113 108 99 q 153 197 136 150 q 188 289 175 247 l 215 353 l 215 353 l 224 381 q 250 451 235 407 l 265 490 q 285 534 276 510 q 299 567 294 558 l 317 617 q 335 665 324 632 q 371 756 340 679 l 393 808 q 407 839 396 814 q 454 935 435 903 q 466 953 457 939 q 488 981 475 968 q 505 990 494 988 q 518 993 515 993 q 536 996 532 996 q 608 950 593 999 q 618 897 615 933 q 619 860 619 885 q 607 715 619 803 q 597 638 604 696 q 586 578 593 610 q 571 483 583 551 q 553 375 557 414 q 541 306 544 344 q 536 258 538 268 l 536 260 q 524 188 525 222 q 512 109 519 174 q 503 40 504 44 l 500 15 l 499 -7 q 553 85 519 24 q 594 169 588 147 q 681 340 644 263 l 744 472 q 763 513 754 494 q 779 544 772 531 q 835 663 813 611 q 910 803 872 726 l 928 839 l 985 951 l 985 953 q 1001 979 989 964 l 1000 978 q 1018 990 1011 986 q 1035 992 1025 993 q 1069 982 1063 986 q 1082 967 1082 976 l 1082 967 q 1083 960 1082 964 q 1082 953 1083 957 q 1081 913 1083 933 q 1076 885 1078 892 l 1076 886 q 1058 817 1068 857 q 1044 767 1053 800 l 1028 704 q 1010 642 1017 663 l 1003 614 q 992 571 997 586 q 969 482 978 507 q 963 457 968 474 q 957 426 958 440 l 950 396 q 908 197 911 221 q 886 31 900 142 q 872 -135 872 -79 l 874 -156 q 878 -172 874 -156 l 883 -176 q 892 -172 892 -176 q 939 -119 922 -149 l 939 -119 l 957 -93 l 972 -69 q 985 -47 979 -58 q 996 -26 990 -36 q 1046 67 1019 13 q 1086 143 1064 96 l 1150 260 q 1190 338 1179 311 q 1203 355 1194 349 q 1221 361 1213 361 q 1235 355 1231 361 q 1235 336 1239 349 q 1210 279 1236 333 q 1151 165 1183 225 q 1125 113 1143 143 q 1114 90 1119 100 q 1104 72 1108 81 l 1040 -47 l 1018 -89 q 933 -197 986 -146 l 932 -197 q 888 -225 918 -217 z "},"N":{"ha":736,"x_min":-43,"x_max":794,"o":"m 506 -268 q 475 -251 490 -267 q 454 -203 463 -237 q 447 -131 447 -172 q 449 -79 447 -96 l 453 -28 q 458 15 454 -8 q 464 50 463 39 l 468 79 q 492 219 478 142 q 535 417 514 333 l 547 472 l 556 503 q 561 523 560 514 q 564 538 563 532 l 608 714 q 636 856 624 774 q 639 882 639 872 q 638 894 639 890 q 625 888 635 893 l 624 886 q 581 843 610 875 q 529 782 568 831 l 507 754 q 472 707 489 733 l 456 683 l 431 646 q 390 583 432 647 q 372 553 379 567 q 357 528 364 539 q 337 495 350 517 q 317 457 324 474 l 261 363 q 255 348 258 356 q 247 332 251 340 l 204 257 q 175 206 199 247 q 143 150 158 172 q 128 119 138 143 q 89 57 114 99 q 67 24 75 35 q 47 1 56 10 q 24 -10 36 -10 q 11 -7 19 -10 q 7 -8 8 -7 q 3 -7 6 -8 q -32 21 -24 -4 q -42 69 -40 56 q -43 111 -43 83 l -43 129 l -32 218 l -14 315 l -7 347 q 4 397 1 381 q 14 444 10 428 l 21 474 q 33 524 29 499 q 48 573 39 546 q 61 611 57 600 q 67 628 64 619 q 75 650 71 638 l 78 656 q 93 669 81 664 q 113 674 104 674 q 142 663 126 674 q 142 658 143 661 q 142 656 142 656 l 142 654 q 139 622 142 633 q 117 524 133 585 q 108 481 111 504 q 104 458 107 472 q 96 426 101 444 q 82 367 89 404 q 68 307 72 322 q 61 274 64 293 q 56 243 58 254 q 49 201 50 210 q 45 179 47 190 q 42 157 43 168 q 38 133 40 143 q 33 115 35 122 q 31 69 31 99 l 39 69 q 49 82 43 74 q 57 94 54 90 q 106 172 85 135 q 133 217 119 190 q 153 254 147 243 l 188 317 l 242 414 l 310 533 l 357 615 q 396 674 368 635 q 482 797 436 736 l 524 846 q 571 900 542 869 q 607 933 594 924 q 640 950 614 939 l 639 950 l 649 950 q 671 947 657 950 q 699 932 685 946 q 717 903 714 918 q 718 871 718 892 q 717 847 718 854 q 711 807 714 835 l 703 758 l 679 642 q 665 588 674 624 l 653 540 q 633 461 639 488 l 615 390 l 586 268 q 576 228 585 256 q 563 149 568 175 l 558 117 q 547 40 553 93 q 542 8 544 31 q 539 -8 540 1 q 536 -28 538 -17 q 532 -100 532 -64 l 531 -129 q 528 -187 528 -168 q 526 -192 526 -189 q 528 -199 526 -194 q 528 -206 529 -203 q 540 -199 536 -203 l 542 -197 q 558 -166 551 -181 q 572 -139 565 -151 q 602 -69 589 -108 q 618 -22 615 -31 q 667 115 650 72 q 703 228 674 132 q 717 276 708 244 q 733 325 726 307 q 740 347 735 332 q 750 368 744 361 q 764 375 756 375 l 776 372 l 776 372 q 790 364 785 368 q 792 349 794 360 q 749 211 776 303 l 721 125 l 711 97 l 678 -6 q 635 -112 668 -33 l 606 -181 q 583 -224 592 -211 q 570 -242 576 -235 q 560 -256 564 -250 q 532 -268 547 -267 q 519 -269 528 -269 q 506 -268 510 -269 z "},"Ñ":{"ha":736,"x_min":-43,"x_max":792,"o":"m 506 -268 q 475 -251 490 -267 q 454 -203 463 -237 q 447 -131 447 -172 q 449 -79 447 -96 l 453 -28 q 458 15 454 -8 q 464 50 463 39 l 468 79 q 492 219 478 142 q 535 417 514 333 l 547 472 l 556 503 q 561 523 560 514 q 564 538 563 532 l 608 714 q 636 856 624 774 q 639 882 639 872 q 638 894 639 890 q 625 888 635 893 l 624 886 q 581 843 610 875 q 529 782 568 831 l 507 754 q 472 707 489 733 l 456 683 l 431 646 q 390 583 432 647 q 372 553 379 567 q 357 528 364 539 q 337 495 350 517 q 317 457 324 474 l 261 363 q 255 348 258 356 q 247 332 251 340 l 204 257 q 175 206 199 247 q 143 150 158 172 q 128 119 138 143 q 89 57 114 99 q 67 24 75 35 q 47 1 56 10 q 24 -10 36 -10 q 11 -7 19 -10 q 7 -8 8 -7 q 3 -7 6 -8 q -32 21 -24 -4 q -42 69 -40 56 q -43 111 -43 83 l -43 129 l -32 218 l -14 315 l -7 347 q 4 397 1 381 q 14 444 10 428 l 21 474 q 33 524 29 499 q 48 573 39 546 q 61 611 57 600 q 67 628 64 619 q 75 650 71 638 l 78 656 q 93 669 81 664 q 113 674 104 674 q 142 663 126 674 q 142 658 143 661 q 142 656 142 656 l 142 654 q 139 622 142 633 q 117 524 133 585 q 108 481 111 504 q 104 458 107 472 q 96 426 101 444 q 82 367 89 404 q 68 307 72 322 q 61 274 64 293 q 56 243 58 254 q 49 201 50 210 q 45 179 47 190 q 42 157 43 168 q 38 133 40 143 q 33 115 35 122 q 31 69 31 99 l 39 69 q 49 82 43 74 q 57 94 54 90 q 106 172 85 135 q 133 217 119 190 q 153 254 147 243 l 188 317 l 242 414 l 310 533 l 357 615 q 396 674 368 635 q 482 797 436 736 l 524 846 q 571 900 542 869 q 607 933 594 924 q 640 950 614 939 l 639 950 l 649 950 q 671 947 657 950 q 699 932 685 946 q 717 903 714 918 q 718 871 718 892 q 717 847 718 854 q 711 807 714 835 l 703 758 l 679 642 q 665 588 674 624 l 653 540 q 633 461 639 488 l 615 390 l 586 268 q 576 228 585 256 q 563 149 568 175 l 558 117 q 547 40 553 93 q 542 8 544 31 q 539 -8 540 1 q 536 -28 538 -17 q 532 -100 532 -64 l 531 -129 q 528 -187 528 -168 q 526 -192 526 -189 q 528 -199 526 -194 q 528 -206 529 -203 q 540 -199 536 -203 l 542 -197 q 558 -166 551 -181 q 572 -139 565 -151 q 602 -69 589 -108 q 618 -22 615 -31 q 667 115 650 72 q 703 228 674 132 q 717 276 708 244 q 733 325 726 307 q 740 347 735 332 q 750 368 744 361 q 764 375 756 375 l 776 372 l 776 372 q 790 364 785 368 q 792 349 794 360 q 749 211 776 303 l 721 125 l 711 97 l 678 -6 q 635 -112 668 -33 l 606 -181 q 583 -224 592 -211 q 570 -242 576 -235 q 560 -256 564 -250 q 532 -268 547 -267 q 519 -269 528 -269 q 506 -268 510 -269 m 521 1008 q 493 1014 506 1008 l 465 1032 l 449 1040 q 433 1039 443 1044 q 408 1022 417 1031 q 396 1011 403 1015 q 374 1000 381 1000 q 360 1009 364 1000 q 357 1028 356 1018 q 371 1053 360 1039 q 413 1082 390 1075 q 431 1086 421 1086 q 447 1082 439 1086 q 483 1063 461 1076 l 503 1050 q 521 1051 513 1046 q 544 1071 533 1060 q 565 1076 551 1076 q 583 1069 576 1076 q 585 1051 590 1063 q 571 1031 578 1039 q 547 1013 564 1022 q 539 1010 544 1010 l 521 1008 z "},"O":{"ha":708,"x_min":-18,"x_max":754,"o":"m 167 -146 q 144 -143 158 -146 q 90 -119 122 -139 q 69 -106 76 -111 l 53 -90 l 42 -76 q 13 -28 24 -56 l 10 -17 q -7 43 -1 14 q -17 118 -14 76 l -18 178 q -11 281 -18 222 l -1 350 q 6 381 0 363 q 33 497 15 432 q 65 601 43 532 q 90 665 68 610 q 110 710 93 674 q 149 776 118 732 q 157 789 157 789 q 161 792 158 789 q 193 801 175 801 q 215 794 207 801 q 222 788 221 792 q 222 779 224 785 q 211 746 219 768 q 197 711 204 732 q 169 642 175 660 l 160 613 q 143 561 149 586 q 136 536 142 550 q 128 514 131 522 q 125 506 125 511 l 115 464 q 104 422 107 436 q 94 378 96 392 q 88 343 93 365 l 79 285 q 74 221 76 265 l 71 188 l 71 186 q 75 83 71 118 q 86 19 78 58 q 115 -58 93 -8 q 140 -92 122 -74 q 165 -97 150 -101 q 200 -85 188 -92 q 246 -56 218 -75 q 311 4 274 -36 q 408 151 363 58 q 414 161 411 156 q 421 174 417 167 l 419 175 l 407 181 q 339 219 368 192 q 290 276 307 244 q 282 291 286 283 q 274 308 278 299 q 256 381 260 340 q 249 439 249 413 q 247 525 247 468 q 258 617 249 565 q 296 747 271 679 q 324 811 311 788 q 379 906 349 865 q 435 960 404 939 q 478 976 457 975 q 526 965 496 979 q 556 933 544 957 q 571 889 568 899 l 579 860 q 590 769 588 824 q 592 738 590 749 q 592 715 592 731 q 592 689 593 700 q 585 539 592 601 l 568 435 q 529 292 556 375 l 511 240 l 508 229 l 510 228 q 515 228 513 229 q 518 229 517 228 q 594 264 549 242 q 624 278 604 269 q 668 304 654 294 q 690 324 676 310 q 715 349 704 333 q 726 362 722 358 q 740 365 731 365 q 754 346 754 360 q 749 326 754 336 q 738 307 744 315 l 713 285 q 661 251 686 265 q 582 213 615 225 q 565 205 572 208 q 551 199 557 201 q 486 176 513 183 l 485 175 l 449 106 q 381 -1 421 53 q 340 -50 363 -26 q 325 -64 336 -56 l 311 -76 q 243 -125 283 -106 l 238 -128 q 183 -144 218 -142 l 167 -146 m 435 210 q 440 218 436 211 q 458 262 449 236 q 474 300 468 288 q 515 442 496 356 q 538 665 538 538 q 536 765 539 699 q 517 894 533 840 q 501 932 513 907 q 499 937 500 935 q 496 940 497 939 l 494 940 q 467 926 482 938 q 428 882 450 914 q 382 803 400 844 q 351 729 371 779 q 314 588 325 661 q 306 481 306 533 q 308 399 303 432 q 324 321 314 351 q 364 247 335 285 q 411 214 376 231 q 435 210 425 206 z "},"Ó":{"ha":708,"x_min":-18,"x_max":754,"o":"m 167 -146 q 144 -143 158 -146 q 90 -119 122 -139 q 69 -106 76 -111 l 53 -90 l 42 -76 q 13 -28 24 -56 l 10 -17 q -7 43 -1 14 q -17 118 -14 76 l -18 178 q -11 281 -18 222 l -1 350 q 6 381 0 363 q 33 497 15 432 q 65 601 43 532 q 90 665 68 610 q 110 710 93 674 q 149 776 118 732 q 157 789 157 789 q 161 792 158 789 q 193 801 175 801 q 215 794 207 801 q 222 788 221 792 q 222 779 224 785 q 211 746 219 768 q 197 711 204 732 q 169 642 175 660 l 160 613 q 143 561 149 586 q 136 536 142 550 q 128 514 131 522 q 125 506 125 511 l 115 464 q 104 422 107 436 q 94 378 96 392 q 88 343 93 365 l 79 285 q 74 221 76 265 l 71 188 l 71 186 q 75 83 71 118 q 86 19 78 58 q 115 -58 93 -8 q 140 -92 122 -74 q 165 -97 150 -101 q 200 -85 188 -92 q 246 -56 218 -75 q 311 4 274 -36 q 408 151 363 58 q 414 161 411 156 q 421 174 417 167 l 419 175 l 407 181 q 339 219 368 192 q 290 276 307 244 q 282 291 286 283 q 274 308 278 299 q 256 381 260 340 q 249 439 249 413 q 247 525 247 468 q 258 617 249 565 q 296 747 271 679 q 324 811 311 788 q 379 906 349 865 q 435 960 404 939 q 478 976 457 975 q 526 965 496 979 q 556 933 544 957 q 571 889 568 899 l 579 860 q 590 769 588 824 q 592 738 590 749 q 592 715 592 731 q 592 689 593 700 q 585 539 592 601 l 568 435 q 529 292 556 375 l 511 240 l 508 229 l 510 228 q 515 228 513 229 q 518 229 517 228 q 594 264 549 242 q 624 278 604 269 q 668 304 654 294 q 690 324 676 310 q 715 349 704 333 q 726 362 722 358 q 740 365 731 365 q 754 346 754 360 q 749 326 754 336 q 738 307 744 315 l 713 285 q 661 251 686 265 q 582 213 615 225 q 565 205 572 208 q 551 199 557 201 q 486 176 513 183 l 485 175 l 449 106 q 381 -1 421 53 q 340 -50 363 -26 q 325 -64 336 -56 l 311 -76 q 243 -125 283 -106 l 238 -128 q 183 -144 218 -142 l 167 -146 m 435 210 q 440 218 436 211 q 458 262 449 236 q 474 300 468 288 q 515 442 496 356 q 538 665 538 538 q 536 765 539 699 q 517 894 533 840 q 501 932 513 907 q 499 937 500 935 q 496 940 497 939 l 494 940 q 467 926 482 938 q 428 882 450 914 q 382 803 400 844 q 351 729 371 779 q 314 588 325 661 q 306 481 306 533 q 308 399 303 432 q 324 321 314 351 q 364 247 335 285 q 411 214 376 231 q 435 210 425 206 m 372 994 q 358 999 367 994 q 346 1015 350 1004 q 346 1028 343 1022 q 381 1118 364 1076 q 386 1131 383 1126 q 399 1139 390 1139 q 419 1127 410 1139 q 425 1106 429 1115 l 401 1049 l 385 1007 q 383 1003 385 1006 q 381 999 382 1000 q 372 994 378 994 z "},"Ô":{"ha":708,"x_min":-18,"x_max":754,"o":"m 167 -146 q 144 -143 158 -146 q 90 -119 122 -139 q 69 -106 76 -111 l 53 -90 l 42 -76 q 13 -28 24 -56 l 10 -17 q -7 43 -1 14 q -17 118 -14 76 l -18 178 q -11 281 -18 222 l -1 350 q 6 381 0 363 q 33 497 15 432 q 65 601 43 532 q 90 665 68 610 q 110 710 93 674 q 149 776 118 732 q 157 789 157 789 q 161 792 158 789 q 193 801 175 801 q 215 794 207 801 q 222 788 221 792 q 222 779 224 785 q 211 746 219 768 q 197 711 204 732 q 169 642 175 660 l 160 613 q 143 561 149 586 q 136 536 142 550 q 128 514 131 522 q 125 506 125 511 l 115 464 q 104 422 107 436 q 94 378 96 392 q 88 343 93 365 l 79 285 q 74 221 76 265 l 71 188 l 71 186 q 75 83 71 118 q 86 19 78 58 q 115 -58 93 -8 q 140 -92 122 -74 q 165 -97 150 -101 q 200 -85 188 -92 q 246 -56 218 -75 q 311 4 274 -36 q 408 151 363 58 q 414 161 411 156 q 421 174 417 167 l 419 175 l 407 181 q 339 219 368 192 q 290 276 307 244 q 282 291 286 283 q 274 308 278 299 q 256 381 260 340 q 249 439 249 413 q 247 525 247 468 q 258 617 249 565 q 296 747 271 679 q 324 811 311 788 q 379 906 349 865 q 435 960 404 939 q 478 976 457 975 q 526 965 496 979 q 556 933 544 957 q 571 889 568 899 l 579 860 q 590 769 588 824 q 592 738 590 749 q 592 715 592 731 q 592 689 593 700 q 585 539 592 601 l 568 435 q 529 292 556 375 l 511 240 l 508 229 l 510 228 q 515 228 513 229 q 518 229 517 228 q 594 264 549 242 q 624 278 604 269 q 668 304 654 294 q 690 324 676 310 q 715 349 704 333 q 726 362 722 358 q 740 365 731 365 q 754 346 754 360 q 749 326 754 336 q 738 307 744 315 l 713 285 q 661 251 686 265 q 582 213 615 225 q 565 205 572 208 q 551 199 557 201 q 486 176 513 183 l 485 175 l 449 106 q 381 -1 421 53 q 340 -50 363 -26 q 325 -64 336 -56 l 311 -76 q 243 -125 283 -106 l 238 -128 q 183 -144 218 -142 l 167 -146 m 435 210 q 440 218 436 211 q 458 262 449 236 q 474 300 468 288 q 515 442 496 356 q 538 665 538 538 q 536 765 539 699 q 517 894 533 840 q 501 932 513 907 q 499 937 500 935 q 496 940 497 939 l 494 940 q 467 926 482 938 q 428 882 450 914 q 382 803 400 844 q 351 729 371 779 q 314 588 325 661 q 306 481 306 533 q 308 399 303 432 q 324 321 314 351 q 364 247 335 285 q 411 214 376 231 q 435 210 425 206 m 454 1006 q 438 1013 444 1006 l 432 1018 q 421 1035 422 1025 l 413 1063 l 410 1071 l 400 1063 l 371 1026 q 356 1015 364 1017 q 343 1021 346 1013 q 336 1025 343 1022 q 326 1034 329 1028 q 328 1046 324 1040 q 354 1081 340 1065 l 383 1113 q 401 1122 389 1121 l 407 1122 q 422 1117 417 1122 q 450 1069 446 1097 q 461 1028 456 1042 q 463 1019 463 1025 q 454 1006 463 1013 z "},"Ö":{"ha":708,"x_min":-18,"x_max":754,"o":"m 167 -146 q 144 -143 158 -146 q 90 -119 122 -139 q 69 -106 76 -111 l 53 -90 l 42 -76 q 13 -28 24 -56 l 10 -17 q -7 43 -1 14 q -17 118 -14 76 l -18 178 q -11 281 -18 222 l -1 350 q 6 381 0 363 q 33 497 15 432 q 65 601 43 532 q 90 665 68 610 q 110 710 93 674 q 149 776 118 732 q 157 789 157 789 q 161 792 158 789 q 193 801 175 801 q 215 794 207 801 q 222 788 221 792 q 222 779 224 785 q 211 746 219 768 q 197 711 204 732 q 169 642 175 660 l 160 613 q 143 561 149 586 q 136 536 142 550 q 128 514 131 522 q 125 506 125 511 l 115 464 q 104 422 107 436 q 94 378 96 392 q 88 343 93 365 l 79 285 q 74 221 76 265 l 71 188 l 71 186 q 75 83 71 118 q 86 19 78 58 q 115 -58 93 -8 q 140 -92 122 -74 q 165 -97 150 -101 q 200 -85 188 -92 q 246 -56 218 -75 q 311 4 274 -36 q 408 151 363 58 q 414 161 411 156 q 421 174 417 167 l 419 175 l 407 181 q 339 219 368 192 q 290 276 307 244 q 282 291 286 283 q 274 308 278 299 q 256 381 260 340 q 249 439 249 413 q 247 525 247 468 q 258 617 249 565 q 296 747 271 679 q 324 811 311 788 q 379 906 349 865 q 435 960 404 939 q 478 976 457 975 q 526 965 496 979 q 556 933 544 957 q 571 889 568 899 l 579 860 q 590 769 588 824 q 592 738 590 749 q 592 715 592 731 q 592 689 593 700 q 585 539 592 601 l 568 435 q 529 292 556 375 l 511 240 l 508 229 l 510 228 q 515 228 513 229 q 518 229 517 228 q 594 264 549 242 q 624 278 604 269 q 668 304 654 294 q 690 324 676 310 q 715 349 704 333 q 726 362 722 358 q 740 365 731 365 q 754 346 754 360 q 749 326 754 336 q 738 307 744 315 l 713 285 q 661 251 686 265 q 582 213 615 225 q 565 205 572 208 q 551 199 557 201 q 486 176 513 183 l 485 175 l 449 106 q 381 -1 421 53 q 340 -50 363 -26 q 325 -64 336 -56 l 311 -76 q 243 -125 283 -106 l 238 -128 q 183 -144 218 -142 l 167 -146 m 435 210 q 440 218 436 211 q 458 262 449 236 q 474 300 468 288 q 515 442 496 356 q 538 665 538 538 q 536 765 539 699 q 517 894 533 840 q 501 932 513 907 q 499 937 500 935 q 496 940 497 939 l 494 940 q 467 926 482 938 q 428 882 450 914 q 382 803 400 844 q 351 729 371 779 q 314 588 325 661 q 306 481 306 533 q 308 399 303 432 q 324 321 314 351 q 364 247 335 285 q 411 214 376 231 q 435 210 425 206 m 496 1035 q 471 1042 485 1035 q 463 1052 468 1043 q 457 1069 457 1061 q 460 1081 457 1078 q 483 1092 469 1092 q 512 1078 500 1092 q 519 1053 524 1065 q 511 1039 517 1044 q 501 1035 510 1038 l 496 1035 m 382 1053 q 363 1060 369 1053 q 356 1068 357 1067 q 351 1090 347 1078 q 379 1107 361 1107 q 400 1101 390 1107 q 411 1085 410 1094 l 413 1074 q 406 1058 413 1063 q 382 1053 399 1053 z "},"Ò":{"ha":708,"x_min":-18,"x_max":754,"o":"m 167 -146 q 144 -143 158 -146 q 90 -119 122 -139 q 69 -106 76 -111 l 53 -90 l 42 -76 q 13 -28 24 -56 l 10 -17 q -7 43 -1 14 q -17 118 -14 76 l -18 178 q -11 281 -18 222 l -1 350 q 6 381 0 363 q 33 497 15 432 q 65 601 43 532 q 90 665 68 610 q 110 710 93 674 q 149 776 118 732 q 157 789 157 789 q 161 792 158 789 q 193 801 175 801 q 215 794 207 801 q 222 788 221 792 q 222 779 224 785 q 211 746 219 768 q 197 711 204 732 q 169 642 175 660 l 160 613 q 143 561 149 586 q 136 536 142 550 q 128 514 131 522 q 125 506 125 511 l 115 464 q 104 422 107 436 q 94 378 96 392 q 88 343 93 365 l 79 285 q 74 221 76 265 l 71 188 l 71 186 q 75 83 71 118 q 86 19 78 58 q 115 -58 93 -8 q 140 -92 122 -74 q 165 -97 150 -101 q 200 -85 188 -92 q 246 -56 218 -75 q 311 4 274 -36 q 408 151 363 58 q 414 161 411 156 q 421 174 417 167 l 419 175 l 407 181 q 339 219 368 192 q 290 276 307 244 q 282 291 286 283 q 274 308 278 299 q 256 381 260 340 q 249 439 249 413 q 247 525 247 468 q 258 617 249 565 q 296 747 271 679 q 324 811 311 788 q 379 906 349 865 q 435 960 404 939 q 478 976 457 975 q 526 965 496 979 q 556 933 544 957 q 571 889 568 899 l 579 860 q 590 769 588 824 q 592 738 590 749 q 592 715 592 731 q 592 689 593 700 q 585 539 592 601 l 568 435 q 529 292 556 375 l 511 240 l 508 229 l 510 228 q 515 228 513 229 q 518 229 517 228 q 594 264 549 242 q 624 278 604 269 q 668 304 654 294 q 690 324 676 310 q 715 349 704 333 q 726 362 722 358 q 740 365 731 365 q 754 346 754 360 q 749 326 754 336 q 738 307 744 315 l 713 285 q 661 251 686 265 q 582 213 615 225 q 565 205 572 208 q 551 199 557 201 q 486 176 513 183 l 485 175 l 449 106 q 381 -1 421 53 q 340 -50 363 -26 q 325 -64 336 -56 l 311 -76 q 243 -125 283 -106 l 238 -128 q 183 -144 218 -142 l 167 -146 m 435 210 q 440 218 436 211 q 458 262 449 236 q 474 300 468 288 q 515 442 496 356 q 538 665 538 538 q 536 765 539 699 q 517 894 533 840 q 501 932 513 907 q 499 937 500 935 q 496 940 497 939 l 494 940 q 467 926 482 938 q 428 882 450 914 q 382 803 400 844 q 351 729 371 779 q 314 588 325 661 q 306 481 306 533 q 308 399 303 432 q 324 321 314 351 q 364 247 335 285 q 411 214 376 231 q 435 210 425 206 m 372 969 q 347 981 354 969 q 333 1006 335 999 q 314 1068 328 1026 l 310 1079 q 308 1088 308 1082 q 314 1096 308 1093 l 322 1097 q 338 1092 332 1097 q 344 1086 339 1089 q 356 1069 354 1079 q 371 1019 367 1042 q 378 997 372 1010 q 379 990 379 993 q 381 983 379 986 l 379 978 q 372 969 379 969 z "},"Ø":{"ha":708,"x_min":-18,"x_max":754,"o":"m 167 -146 q 144 -143 158 -146 q 90 -119 122 -139 q 69 -106 76 -111 l 53 -90 l 42 -76 q 13 -28 24 -56 l 10 -17 q -7 43 -1 14 q -17 118 -14 76 l -18 178 q -11 281 -18 222 l -1 350 q 6 381 0 363 q 33 497 15 432 q 65 601 43 532 q 90 665 68 610 q 110 710 93 674 q 149 776 118 732 q 157 789 157 789 q 161 792 158 789 q 193 801 175 801 q 215 794 207 801 q 222 788 221 792 q 222 779 224 785 q 211 746 219 768 q 197 711 204 732 q 169 642 175 660 l 160 613 q 143 561 149 586 q 136 536 142 550 q 128 514 131 522 q 125 506 125 511 l 115 464 q 104 422 107 436 q 94 378 96 392 q 88 343 93 365 l 79 285 q 74 221 76 265 l 71 188 l 71 186 q 75 83 71 118 q 86 19 78 58 q 115 -58 93 -8 q 140 -92 122 -74 q 165 -97 150 -101 q 200 -85 188 -92 q 246 -56 218 -75 q 311 4 274 -36 q 408 151 363 58 q 414 161 411 156 q 421 174 417 167 l 419 175 l 407 181 q 339 219 368 192 q 290 276 307 244 q 282 291 286 283 q 274 308 278 299 q 256 381 260 340 q 249 439 249 413 q 247 525 247 468 q 258 617 249 565 q 296 747 271 679 q 324 811 311 788 q 379 906 349 865 q 435 960 404 939 q 478 976 457 975 q 526 965 496 979 q 556 933 544 957 q 571 889 568 899 l 579 860 q 590 769 588 824 q 592 738 590 749 q 592 715 592 731 q 592 689 593 700 q 585 539 592 601 l 568 435 q 529 292 556 375 l 511 240 l 508 229 l 510 228 q 515 228 513 229 q 518 229 517 228 q 594 264 549 242 q 624 278 604 269 q 668 304 654 294 q 690 324 676 310 q 715 349 704 333 q 726 362 722 358 q 740 365 731 365 q 754 346 754 360 q 749 326 754 336 q 738 307 744 315 l 713 285 q 661 251 686 265 q 582 213 615 225 q 565 205 572 208 q 551 199 557 201 q 486 176 513 183 l 485 175 l 449 106 q 381 -1 421 53 q 340 -50 363 -26 q 325 -64 336 -56 l 311 -76 q 243 -125 283 -106 l 238 -128 q 183 -144 218 -142 l 167 -146 m 435 210 q 440 218 436 211 q 458 262 449 236 q 474 300 468 288 q 515 442 496 356 q 538 665 538 538 q 536 765 539 699 q 517 894 533 840 q 501 932 513 907 q 499 937 500 935 q 496 940 497 939 l 494 940 q 467 926 482 938 q 428 882 450 914 q 382 803 400 844 q 351 729 371 779 q 314 588 325 661 q 306 481 306 533 q 308 399 303 432 q 324 321 314 351 q 364 247 335 285 q 411 214 376 231 q 435 210 425 206 m 24 -197 q 19 -196 21 -197 l 6 -187 q 13 -158 6 -175 l 42 -86 q 65 -35 49 -68 q 104 50 97 35 l 131 110 q 174 203 139 126 l 207 272 l 249 361 q 322 511 299 461 l 381 625 l 404 672 l 438 740 l 504 875 l 550 967 l 558 982 q 581 996 568 996 q 589 997 586 996 l 604 976 l 601 964 q 585 917 589 925 q 567 869 576 897 l 553 836 l 529 785 q 472 665 506 731 l 418 554 l 381 478 q 340 392 357 431 q 326 365 335 381 q 310 332 318 350 l 303 318 l 265 239 l 232 167 l 196 88 q 193 81 194 85 q 190 75 192 78 l 164 14 l 157 -4 l 156 -8 q 144 -33 149 -22 q 135 -51 139 -43 l 124 -78 l 108 -104 q 85 -147 92 -132 l 64 -187 q 56 -194 61 -193 q 40 -197 44 -197 l 35 -196 q 24 -197 31 -197 z "},"Õ":{"ha":708,"x_min":-18,"x_max":754,"o":"m 167 -146 q 144 -143 158 -146 q 90 -119 122 -139 q 69 -106 76 -111 l 53 -90 l 42 -76 q 13 -28 24 -56 l 10 -17 q -7 43 -1 14 q -17 118 -14 76 l -18 178 q -11 281 -18 222 l -1 350 q 6 381 0 363 q 33 497 15 432 q 65 601 43 532 q 90 665 68 610 q 110 710 93 674 q 149 776 118 732 q 157 789 157 789 q 161 792 158 789 q 193 801 175 801 q 215 794 207 801 q 222 788 221 792 q 222 779 224 785 q 211 746 219 768 q 197 711 204 732 q 169 642 175 660 l 160 613 q 143 561 149 586 q 136 536 142 550 q 128 514 131 522 q 125 506 125 511 l 115 464 q 104 422 107 436 q 94 378 96 392 q 88 343 93 365 l 79 285 q 74 221 76 265 l 71 188 l 71 186 q 75 83 71 118 q 86 19 78 58 q 115 -58 93 -8 q 140 -92 122 -74 q 165 -97 150 -101 q 200 -85 188 -92 q 246 -56 218 -75 q 311 4 274 -36 q 408 151 363 58 q 414 161 411 156 q 421 174 417 167 l 419 175 l 407 181 q 339 219 368 192 q 290 276 307 244 q 282 291 286 283 q 274 308 278 299 q 256 381 260 340 q 249 439 249 413 q 247 525 247 468 q 258 617 249 565 q 296 747 271 679 q 324 811 311 788 q 379 906 349 865 q 435 960 404 939 q 478 976 457 975 q 526 965 496 979 q 556 933 544 957 q 571 889 568 899 l 579 860 q 590 769 588 824 q 592 738 590 749 q 592 715 592 731 q 592 689 593 700 q 585 539 592 601 l 568 435 q 529 292 556 375 l 511 240 l 508 229 l 510 228 q 515 228 513 229 q 518 229 517 228 q 594 264 549 242 q 624 278 604 269 q 668 304 654 294 q 690 324 676 310 q 715 349 704 333 q 726 362 722 358 q 740 365 731 365 q 754 346 754 360 q 749 326 754 336 q 738 307 744 315 l 713 285 q 661 251 686 265 q 582 213 615 225 q 565 205 572 208 q 551 199 557 201 q 486 176 513 183 l 485 175 l 449 106 q 381 -1 421 53 q 340 -50 363 -26 q 325 -64 336 -56 l 311 -76 q 243 -125 283 -106 l 238 -128 q 183 -144 218 -142 l 167 -146 m 435 210 q 440 218 436 211 q 458 262 449 236 q 474 300 468 288 q 515 442 496 356 q 538 665 538 538 q 536 765 539 699 q 517 894 533 840 q 501 932 513 907 q 499 937 500 935 q 496 940 497 939 l 494 940 q 467 926 482 938 q 428 882 450 914 q 382 803 400 844 q 351 729 371 779 q 314 588 325 661 q 306 481 306 533 q 308 399 303 432 q 324 321 314 351 q 364 247 335 285 q 411 214 376 231 q 435 210 425 206 m 458 1014 q 431 1019 443 1014 l 403 1038 l 386 1046 q 371 1044 381 1050 q 346 1028 354 1036 q 333 1017 340 1021 q 311 1006 318 1006 q 297 1015 301 1006 q 294 1033 293 1024 q 308 1058 297 1044 q 350 1088 328 1081 q 368 1092 358 1092 q 385 1088 376 1092 q 421 1068 399 1082 l 440 1056 q 458 1057 450 1051 q 482 1076 471 1065 q 503 1082 489 1082 q 521 1075 514 1082 q 522 1057 528 1068 q 508 1036 515 1044 q 485 1018 501 1028 q 476 1015 482 1015 l 458 1014 z "},"Œ":{"ha":1007,"x_min":-36,"x_max":1136,"o":"m 386 -287 q 363 -292 374 -292 q 325 -279 344 -292 q 315 -253 311 -269 l 322 -232 l 335 -197 l 376 -99 l 390 -61 q 410 -10 401 -33 q 363 -81 389 -46 q 322 -129 344 -106 q 307 -143 318 -135 l 293 -156 q 225 -204 265 -185 l 219 -207 q 165 -224 200 -221 l 149 -225 q 126 -222 140 -225 q 72 -199 104 -218 q 51 -185 58 -190 l 35 -169 l 24 -156 q -6 -107 6 -135 l -8 -96 q -25 -36 -19 -65 q -35 39 -32 -3 l -36 99 q -29 201 -36 143 l -19 271 q -12 301 -18 283 q 15 418 -3 353 q 47 522 25 453 q 72 586 50 531 q 92 631 75 594 q 131 697 100 653 q 139 710 139 710 q 143 713 140 710 q 175 722 157 722 q 197 715 189 722 q 204 709 203 713 q 204 700 206 706 q 193 667 201 689 q 179 632 186 653 q 151 563 157 581 l 142 533 q 125 482 131 507 q 118 457 124 471 q 110 435 113 443 q 107 426 107 432 l 97 385 q 86 343 89 357 q 76 299 78 313 q 69 264 75 286 l 61 206 q 56 142 58 186 l 53 108 l 53 107 q 57 4 53 39 q 68 -60 60 -21 q 97 -137 75 -87 q 122 -171 104 -153 q 147 -176 132 -181 q 182 -164 169 -171 q 228 -135 200 -154 q 293 -75 256 -115 q 390 72 344 -21 q 396 82 393 76 q 403 94 399 88 l 401 96 l 389 101 q 321 140 350 113 q 272 197 289 165 q 264 212 268 204 q 256 229 260 219 q 238 301 242 261 q 231 360 231 333 q 229 446 229 389 q 240 538 231 486 q 278 668 253 600 q 306 732 293 708 q 361 826 331 786 q 417 881 386 860 q 460 897 439 896 q 508 886 478 900 q 538 854 526 878 q 553 810 550 819 l 561 781 q 572 690 569 744 q 574 658 572 669 q 574 636 574 651 q 574 610 575 621 q 567 460 574 522 q 557 399 563 440 l 579 464 q 606 546 589 490 l 611 560 q 633 626 625 604 l 656 693 l 672 743 l 689 793 l 690 797 q 685 797 688 799 q 679 796 682 796 l 671 794 l 661 790 l 603 767 q 594 765 600 765 q 583 768 588 765 l 571 775 q 565 780 567 776 q 561 785 563 783 q 564 797 558 792 q 590 815 581 811 l 638 839 l 685 860 l 721 875 l 729 899 q 738 914 733 910 q 751 918 743 918 q 764 917 760 918 q 790 899 783 911 l 817 907 l 871 921 q 895 926 879 924 q 922 933 911 929 q 933 936 931 936 l 1054 961 l 1094 968 l 1100 968 q 1128 954 1117 968 q 1133 947 1132 950 q 1136 940 1135 943 q 1125 929 1135 932 q 1072 917 1118 928 q 1039 907 1061 913 l 994 894 l 981 890 l 964 886 q 896 868 940 882 q 838 850 857 857 q 792 836 807 842 q 784 833 788 835 q 778 831 781 832 q 617 324 701 571 l 636 328 l 710 350 l 753 363 q 765 365 761 365 q 782 371 771 368 l 803 375 q 821 378 814 378 q 860 363 840 378 q 860 349 869 356 q 849 344 856 344 q 783 326 831 340 l 735 311 l 690 294 l 614 269 q 597 264 608 267 l 571 190 q 544 118 558 161 l 518 46 l 490 -28 q 476 -64 483 -47 l 463 -99 l 450 -128 l 433 -171 q 437 -172 435 -172 q 439 -171 439 -171 q 532 -107 483 -136 q 546 -97 538 -103 q 560 -89 554 -92 q 599 -68 593 -69 l 611 -62 q 640 -49 622 -57 q 668 -39 657 -42 q 699 -29 675 -36 q 774 -10 740 -15 l 804 -1 l 851 6 l 871 10 q 882 11 875 11 q 896 10 890 11 q 906 7 901 8 q 926 -10 915 4 q 922 -18 928 -15 q 908 -26 911 -26 l 878 -35 l 853 -43 l 821 -51 q 785 -61 813 -54 q 736 -74 758 -65 q 688 -89 699 -86 l 679 -93 q 633 -115 649 -107 q 619 -124 625 -119 q 608 -131 614 -128 q 590 -140 606 -133 q 549 -167 576 -150 l 508 -196 l 458 -233 l 438 -249 q 426 -258 429 -254 q 386 -287 410 -276 m 417 131 q 422 139 418 132 q 440 183 431 157 q 456 221 450 208 q 457 225 456 224 l 453 228 q 450 244 444 236 l 463 258 l 469 263 q 497 363 481 296 q 519 586 519 458 q 518 686 521 619 q 499 815 515 761 q 483 853 494 828 q 481 858 482 856 q 478 861 479 860 l 476 861 q 449 847 464 858 q 410 803 432 835 q 364 724 383 765 q 333 650 353 700 q 296 508 307 582 q 288 401 288 454 q 290 319 285 353 q 306 242 296 272 q 346 168 317 206 q 393 135 358 151 q 417 131 407 126 z "},"P":{"ha":571,"x_min":-81,"x_max":664,"o":"m -53 -85 q -65 -81 -58 -81 q -73 -78 -69 -81 q -78 -74 -76 -75 q -81 -64 -81 -72 l -76 -39 l -57 79 q -42 163 -53 107 l -25 244 q -1 360 -8 322 l 21 463 q 43 560 39 532 l 64 646 l 90 764 q 110 835 96 788 l 118 874 q 151 983 135 924 l 156 992 q 158 996 156 993 q 171 1001 163 997 q 188 1003 179 1006 q 208 996 194 1001 q 215 985 215 992 q 215 976 215 981 q 215 964 214 971 l 204 907 l 183 811 q 165 731 178 790 l 138 607 q 128 567 133 583 l 126 558 q 130 562 128 561 q 132 564 132 563 q 219 719 172 647 q 261 781 256 772 l 304 833 q 349 878 349 878 l 379 903 q 453 950 421 936 q 528 967 496 967 q 557 964 538 967 q 601 944 582 960 l 624 925 q 650 879 643 900 q 661 833 660 854 q 664 799 664 811 q 663 763 664 778 q 660 738 661 749 l 656 711 q 636 626 650 674 q 625 597 631 610 q 615 571 619 583 q 586 503 608 547 q 583 499 583 500 q 567 467 581 490 l 560 454 q 540 421 549 432 q 528 406 535 415 q 519 392 522 397 l 515 386 q 497 366 506 378 q 482 349 488 354 l 478 344 q 421 297 460 328 q 346 257 382 268 q 328 251 340 256 q 307 244 317 246 q 258 238 279 238 q 207 246 232 238 q 150 286 169 258 q 115 346 138 304 l 104 369 q 100 365 100 369 q 89 339 92 349 q 75 292 79 303 q 60 238 64 256 q 40 142 54 206 q 19 54 32 99 q 13 18 14 28 q -11 -57 6 -7 q -24 -82 -14 -65 q -39 -87 -31 -87 q -53 -85 -44 -87 m 257 276 q 314 300 292 286 q 347 320 329 307 q 372 340 364 333 l 376 344 q 392 360 392 360 q 429 401 429 401 q 482 478 463 444 q 518 544 499 501 l 532 579 q 560 654 544 606 q 578 751 574 718 q 581 777 579 761 q 582 815 582 793 q 578 860 582 838 l 569 889 q 551 918 561 910 q 517 929 535 935 q 507 928 511 929 q 500 925 503 926 q 438 892 467 913 q 400 861 421 882 q 346 810 368 833 q 324 786 338 803 q 310 770 319 781 q 297 750 301 760 q 274 718 275 721 l 257 693 q 229 646 238 663 l 203 600 l 172 539 q 132 451 160 517 q 131 442 129 446 q 140 438 132 439 q 150 432 149 436 q 148 414 150 424 q 146 397 146 404 q 149 378 146 394 q 178 324 164 342 q 189 308 182 318 q 203 292 196 297 q 242 274 221 274 q 257 276 246 274 z "},"Þ":{"ha":833,"x_min":0,"x_max":0,"o":""},"Q":{"ha":682,"x_min":-42,"x_max":724,"o":"m 307 -206 q 223 -161 260 -200 q 183 -86 186 -122 q 174 -19 178 -46 q 171 -11 174 -15 q 144 3 167 -8 q 127 12 142 4 q 103 31 113 19 q 85 49 97 36 q 65 73 74 61 q 53 99 57 85 q 11 40 28 71 l 4 26 q -13 6 -3 14 q -32 1 -24 -1 q -42 19 -42 8 q -37 38 -42 28 q -25 65 -33 47 q -8 92 -17 82 q 24 138 0 107 q 29 158 31 149 q 18 210 26 179 q 11 256 13 232 q 10 286 10 279 q 7 401 7 322 q 15 511 7 457 q 26 604 18 538 q 57 744 38 679 q 97 861 83 831 q 117 893 107 881 q 144 906 128 906 q 158 903 147 906 q 190 871 190 893 l 197 869 l 206 879 q 233 924 222 910 q 292 989 256 958 q 347 1019 321 1013 q 400 1033 372 1029 q 417 1035 406 1035 q 479 1022 442 1035 q 506 1010 492 1019 q 533 990 521 1001 q 607 881 583 953 q 632 726 632 808 q 628 646 632 686 q 615 571 624 604 q 571 415 599 493 q 544 340 557 378 q 532 314 539 329 q 515 281 525 299 q 507 261 513 272 q 561 275 522 260 q 636 313 600 290 q 686 358 672 336 q 701 367 690 367 q 717 362 710 367 q 724 349 724 357 q 718 335 724 342 q 663 287 706 313 q 569 244 619 261 q 490 228 519 228 q 443 157 453 171 q 428 136 442 154 l 428 136 q 426 133 428 135 q 422 129 424 132 q 394 92 413 113 l 376 69 q 374 65 376 69 q 360 53 365 60 q 349 43 354 47 q 318 17 329 24 q 279 -6 294 -1 l 281 -6 q 274 -8 278 -7 q 267 -10 269 -10 q 288 -125 267 -74 q 294 -146 290 -139 q 308 -164 299 -153 q 333 -149 324 -156 l 369 -111 q 422 -40 399 -76 q 433 -24 425 -35 q 448 -8 439 -14 q 467 -3 457 -3 q 483 -17 483 -3 q 481 -29 483 -25 q 475 -40 478 -37 q 464 -60 472 -46 q 447 -83 456 -74 q 429 -110 444 -86 q 399 -151 415 -131 q 353 -192 376 -176 q 307 -206 338 -206 m 164 75 q 162 142 165 107 q 151 189 158 178 q 118 163 124 176 q 157 74 133 104 l 164 75 m 268 46 q 292 63 276 49 q 318 89 308 78 l 343 118 q 388 174 375 153 q 391 177 390 175 q 393 181 392 179 q 412 208 403 190 q 428 235 421 225 l 425 235 q 417 237 421 235 q 408 239 413 239 l 410 239 q 363 254 386 243 q 335 268 339 265 q 290 297 313 279 q 258 319 267 314 q 183 413 213 354 q 142 556 150 478 q 139 581 140 568 q 136 606 138 593 l 135 614 q 131 629 133 629 q 125 618 128 629 q 121 603 122 607 l 108 499 q 100 363 100 435 q 99 344 100 357 q 100 322 99 332 q 101 297 101 310 q 101 271 100 283 q 107 232 104 246 q 106 227 107 232 q 113 221 106 222 l 114 221 l 115 221 l 121 222 q 160 232 139 232 q 181 229 167 232 q 193 226 189 226 q 217 215 204 226 q 229 206 219 211 q 235 199 231 204 q 243 183 240 194 q 253 149 250 168 q 256 125 256 129 q 257 94 257 115 l 260 64 l 260 58 q 268 46 260 49 m 443 260 q 454 279 451 272 q 554 544 519 404 q 579 718 579 650 q 571 831 579 786 q 525 944 560 888 q 482 990 513 965 l 460 1001 q 429 1007 447 1007 q 399 1003 415 1007 l 379 996 q 299 931 333 974 q 239 840 260 882 q 204 728 219 793 q 190 606 190 671 q 197 524 190 558 q 233 408 210 458 q 311 322 264 357 q 364 288 328 310 q 443 260 393 269 z "},"R":{"ha":639,"x_min":-32,"x_max":721,"o":"m 432 -193 q 389 -172 404 -193 q 369 -146 374 -153 q 351 -86 358 -119 q 345 -55 349 -74 q 335 -11 342 -36 q 328 33 333 1 q 317 89 322 64 l 310 117 q 300 161 307 128 q 294 183 296 172 q 288 206 292 194 q 272 256 283 222 q 269 268 271 260 q 264 282 267 276 l 257 299 q 225 369 238 346 l 221 376 q 215 393 215 383 q 224 415 215 406 q 242 436 228 422 q 251 444 246 440 q 261 453 256 447 l 267 457 q 321 504 276 467 q 368 551 321 504 q 389 572 381 561 q 435 619 417 597 q 464 651 458 647 q 469 658 467 654 q 478 667 472 663 q 521 722 517 718 q 542 750 525 726 l 563 776 q 565 779 565 776 l 600 839 q 628 901 614 861 q 644 969 640 928 q 636 1003 642 992 q 618 1011 626 1013 q 604 1006 613 1008 q 590 1000 596 1003 q 535 958 561 982 q 501 926 517 947 q 482 907 490 918 q 469 892 474 901 q 414 818 443 861 q 326 674 372 761 q 301 631 306 639 l 278 583 q 264 554 269 564 q 243 507 246 514 q 203 408 219 451 q 175 342 197 397 l 156 290 l 136 240 q 129 222 136 239 l 90 119 q 80 93 86 110 q 67 65 74 76 q 51 43 60 51 q 33 31 46 36 q 18 29 25 28 q -12 42 6 29 q -19 53 -18 47 q -24 64 -24 57 q -31 169 -32 133 l -28 213 l -25 251 l -14 343 q -3 415 -6 388 q 0 432 0 426 l 13 497 l 22 550 q 32 601 26 564 l 49 676 l 63 739 q 88 831 67 760 q 108 876 99 861 q 126 892 114 888 q 150 893 138 896 l 156 890 q 171 868 172 885 q 168 849 169 858 q 165 829 167 839 l 149 750 l 142 721 l 119 624 q 113 585 114 600 q 108 560 111 575 q 100 526 106 546 q 94 493 97 513 q 89 460 92 474 q 76 389 76 389 q 74 360 76 379 q 68 322 71 347 q 61 278 67 304 q 58 247 61 267 l 58 232 l 53 190 q 51 161 51 181 l 53 161 l 60 175 q 89 243 78 210 q 103 278 96 257 q 117 311 111 299 q 125 330 119 317 q 133 354 131 343 l 150 397 l 171 451 q 214 553 196 518 q 263 657 224 578 l 313 747 l 332 781 q 389 867 368 839 q 471 961 432 924 q 521 1007 488 979 q 565 1035 549 1029 q 574 1039 569 1036 q 583 1043 579 1042 q 614 1047 600 1047 q 696 1011 660 1047 q 714 982 707 1000 q 721 956 721 968 q 718 936 721 950 q 715 908 719 925 q 708 882 710 892 l 708 881 q 697 851 703 868 q 685 822 690 833 q 672 800 678 810 q 663 783 667 790 q 649 761 658 776 q 632 736 640 746 q 604 700 619 718 l 600 694 q 576 664 592 681 q 554 639 561 647 q 532 614 546 629 q 510 588 518 599 q 503 579 506 581 l 451 528 q 428 506 444 519 q 406 483 406 483 q 360 440 376 454 l 304 394 q 299 388 301 393 q 301 382 300 385 q 304 376 303 379 q 313 358 308 369 q 324 336 318 346 q 328 325 326 331 q 331 315 329 319 q 355 252 343 288 q 371 204 367 217 q 388 136 386 142 q 400 83 389 132 l 408 42 q 415 4 414 17 l 422 -32 q 447 -124 438 -96 l 453 -131 l 458 -122 l 476 -89 q 535 64 499 -39 q 578 193 567 161 q 631 338 603 268 q 638 351 632 340 q 653 368 644 363 q 669 369 661 374 q 681 353 681 364 q 676 331 681 346 l 654 274 q 645 249 649 260 q 639 233 642 239 q 611 149 628 196 l 597 100 l 578 42 q 550 -42 558 -19 q 538 -78 546 -51 q 519 -125 529 -104 q 496 -167 506 -156 q 467 -190 479 -185 q 454 -193 458 -193 q 443 -194 450 -194 q 432 -193 436 -193 z "},"S":{"ha":482,"x_min":-317,"x_max":522,"o":"m -176 -501 q -212 -499 -200 -501 q -278 -476 -242 -493 l -294 -464 q -317 -411 -317 -446 q -312 -374 -317 -393 q -282 -301 -300 -335 q -187 -160 -243 -226 q -115 -74 -140 -101 l -83 -40 l -62 -18 q 10 50 -40 6 l 61 94 q 117 138 65 99 l 182 185 l 218 210 q 226 215 224 213 q 218 228 224 219 q 207 242 213 238 l 204 244 q 188 266 199 254 q 169 286 176 278 q 147 310 158 301 l 140 315 q 122 335 132 324 q 100 357 113 346 l 58 397 l 24 435 q 15 443 24 435 q -25 493 -3 461 q -49 550 -43 525 q -51 564 -50 556 q -53 583 -53 572 q -44 635 -50 611 q -24 683 -40 653 l -1 715 q 40 765 17 743 q 79 800 58 783 q 83 803 81 801 q 86 807 85 806 q 149 850 108 826 q 177 865 164 858 q 200 875 190 871 q 229 885 214 883 q 261 892 238 886 q 304 894 279 897 q 338 889 326 892 q 393 865 371 882 q 422 810 419 844 l 422 776 q 390 674 417 724 l 374 643 q 360 625 361 626 q 336 618 350 613 l 328 618 q 315 622 321 618 q 313 636 308 629 q 318 643 315 642 q 340 683 326 656 q 363 756 357 722 q 364 796 364 768 q 351 829 363 815 q 322 846 339 846 q 297 843 314 846 q 222 814 268 835 l 185 792 q 156 769 165 778 l 135 751 q 118 735 128 746 q 100 717 108 724 l 94 711 l 67 672 q 33 606 44 642 q 29 574 29 589 q 38 528 29 551 l 42 522 q 50 508 46 514 q 57 496 54 501 q 72 478 58 492 l 82 464 l 86 460 q 118 429 108 440 l 139 408 l 153 396 l 161 388 l 197 353 q 219 328 214 336 q 242 306 229 315 q 258 288 256 292 l 269 275 l 288 253 q 297 257 289 253 l 419 328 l 461 353 q 489 368 465 354 q 506 372 497 372 q 522 360 522 372 q 506 339 522 349 q 474 322 489 331 q 449 307 460 313 l 381 267 l 311 224 l 335 186 q 361 143 347 167 q 374 119 372 125 q 392 81 378 113 q 395 71 394 75 q 396 64 396 67 q 403 33 401 51 q 406 7 404 15 q 407 -8 407 3 q 406 -28 407 -21 q 375 -157 403 -99 q 349 -201 367 -176 q 329 -228 339 -218 l 315 -247 q 300 -267 310 -256 q 285 -285 290 -278 q 243 -322 267 -306 l 239 -326 q 215 -349 229 -337 q 193 -365 200 -360 q 161 -386 189 -368 l 150 -394 q 144 -399 146 -399 q 121 -414 132 -404 q 82 -435 88 -433 q 65 -443 74 -437 q 49 -451 57 -449 q 24 -462 43 -454 q -11 -474 6 -471 l -22 -478 q -49 -486 -32 -482 q -75 -493 -65 -490 l -96 -496 l -129 -500 q -151 -501 -136 -501 l -176 -501 m -214 -461 q -171 -460 -193 -464 q -143 -454 -149 -456 q -94 -440 -129 -451 l -67 -432 q -19 -412 -36 -418 q 10 -397 -10 -408 l 22 -390 q 42 -380 31 -386 q 65 -365 53 -374 q 85 -354 72 -361 q 104 -340 97 -347 l 147 -308 l 179 -282 q 235 -222 204 -260 q 261 -189 244 -211 q 282 -157 264 -185 q 306 -110 293 -139 q 322 -1 326 -53 q 314 56 322 33 l 311 67 q 305 87 310 75 q 297 107 300 99 q 293 114 296 110 q 290 122 290 118 q 286 129 290 125 q 278 142 281 136 q 274 151 276 147 q 251 185 260 174 l 240 179 l 214 160 q 115 89 179 139 q 21 11 68 54 q -32 -36 -15 -19 l -69 -76 l -89 -97 q -133 -150 -112 -124 q -199 -237 -171 -194 q -244 -317 -231 -285 q -269 -393 -264 -354 q -271 -417 -272 -410 q -246 -454 -271 -443 q -214 -461 -228 -461 z "},"T":{"ha":313,"x_min":-175,"x_max":818,"o":"m 33 -168 q 17 -166 26 -168 q 1 -162 8 -164 q -10 -155 -6 -161 q -14 -140 -14 -149 l -11 -131 l 3 -79 l 32 28 l 65 160 l 85 236 l 103 300 l 122 375 q 169 540 143 446 l 208 674 l 224 721 q 226 733 224 725 q 208 733 219 736 q 163 722 178 725 q 146 719 151 719 q 138 718 143 719 q 128 715 132 717 q 42 694 88 703 l 36 693 l -58 665 l -61 664 l -96 649 q -83 643 -93 643 l -33 632 q 35 603 10 619 q 57 571 50 592 q 60 561 60 565 q 56 549 60 556 q 36 539 50 536 q 8 561 18 543 l 8 568 l 8 571 q -1 585 8 581 q -36 596 -24 593 l -79 603 q -131 614 -97 606 q -162 631 -143 617 q -169 639 -168 636 q -175 654 -175 644 q -172 665 -175 661 q -154 686 -165 679 q -108 708 -137 696 q -22 736 -81 719 q 33 751 14 747 l 111 771 q 171 786 150 782 l 189 790 q 281 810 219 796 l 349 824 l 376 829 l 425 838 l 457 844 l 531 858 q 581 868 564 864 q 685 888 615 874 q 763 901 706 892 q 767 903 765 901 q 779 906 775 906 q 799 901 782 906 q 818 879 814 896 q 814 871 818 874 q 807 865 813 868 q 769 856 782 857 q 761 854 764 856 q 735 847 751 850 q 707 842 719 844 l 653 831 q 627 826 643 829 q 590 818 611 824 l 583 815 q 513 803 560 814 q 483 796 493 797 q 431 783 458 792 q 419 781 426 782 q 407 779 411 779 q 344 764 365 768 l 285 750 l 269 746 q 272 742 272 743 q 288 708 288 732 q 279 646 288 688 l 254 546 l 224 436 l 211 389 l 193 325 l 175 254 q 165 218 169 239 l 146 151 l 126 82 l 108 15 l 92 -40 l 81 -79 l 72 -108 q 68 -128 71 -112 q 56 -157 65 -143 q 33 -168 47 -168 z "},"U":{"ha":793,"x_min":-11,"x_max":853,"o":"m 507 -217 l 501 -217 l 501 -217 q 476 -207 479 -207 q 454 -181 457 -200 l 453 -156 l 454 -131 q 482 47 464 -33 q 485 65 483 54 q 490 88 486 75 q 508 169 500 136 l 528 256 q 538 294 533 281 q 551 356 546 336 q 560 392 554 367 q 574 438 565 418 q 578 454 578 449 l 575 460 l 574 461 q 563 451 567 458 q 513 368 549 431 l 481 313 q 465 288 469 296 l 440 247 q 392 176 407 200 q 356 126 381 160 l 326 86 l 310 68 l 310 67 q 290 42 307 61 q 269 13 283 33 q 239 -18 254 -7 q 208 -49 226 -28 q 119 -96 165 -86 q 97 -99 106 -99 q 74 -96 90 -99 q 17 -57 39 -90 q -6 -4 -3 -26 q -11 101 -11 42 q -6 200 -11 156 l -1 238 q 1 269 0 250 q 7 313 3 288 q 24 401 22 396 q 40 482 31 444 l 46 504 q 60 567 54 546 l 76 628 l 92 686 q 110 749 103 728 l 118 781 q 136 833 129 817 q 151 863 140 843 q 174 876 157 872 q 189 878 179 878 q 213 871 208 878 q 217 851 217 864 q 201 779 213 818 q 174 665 190 732 q 156 594 171 657 q 148 565 150 578 q 143 542 146 551 l 131 483 q 113 399 118 421 q 96 304 103 354 q 93 285 94 294 q 90 267 92 276 q 85 233 86 251 q 82 204 83 214 l 75 128 q 74 76 74 111 q 72 43 72 65 q 81 -28 72 8 q 85 -45 82 -39 q 96 -56 88 -51 l 99 -56 q 126 -44 113 -56 q 208 24 179 -11 q 258 78 208 24 q 272 97 264 83 l 319 156 l 350 199 q 399 267 383 243 q 510 444 460 357 l 579 567 q 661 728 631 658 l 667 739 l 667 740 l 697 818 q 718 835 703 831 q 732 836 722 836 q 750 833 739 836 q 769 806 769 828 q 764 776 767 786 q 756 751 760 764 q 749 728 753 739 q 722 644 739 700 q 699 565 706 592 q 667 458 679 503 l 651 397 q 647 381 650 390 q 642 357 644 371 l 642 358 q 636 336 639 353 l 636 336 q 635 331 636 332 l 624 289 q 617 256 622 272 q 613 238 614 249 q 610 219 611 226 q 604 199 606 208 q 601 183 603 190 l 585 111 l 581 93 q 571 39 575 57 l 554 -33 l 532 -131 l 539 -133 l 551 -114 l 601 -36 q 663 61 643 28 q 735 208 676 85 q 803 356 793 332 l 803 357 q 816 374 808 368 q 832 379 824 379 q 847 372 842 379 q 847 354 853 365 q 792 223 840 335 q 733 96 743 111 l 697 33 l 679 1 q 640 -62 646 -54 q 614 -107 631 -76 l 579 -160 q 563 -185 574 -172 q 549 -204 553 -199 q 511 -217 539 -217 l 508 -217 l 507 -217 l 507 -221 l 507 -217 z "},"Ú":{"ha":793,"x_min":-11,"x_max":850,"o":"m 507 -217 l 501 -217 l 501 -217 q 476 -207 479 -207 q 454 -181 457 -200 l 453 -156 l 454 -131 q 482 47 464 -33 q 485 65 483 54 q 490 88 486 75 q 508 169 500 136 l 528 256 q 538 294 533 281 q 551 356 546 336 q 560 392 554 367 q 574 438 565 418 q 578 454 578 449 l 575 460 l 574 461 q 563 451 567 458 q 513 368 549 431 l 481 313 q 465 288 469 296 l 440 247 q 392 176 407 200 q 356 126 381 160 l 326 86 l 310 68 l 310 67 q 290 42 307 61 q 269 13 283 33 q 239 -18 254 -7 q 208 -49 226 -28 q 119 -96 165 -86 q 97 -99 106 -99 q 74 -96 90 -99 q 17 -57 39 -90 q -6 -4 -3 -26 q -11 101 -11 42 q -6 200 -11 156 l -1 238 q 1 269 0 250 q 7 313 3 288 q 24 401 22 396 q 40 482 31 444 l 46 504 q 60 567 54 546 l 76 628 l 92 686 q 110 749 103 728 l 118 781 q 136 833 129 817 q 151 863 140 843 q 174 876 157 872 q 189 878 179 878 q 213 871 208 878 q 217 851 217 864 q 201 779 213 818 q 174 665 190 732 q 156 594 171 657 q 148 565 150 578 q 143 542 146 551 l 131 483 q 113 399 118 421 q 96 304 103 354 q 93 285 94 294 q 90 267 92 276 q 85 233 86 251 q 82 204 83 214 l 75 128 q 74 76 74 111 q 72 43 72 65 q 81 -28 72 8 q 85 -45 82 -39 q 96 -56 88 -51 l 99 -56 q 126 -44 113 -56 q 208 24 179 -11 q 258 78 208 24 q 272 97 264 83 l 319 156 l 350 199 q 399 267 383 243 q 510 444 460 357 l 579 567 q 661 728 631 658 l 667 739 l 667 740 l 697 818 q 718 835 703 831 q 732 836 722 836 q 750 833 739 836 q 769 806 769 828 q 764 776 767 786 q 756 751 760 764 q 749 728 753 739 q 722 644 739 700 q 699 565 706 592 q 667 458 679 503 l 651 397 q 647 381 650 390 q 642 357 644 371 l 642 358 q 636 336 639 353 l 636 336 q 635 331 636 332 l 624 289 q 617 256 622 272 q 613 238 614 249 q 610 219 611 226 q 604 199 606 208 q 601 183 603 190 l 585 111 l 581 93 q 571 39 575 57 l 554 -33 l 532 -131 l 539 -133 l 551 -114 l 601 -36 q 663 61 643 28 q 735 208 676 85 q 803 356 793 332 l 803 357 q 816 374 808 368 q 832 379 824 379 q 847 372 842 379 q 847 354 853 365 q 792 223 840 335 q 733 96 743 111 l 697 33 l 679 1 q 640 -62 646 -54 q 614 -107 631 -76 l 579 -160 q 563 -185 574 -172 q 549 -204 553 -199 q 511 -217 539 -217 l 508 -217 l 507 -217 l 507 -221 l 507 -217 m 497 943 q 483 948 492 943 q 471 964 475 953 q 471 976 468 971 q 506 1067 489 1025 q 511 1079 508 1075 q 524 1088 515 1088 q 544 1076 535 1088 q 550 1054 554 1064 l 526 997 l 510 956 q 508 951 510 954 q 506 947 507 949 q 497 943 503 943 z "},"Û":{"ha":793,"x_min":-11,"x_max":850,"o":"m 507 -217 l 501 -217 l 501 -217 q 476 -207 479 -207 q 454 -181 457 -200 l 453 -156 l 454 -131 q 482 47 464 -33 q 485 65 483 54 q 490 88 486 75 q 508 169 500 136 l 528 256 q 538 294 533 281 q 551 356 546 336 q 560 392 554 367 q 574 438 565 418 q 578 454 578 449 l 575 460 l 574 461 q 563 451 567 458 q 513 368 549 431 l 481 313 q 465 288 469 296 l 440 247 q 392 176 407 200 q 356 126 381 160 l 326 86 l 310 68 l 310 67 q 290 42 307 61 q 269 13 283 33 q 239 -18 254 -7 q 208 -49 226 -28 q 119 -96 165 -86 q 97 -99 106 -99 q 74 -96 90 -99 q 17 -57 39 -90 q -6 -4 -3 -26 q -11 101 -11 42 q -6 200 -11 156 l -1 238 q 1 269 0 250 q 7 313 3 288 q 24 401 22 396 q 40 482 31 444 l 46 504 q 60 567 54 546 l 76 628 l 92 686 q 110 749 103 728 l 118 781 q 136 833 129 817 q 151 863 140 843 q 174 876 157 872 q 189 878 179 878 q 213 871 208 878 q 217 851 217 864 q 201 779 213 818 q 174 665 190 732 q 156 594 171 657 q 148 565 150 578 q 143 542 146 551 l 131 483 q 113 399 118 421 q 96 304 103 354 q 93 285 94 294 q 90 267 92 276 q 85 233 86 251 q 82 204 83 214 l 75 128 q 74 76 74 111 q 72 43 72 65 q 81 -28 72 8 q 85 -45 82 -39 q 96 -56 88 -51 l 99 -56 q 126 -44 113 -56 q 208 24 179 -11 q 258 78 208 24 q 272 97 264 83 l 319 156 l 350 199 q 399 267 383 243 q 510 444 460 357 l 579 567 q 661 728 631 658 l 667 739 l 667 740 l 697 818 q 718 835 703 831 q 732 836 722 836 q 750 833 739 836 q 769 806 769 828 q 764 776 767 786 q 756 751 760 764 q 749 728 753 739 q 722 644 739 700 q 699 565 706 592 q 667 458 679 503 l 651 397 q 647 381 650 390 q 642 357 644 371 l 642 358 q 636 336 639 353 l 636 336 q 635 331 636 332 l 624 289 q 617 256 622 272 q 613 238 614 249 q 610 219 611 226 q 604 199 606 208 q 601 183 603 190 l 585 111 l 581 93 q 571 39 575 57 l 554 -33 l 532 -131 l 539 -133 l 551 -114 l 601 -36 q 663 61 643 28 q 735 208 676 85 q 803 356 793 332 l 803 357 q 816 374 808 368 q 832 379 824 379 q 847 372 842 379 q 847 354 853 365 q 792 223 840 335 q 733 96 743 111 l 697 33 l 679 1 q 640 -62 646 -54 q 614 -107 631 -76 l 579 -160 q 563 -185 574 -172 q 549 -204 553 -199 q 511 -217 539 -217 l 508 -217 l 507 -217 l 507 -221 l 507 -217 m 554 967 q 538 974 544 967 l 532 979 q 521 996 522 986 l 513 1024 l 510 1032 l 500 1024 l 471 988 q 456 976 464 978 q 443 982 446 974 q 436 986 443 983 q 426 995 429 989 q 428 1007 424 1001 q 454 1042 440 1026 l 483 1074 q 501 1083 489 1082 l 507 1083 q 522 1078 517 1083 q 550 1031 546 1058 q 561 989 556 1003 q 563 981 563 986 q 554 967 563 974 z "},"Ü":{"ha":793,"x_min":-11,"x_max":850,"o":"m 507 -217 l 501 -217 l 501 -217 q 476 -207 479 -207 q 454 -181 457 -200 l 453 -156 l 454 -131 q 482 47 464 -33 q 485 65 483 54 q 490 88 486 75 q 508 169 500 136 l 528 256 q 538 294 533 281 q 551 356 546 336 q 560 392 554 367 q 574 438 565 418 q 578 454 578 449 l 575 460 l 574 461 q 563 451 567 458 q 513 368 549 431 l 481 313 q 465 288 469 296 l 440 247 q 392 176 407 200 q 356 126 381 160 l 326 86 l 310 68 l 310 67 q 290 42 307 61 q 269 13 283 33 q 239 -18 254 -7 q 208 -49 226 -28 q 119 -96 165 -86 q 97 -99 106 -99 q 74 -96 90 -99 q 17 -57 39 -90 q -6 -4 -3 -26 q -11 101 -11 42 q -6 200 -11 156 l -1 238 q 1 269 0 250 q 7 313 3 288 q 24 401 22 396 q 40 482 31 444 l 46 504 q 60 567 54 546 l 76 628 l 92 686 q 110 749 103 728 l 118 781 q 136 833 129 817 q 151 863 140 843 q 174 876 157 872 q 189 878 179 878 q 213 871 208 878 q 217 851 217 864 q 201 779 213 818 q 174 665 190 732 q 156 594 171 657 q 148 565 150 578 q 143 542 146 551 l 131 483 q 113 399 118 421 q 96 304 103 354 q 93 285 94 294 q 90 267 92 276 q 85 233 86 251 q 82 204 83 214 l 75 128 q 74 76 74 111 q 72 43 72 65 q 81 -28 72 8 q 85 -45 82 -39 q 96 -56 88 -51 l 99 -56 q 126 -44 113 -56 q 208 24 179 -11 q 258 78 208 24 q 272 97 264 83 l 319 156 l 350 199 q 399 267 383 243 q 510 444 460 357 l 579 567 q 661 728 631 658 l 667 739 l 667 740 l 697 818 q 718 835 703 831 q 732 836 722 836 q 750 833 739 836 q 769 806 769 828 q 764 776 767 786 q 756 751 760 764 q 749 728 753 739 q 722 644 739 700 q 699 565 706 592 q 667 458 679 503 l 651 397 q 647 381 650 390 q 642 357 644 371 l 642 358 q 636 336 639 353 l 636 336 q 635 331 636 332 l 624 289 q 617 256 622 272 q 613 238 614 249 q 610 219 611 226 q 604 199 606 208 q 601 183 603 190 l 585 111 l 581 93 q 571 39 575 57 l 554 -33 l 532 -131 l 539 -133 l 551 -114 l 601 -36 q 663 61 643 28 q 735 208 676 85 q 803 356 793 332 l 803 357 q 816 374 808 368 q 832 379 824 379 q 847 372 842 379 q 847 354 853 365 q 792 223 840 335 q 733 96 743 111 l 697 33 l 679 1 q 640 -62 646 -54 q 614 -107 631 -76 l 579 -160 q 563 -185 574 -172 q 549 -204 553 -199 q 511 -217 539 -217 l 508 -217 l 507 -217 l 507 -221 l 507 -217 m 556 938 q 531 944 544 938 q 522 955 528 946 q 517 972 517 964 q 519 983 517 981 q 543 994 529 994 q 572 981 560 994 q 579 956 583 968 q 571 942 576 947 q 561 938 569 940 l 556 938 m 442 956 q 423 963 429 956 q 415 971 417 969 q 411 993 407 981 q 439 1010 421 1010 q 460 1003 450 1010 q 471 988 469 997 l 472 976 q 465 960 472 965 q 442 956 458 956 z "},"Ù":{"ha":793,"x_min":-11,"x_max":850,"o":"m 507 -217 l 501 -217 l 501 -217 q 476 -207 479 -207 q 454 -181 457 -200 l 453 -156 l 454 -131 q 482 47 464 -33 q 485 65 483 54 q 490 88 486 75 q 508 169 500 136 l 528 256 q 538 294 533 281 q 551 356 546 336 q 560 392 554 367 q 574 438 565 418 q 578 454 578 449 l 575 460 l 574 461 q 563 451 567 458 q 513 368 549 431 l 481 313 q 465 288 469 296 l 440 247 q 392 176 407 200 q 356 126 381 160 l 326 86 l 310 68 l 310 67 q 290 42 307 61 q 269 13 283 33 q 239 -18 254 -7 q 208 -49 226 -28 q 119 -96 165 -86 q 97 -99 106 -99 q 74 -96 90 -99 q 17 -57 39 -90 q -6 -4 -3 -26 q -11 101 -11 42 q -6 200 -11 156 l -1 238 q 1 269 0 250 q 7 313 3 288 q 24 401 22 396 q 40 482 31 444 l 46 504 q 60 567 54 546 l 76 628 l 92 686 q 110 749 103 728 l 118 781 q 136 833 129 817 q 151 863 140 843 q 174 876 157 872 q 189 878 179 878 q 213 871 208 878 q 217 851 217 864 q 201 779 213 818 q 174 665 190 732 q 156 594 171 657 q 148 565 150 578 q 143 542 146 551 l 131 483 q 113 399 118 421 q 96 304 103 354 q 93 285 94 294 q 90 267 92 276 q 85 233 86 251 q 82 204 83 214 l 75 128 q 74 76 74 111 q 72 43 72 65 q 81 -28 72 8 q 85 -45 82 -39 q 96 -56 88 -51 l 99 -56 q 126 -44 113 -56 q 208 24 179 -11 q 258 78 208 24 q 272 97 264 83 l 319 156 l 350 199 q 399 267 383 243 q 510 444 460 357 l 579 567 q 661 728 631 658 l 667 739 l 667 740 l 697 818 q 718 835 703 831 q 732 836 722 836 q 750 833 739 836 q 769 806 769 828 q 764 776 767 786 q 756 751 760 764 q 749 728 753 739 q 722 644 739 700 q 699 565 706 592 q 667 458 679 503 l 651 397 q 647 381 650 390 q 642 357 644 371 l 642 358 q 636 336 639 353 l 636 336 q 635 331 636 332 l 624 289 q 617 256 622 272 q 613 238 614 249 q 610 219 611 226 q 604 199 606 208 q 601 183 603 190 l 585 111 l 581 93 q 571 39 575 57 l 554 -33 l 532 -131 l 539 -133 l 551 -114 l 601 -36 q 663 61 643 28 q 735 208 676 85 q 803 356 793 332 l 803 357 q 816 374 808 368 q 832 379 824 379 q 847 372 842 379 q 847 354 853 365 q 792 223 840 335 q 733 96 743 111 l 697 33 l 679 1 q 640 -62 646 -54 q 614 -107 631 -76 l 579 -160 q 563 -185 574 -172 q 549 -204 553 -199 q 511 -217 539 -217 l 508 -217 l 507 -217 l 507 -221 l 507 -217 m 511 915 q 486 926 493 915 q 472 951 474 944 q 453 1014 467 972 l 449 1025 q 447 1033 447 1028 q 453 1042 447 1039 l 461 1043 q 476 1038 471 1043 q 483 1032 478 1035 q 494 1015 493 1025 q 510 965 506 988 q 517 943 511 956 q 518 935 518 939 q 519 929 518 932 l 518 924 q 511 915 518 915 z "},"V":{"ha":451,"x_min":-3,"x_max":583,"o":"m 140 -192 q 101 -208 128 -208 q 61 -189 75 -208 q 51 -171 60 -186 q 36 -106 39 -133 l 31 -71 q 17 43 21 -21 q 11 122 14 69 l 8 161 l 7 182 l 6 242 l 4 274 q 3 325 3 290 l 3 388 l 1 467 l 0 540 l 0 600 l 0 646 l 0 733 q -1 822 0 793 q -3 907 -1 879 q -1 919 -3 915 q 5 931 0 926 q 17 936 10 936 q 36 933 25 936 q 54 922 46 931 q 64 904 63 913 q 74 850 72 868 l 78 800 l 79 751 q 81 653 79 686 q 82 550 81 585 l 82 482 l 83 457 l 83 419 l 86 318 q 89 243 86 293 q 92 140 89 210 q 94 43 94 76 q 96 8 96 31 l 97 -25 l 101 -79 q 110 -143 101 -112 l 121 -125 q 158 -47 140 -90 q 233 131 196 36 l 264 204 l 310 318 l 351 419 q 392 518 375 475 l 421 589 l 469 704 l 522 826 l 536 853 q 554 864 542 864 q 574 853 565 864 q 578 832 583 843 l 515 683 l 475 581 l 444 503 l 419 439 l 372 321 l 314 183 l 260 50 l 217 -49 l 192 -104 q 167 -153 169 -147 q 140 -192 160 -167 z "},"W":{"ha":917,"x_min":-67,"x_max":878,"o":"m -8 -235 q -40 -219 -14 -233 q -62 -187 -61 -208 q -65 -162 -64 -179 q -67 -132 -67 -144 q -65 -107 -67 -115 q -50 17 -57 -28 l -35 97 q -15 179 -28 131 q -1 238 -10 199 q 14 301 3 260 q 36 389 15 308 q 45 424 40 408 q 53 450 50 439 l 65 497 q 108 642 79 553 l 169 835 l 188 888 q 206 939 192 899 l 214 968 q 224 1000 219 990 l 224 1001 l 225 1007 l 226 1008 q 235 1016 228 1013 q 250 1019 242 1019 q 275 1012 264 1019 q 288 989 286 1004 l 288 975 q 282 935 288 951 q 268 879 275 914 q 258 843 264 868 l 246 800 q 226 738 240 779 q 197 635 213 700 q 178 565 193 618 l 168 531 l 136 413 q 125 371 128 385 l 106 293 q 83 197 92 229 q 72 146 75 164 l 61 99 q 31 -35 49 49 q 14 -126 15 -112 q 7 -178 8 -156 q 9 -178 8 -178 q 11 -181 10 -179 q 22 -179 14 -185 q 82 -126 67 -143 q 128 -74 106 -96 q 140 -59 133 -67 q 151 -44 146 -51 l 207 36 l 281 146 q 328 226 297 171 q 350 268 342 254 l 378 319 q 397 363 392 347 l 433 435 q 513 604 489 546 l 518 614 q 550 636 529 636 q 565 633 554 636 q 589 624 575 631 q 604 614 594 624 q 608 606 607 613 l 608 607 q 611 576 611 588 q 604 511 606 531 q 597 456 599 471 l 592 399 l 586 344 l 581 281 q 572 171 572 208 l 572 142 q 572 117 572 132 q 572 83 571 103 q 575 17 575 39 l 575 15 q 576 9 576 13 q 576 1 575 6 l 576 3 l 578 -7 q 586 -62 579 -35 l 592 -94 l 599 -97 l 608 -90 q 657 -24 640 -54 q 697 60 681 17 q 733 168 713 103 q 767 290 750 224 l 776 329 q 794 436 790 413 q 813 592 804 486 q 822 681 818 649 q 828 751 828 713 l 831 786 l 831 796 q 829 822 831 814 l 829 825 q 847 842 829 842 q 859 839 853 842 q 868 833 865 836 q 878 799 878 821 q 871 681 874 756 l 867 635 q 861 583 864 601 l 854 519 q 840 406 846 447 q 825 317 835 371 q 782 139 810 236 q 729 -10 756 50 q 717 -34 724 -21 q 701 -62 710 -47 q 675 -103 682 -94 q 656 -125 668 -110 q 631 -149 643 -140 q 594 -156 615 -160 q 551 -146 560 -149 q 529 -126 538 -137 q 497 -37 507 -89 q 488 29 489 7 q 485 88 485 68 q 486 111 485 103 q 483 165 483 147 q 486 228 483 186 q 489 282 486 246 q 492 317 492 304 q 501 406 493 347 l 501 417 l 494 419 q 485 410 488 414 q 431 308 479 397 l 411 275 l 390 236 q 347 160 368 193 l 322 118 q 257 14 285 53 q 192 -72 225 -33 q 104 -175 149 -131 q 38 -228 86 -194 q 8 -237 24 -237 q -8 -235 3 -237 z "},"Ẃ":{"ha":917,"x_min":-67,"x_max":878,"o":"m -8 -235 q -40 -219 -14 -233 q -62 -187 -61 -208 q -65 -162 -64 -179 q -67 -132 -67 -144 q -65 -107 -67 -115 q -50 17 -57 -28 l -35 97 q -15 179 -28 131 q -1 238 -10 199 q 14 301 3 260 q 36 389 15 308 q 45 424 40 408 q 53 450 50 439 l 65 497 q 108 642 79 553 l 169 835 l 188 888 q 206 939 192 899 l 214 968 q 224 1000 219 990 l 224 1001 l 225 1007 l 226 1008 q 235 1016 228 1013 q 250 1019 242 1019 q 275 1012 264 1019 q 288 989 286 1004 l 288 975 q 282 935 288 951 q 268 879 275 914 q 258 843 264 868 l 246 800 q 226 738 240 779 q 197 635 213 700 q 178 565 193 618 l 168 531 l 136 413 q 125 371 128 385 l 106 293 q 83 197 92 229 q 72 146 75 164 l 61 99 q 31 -35 49 49 q 14 -126 15 -112 q 7 -178 8 -156 q 9 -178 8 -178 q 11 -181 10 -179 q 22 -179 14 -185 q 82 -126 67 -143 q 128 -74 106 -96 q 140 -59 133 -67 q 151 -44 146 -51 l 207 36 l 281 146 q 328 226 297 171 q 350 268 342 254 l 378 319 q 397 363 392 347 l 433 435 q 513 604 489 546 l 518 614 q 550 636 529 636 q 565 633 554 636 q 589 624 575 631 q 604 614 594 624 q 608 606 607 613 l 608 607 q 611 576 611 588 q 604 511 606 531 q 597 456 599 471 l 592 399 l 586 344 l 581 281 q 572 171 572 208 l 572 142 q 572 117 572 132 q 572 83 571 103 q 575 17 575 39 l 575 15 q 576 9 576 13 q 576 1 575 6 l 576 3 l 578 -7 q 586 -62 579 -35 l 592 -94 l 599 -97 l 608 -90 q 657 -24 640 -54 q 697 60 681 17 q 733 168 713 103 q 767 290 750 224 l 776 329 q 794 436 790 413 q 813 592 804 486 q 822 681 818 649 q 828 751 828 713 l 831 786 l 831 796 q 829 822 831 814 l 829 825 q 847 842 829 842 q 859 839 853 842 q 868 833 865 836 q 878 799 878 821 q 871 681 874 756 l 867 635 q 861 583 864 601 l 854 519 q 840 406 846 447 q 825 317 835 371 q 782 139 810 236 q 729 -10 756 50 q 717 -34 724 -21 q 701 -62 710 -47 q 675 -103 682 -94 q 656 -125 668 -110 q 631 -149 643 -140 q 594 -156 615 -160 q 551 -146 560 -149 q 529 -126 538 -137 q 497 -37 507 -89 q 488 29 489 7 q 485 88 485 68 q 486 111 485 103 q 483 165 483 147 q 486 228 483 186 q 489 282 486 246 q 492 317 492 304 q 501 406 493 347 l 501 417 l 494 419 q 485 410 488 414 q 431 308 479 397 l 411 275 l 390 236 q 347 160 368 193 l 322 118 q 257 14 285 53 q 192 -72 225 -33 q 104 -175 149 -131 q 38 -228 86 -194 q 8 -237 24 -237 q -8 -235 3 -237 m 597 931 q 583 935 592 931 q 571 951 575 940 q 571 964 568 958 q 606 1054 589 1013 q 611 1067 608 1063 q 624 1075 615 1075 q 644 1063 635 1075 q 650 1042 654 1051 l 626 985 l 610 943 q 608 939 610 942 q 606 935 607 936 q 597 931 603 931 z "},"Ŵ":{"ha":917,"x_min":-67,"x_max":878,"o":"m -8 -235 q -40 -219 -14 -233 q -62 -187 -61 -208 q -65 -162 -64 -179 q -67 -132 -67 -144 q -65 -107 -67 -115 q -50 17 -57 -28 l -35 97 q -15 179 -28 131 q -1 238 -10 199 q 14 301 3 260 q 36 389 15 308 q 45 424 40 408 q 53 450 50 439 l 65 497 q 108 642 79 553 l 169 835 l 188 888 q 206 939 192 899 l 214 968 q 224 1000 219 990 l 224 1001 l 225 1007 l 226 1008 q 235 1016 228 1013 q 250 1019 242 1019 q 275 1012 264 1019 q 288 989 286 1004 l 288 975 q 282 935 288 951 q 268 879 275 914 q 258 843 264 868 l 246 800 q 226 738 240 779 q 197 635 213 700 q 178 565 193 618 l 168 531 l 136 413 q 125 371 128 385 l 106 293 q 83 197 92 229 q 72 146 75 164 l 61 99 q 31 -35 49 49 q 14 -126 15 -112 q 7 -178 8 -156 q 9 -178 8 -178 q 11 -181 10 -179 q 22 -179 14 -185 q 82 -126 67 -143 q 128 -74 106 -96 q 140 -59 133 -67 q 151 -44 146 -51 l 207 36 l 281 146 q 328 226 297 171 q 350 268 342 254 l 378 319 q 397 363 392 347 l 433 435 q 513 604 489 546 l 518 614 q 550 636 529 636 q 565 633 554 636 q 589 624 575 631 q 604 614 594 624 q 608 606 607 613 l 608 607 q 611 576 611 588 q 604 511 606 531 q 597 456 599 471 l 592 399 l 586 344 l 581 281 q 572 171 572 208 l 572 142 q 572 117 572 132 q 572 83 571 103 q 575 17 575 39 l 575 15 q 576 9 576 13 q 576 1 575 6 l 576 3 l 578 -7 q 586 -62 579 -35 l 592 -94 l 599 -97 l 608 -90 q 657 -24 640 -54 q 697 60 681 17 q 733 168 713 103 q 767 290 750 224 l 776 329 q 794 436 790 413 q 813 592 804 486 q 822 681 818 649 q 828 751 828 713 l 831 786 l 831 796 q 829 822 831 814 l 829 825 q 847 842 829 842 q 859 839 853 842 q 868 833 865 836 q 878 799 878 821 q 871 681 874 756 l 867 635 q 861 583 864 601 l 854 519 q 840 406 846 447 q 825 317 835 371 q 782 139 810 236 q 729 -10 756 50 q 717 -34 724 -21 q 701 -62 710 -47 q 675 -103 682 -94 q 656 -125 668 -110 q 631 -149 643 -140 q 594 -156 615 -160 q 551 -146 560 -149 q 529 -126 538 -137 q 497 -37 507 -89 q 488 29 489 7 q 485 88 485 68 q 486 111 485 103 q 483 165 483 147 q 486 228 483 186 q 489 282 486 246 q 492 317 492 304 q 501 406 493 347 l 501 417 l 494 419 q 485 410 488 414 q 431 308 479 397 l 411 275 l 390 236 q 347 160 368 193 l 322 118 q 257 14 285 53 q 192 -72 225 -33 q 104 -175 149 -131 q 38 -228 86 -194 q 8 -237 24 -237 q -8 -235 3 -237 m 694 985 q 678 992 685 985 l 672 997 q 661 1014 663 1004 l 653 1042 l 650 1050 l 640 1042 l 611 1006 q 596 994 604 996 q 583 1000 586 992 q 576 1004 583 1001 q 567 1013 569 1007 q 568 1025 564 1019 q 594 1060 581 1044 l 624 1092 q 642 1101 629 1100 l 647 1101 q 663 1096 657 1101 q 690 1049 686 1076 q 701 1007 696 1021 q 703 999 703 1004 q 694 985 703 992 z "},"Ẅ":{"ha":917,"x_min":-67,"x_max":878,"o":"m -8 -235 q -40 -219 -14 -233 q -62 -187 -61 -208 q -65 -162 -64 -179 q -67 -132 -67 -144 q -65 -107 -67 -115 q -50 17 -57 -28 l -35 97 q -15 179 -28 131 q -1 238 -10 199 q 14 301 3 260 q 36 389 15 308 q 45 424 40 408 q 53 450 50 439 l 65 497 q 108 642 79 553 l 169 835 l 188 888 q 206 939 192 899 l 214 968 q 224 1000 219 990 l 224 1001 l 225 1007 l 226 1008 q 235 1016 228 1013 q 250 1019 242 1019 q 275 1012 264 1019 q 288 989 286 1004 l 288 975 q 282 935 288 951 q 268 879 275 914 q 258 843 264 868 l 246 800 q 226 738 240 779 q 197 635 213 700 q 178 565 193 618 l 168 531 l 136 413 q 125 371 128 385 l 106 293 q 83 197 92 229 q 72 146 75 164 l 61 99 q 31 -35 49 49 q 14 -126 15 -112 q 7 -178 8 -156 q 9 -178 8 -178 q 11 -181 10 -179 q 22 -179 14 -185 q 82 -126 67 -143 q 128 -74 106 -96 q 140 -59 133 -67 q 151 -44 146 -51 l 207 36 l 281 146 q 328 226 297 171 q 350 268 342 254 l 378 319 q 397 363 392 347 l 433 435 q 513 604 489 546 l 518 614 q 550 636 529 636 q 565 633 554 636 q 589 624 575 631 q 604 614 594 624 q 608 606 607 613 l 608 607 q 611 576 611 588 q 604 511 606 531 q 597 456 599 471 l 592 399 l 586 344 l 581 281 q 572 171 572 208 l 572 142 q 572 117 572 132 q 572 83 571 103 q 575 17 575 39 l 575 15 q 576 9 576 13 q 576 1 575 6 l 576 3 l 578 -7 q 586 -62 579 -35 l 592 -94 l 599 -97 l 608 -90 q 657 -24 640 -54 q 697 60 681 17 q 733 168 713 103 q 767 290 750 224 l 776 329 q 794 436 790 413 q 813 592 804 486 q 822 681 818 649 q 828 751 828 713 l 831 786 l 831 796 q 829 822 831 814 l 829 825 q 847 842 829 842 q 859 839 853 842 q 868 833 865 836 q 878 799 878 821 q 871 681 874 756 l 867 635 q 861 583 864 601 l 854 519 q 840 406 846 447 q 825 317 835 371 q 782 139 810 236 q 729 -10 756 50 q 717 -34 724 -21 q 701 -62 710 -47 q 675 -103 682 -94 q 656 -125 668 -110 q 631 -149 643 -140 q 594 -156 615 -160 q 551 -146 560 -149 q 529 -126 538 -137 q 497 -37 507 -89 q 488 29 489 7 q 485 88 485 68 q 486 111 485 103 q 483 165 483 147 q 486 228 483 186 q 489 282 486 246 q 492 317 492 304 q 501 406 493 347 l 501 417 l 494 419 q 485 410 488 414 q 431 308 479 397 l 411 275 l 390 236 q 347 160 368 193 l 322 118 q 257 14 285 53 q 192 -72 225 -33 q 104 -175 149 -131 q 38 -228 86 -194 q 8 -237 24 -237 q -8 -235 3 -237 m 692 1026 q 667 1033 681 1026 q 658 1044 664 1035 q 653 1061 653 1053 q 656 1072 653 1069 q 679 1083 665 1083 q 708 1070 696 1083 q 715 1044 719 1057 q 707 1031 713 1036 q 697 1026 706 1029 l 692 1026 m 578 1044 q 559 1051 565 1044 q 551 1060 553 1058 q 547 1082 543 1069 q 575 1099 557 1099 q 596 1092 586 1099 q 607 1076 606 1086 l 608 1065 q 601 1049 608 1054 q 578 1044 594 1044 z "},"Ẁ":{"ha":917,"x_min":-67,"x_max":878,"o":"m -8 -235 q -40 -219 -14 -233 q -62 -187 -61 -208 q -65 -162 -64 -179 q -67 -132 -67 -144 q -65 -107 -67 -115 q -50 17 -57 -28 l -35 97 q -15 179 -28 131 q -1 238 -10 199 q 14 301 3 260 q 36 389 15 308 q 45 424 40 408 q 53 450 50 439 l 65 497 q 108 642 79 553 l 169 835 l 188 888 q 206 939 192 899 l 214 968 q 224 1000 219 990 l 224 1001 l 225 1007 l 226 1008 q 235 1016 228 1013 q 250 1019 242 1019 q 275 1012 264 1019 q 288 989 286 1004 l 288 975 q 282 935 288 951 q 268 879 275 914 q 258 843 264 868 l 246 800 q 226 738 240 779 q 197 635 213 700 q 178 565 193 618 l 168 531 l 136 413 q 125 371 128 385 l 106 293 q 83 197 92 229 q 72 146 75 164 l 61 99 q 31 -35 49 49 q 14 -126 15 -112 q 7 -178 8 -156 q 9 -178 8 -178 q 11 -181 10 -179 q 22 -179 14 -185 q 82 -126 67 -143 q 128 -74 106 -96 q 140 -59 133 -67 q 151 -44 146 -51 l 207 36 l 281 146 q 328 226 297 171 q 350 268 342 254 l 378 319 q 397 363 392 347 l 433 435 q 513 604 489 546 l 518 614 q 550 636 529 636 q 565 633 554 636 q 589 624 575 631 q 604 614 594 624 q 608 606 607 613 l 608 607 q 611 576 611 588 q 604 511 606 531 q 597 456 599 471 l 592 399 l 586 344 l 581 281 q 572 171 572 208 l 572 142 q 572 117 572 132 q 572 83 571 103 q 575 17 575 39 l 575 15 q 576 9 576 13 q 576 1 575 6 l 576 3 l 578 -7 q 586 -62 579 -35 l 592 -94 l 599 -97 l 608 -90 q 657 -24 640 -54 q 697 60 681 17 q 733 168 713 103 q 767 290 750 224 l 776 329 q 794 436 790 413 q 813 592 804 486 q 822 681 818 649 q 828 751 828 713 l 831 786 l 831 796 q 829 822 831 814 l 829 825 q 847 842 829 842 q 859 839 853 842 q 868 833 865 836 q 878 799 878 821 q 871 681 874 756 l 867 635 q 861 583 864 601 l 854 519 q 840 406 846 447 q 825 317 835 371 q 782 139 810 236 q 729 -10 756 50 q 717 -34 724 -21 q 701 -62 710 -47 q 675 -103 682 -94 q 656 -125 668 -110 q 631 -149 643 -140 q 594 -156 615 -160 q 551 -146 560 -149 q 529 -126 538 -137 q 497 -37 507 -89 q 488 29 489 7 q 485 88 485 68 q 486 111 485 103 q 483 165 483 147 q 486 228 483 186 q 489 282 486 246 q 492 317 492 304 q 501 406 493 347 l 501 417 l 494 419 q 485 410 488 414 q 431 308 479 397 l 411 275 l 390 236 q 347 160 368 193 l 322 118 q 257 14 285 53 q 192 -72 225 -33 q 104 -175 149 -131 q 38 -228 86 -194 q 8 -237 24 -237 q -8 -235 3 -237 m 654 988 q 629 999 636 988 q 615 1024 617 1017 q 596 1086 610 1044 l 592 1097 q 590 1106 590 1100 q 596 1114 590 1111 l 604 1115 q 619 1110 614 1115 q 626 1104 621 1107 q 638 1088 636 1097 q 653 1038 649 1060 q 660 1015 654 1028 q 661 1008 661 1011 q 663 1001 661 1004 l 661 996 q 654 988 661 988 z "},"X":{"ha":597,"x_min":-58,"x_max":636,"o":"m 328 -293 q 303 -287 311 -290 q 285 -279 293 -286 q 253 -242 260 -257 q 222 -182 231 -203 l 203 -135 q 200 -127 201 -131 q 197 -119 199 -124 l 175 -46 l 142 76 q 122 151 136 101 l 118 160 q 106 140 111 149 q 97 125 101 132 l 93 117 l 75 86 q 28 6 53 50 q 3 -37 25 0 q -24 -57 -3 -49 l -25 -57 l -26 -57 q -40 -53 -32 -57 q -53 -47 -49 -50 q -56 -32 -58 -42 l -42 -4 l 13 96 q 65 197 56 176 l 92 250 q 93 271 97 263 q 65 392 76 335 l 49 482 q 43 513 46 504 q 32 576 40 538 l 24 632 q 14 690 18 671 q 10 717 11 706 q 10 736 10 729 l 7 749 l 4 781 q 1 814 1 803 q -3 842 0 825 q -7 881 -6 858 q -9 905 -7 889 q -11 933 -11 921 l -10 950 q -8 963 -10 958 q 8 981 -7 976 q 21 982 13 982 q 32 981 29 982 q 60 960 54 978 q 67 933 65 944 l 74 888 l 82 813 q 85 781 85 790 q 101 657 90 722 q 121 543 108 613 l 132 482 l 140 439 l 153 381 l 154 378 q 158 382 158 382 q 189 436 178 418 q 228 508 210 476 l 269 581 q 308 647 294 625 l 321 669 q 364 739 336 692 q 411 811 406 803 q 475 907 453 875 q 478 911 476 908 q 483 917 479 914 q 506 919 494 928 q 508 917 506 917 l 522 918 l 529 913 q 533 899 535 907 q 519 865 531 883 l 482 797 q 444 731 461 764 l 443 728 q 426 701 435 717 q 414 679 418 686 l 388 631 l 372 603 q 328 525 353 567 q 301 478 314 499 l 275 426 l 258 397 q 226 340 231 349 l 222 332 l 197 290 l 181 261 q 192 210 189 228 l 213 124 l 226 69 l 247 -8 l 260 -51 l 267 -78 l 268 -85 q 283 -132 278 -111 q 289 -149 286 -142 q 293 -162 292 -156 q 315 -219 307 -201 q 328 -246 317 -222 q 338 -256 333 -253 l 343 -251 q 383 -206 365 -235 l 397 -183 q 471 -36 438 -118 q 529 128 496 24 q 540 165 535 149 q 550 193 546 181 l 563 231 l 593 332 q 603 349 596 343 q 618 354 610 354 q 631 347 626 354 q 633 328 636 340 l 589 165 l 564 82 q 538 11 547 35 q 497 -89 525 -22 l 481 -126 q 435 -208 440 -199 q 392 -268 410 -250 q 328 -293 367 -296 z "},"Y":{"ha":544,"x_min":-82,"x_max":586,"o":"m 14 -382 q -58 -361 -32 -385 q -76 -336 -69 -351 q -82 -306 -82 -324 q -79 -279 -82 -299 q -49 -199 -71 -246 q 15 -100 -26 -151 q 119 13 47 -60 l 174 64 q 196 83 188 78 l 217 103 q 285 158 238 122 q 290 168 289 163 l 317 256 l 328 294 q 327 294 328 294 q 326 296 326 294 q 313 278 321 285 q 293 258 306 271 q 271 236 281 244 q 228 200 243 211 q 149 164 186 172 q 121 161 139 161 q 49 186 82 161 l 42 192 q 16 230 25 214 q 4 265 7 246 q -3 299 -1 281 q -4 324 -4 318 l -4 339 q -1 379 -4 351 q 8 453 1 419 l 17 500 q 31 554 25 536 q 50 618 38 582 q 75 696 72 688 q 103 771 83 721 q 121 810 106 779 q 143 825 125 819 q 156 822 149 826 l 181 811 q 185 796 185 806 q 182 781 185 792 l 146 661 l 125 590 q 99 485 114 549 q 83 397 88 426 q 81 380 82 390 q 79 356 79 369 q 78 313 78 331 q 79 282 79 294 q 84 253 79 271 q 90 224 89 235 q 106 204 92 215 l 111 203 l 126 206 q 172 226 151 213 q 218 257 192 238 l 229 267 q 313 369 276 311 q 353 432 340 411 q 385 493 381 483 q 393 515 388 497 l 406 557 q 454 706 436 657 l 475 756 q 482 767 478 763 q 501 776 489 778 q 540 757 526 774 q 544 744 546 749 l 544 729 q 542 717 543 725 q 536 700 540 710 l 511 618 l 496 565 q 476 503 482 524 q 474 492 475 497 q 471 481 472 486 l 454 426 l 431 344 q 411 283 415 297 l 403 256 l 404 253 q 411 256 407 251 q 536 349 510 332 q 564 358 550 358 q 580 353 574 358 q 586 339 586 347 q 568 313 586 324 q 514 274 547 299 q 457 231 481 250 l 386 176 q 374 157 379 171 l 346 68 q 335 33 342 53 l 322 -3 q 313 -28 318 -17 q 306 -47 308 -39 q 268 -136 285 -104 q 259 -156 265 -144 q 249 -175 253 -168 q 242 -188 247 -179 q 231 -203 236 -197 q 226 -208 226 -206 q 215 -226 222 -217 q 206 -239 208 -235 l 200 -246 q 172 -279 189 -262 l 157 -296 q 141 -312 151 -303 q 122 -329 131 -321 l 111 -337 q 93 -350 101 -343 q 78 -361 85 -357 q 14 -382 36 -381 m 1 -339 q 29 -324 10 -337 q 45 -312 35 -319 q 63 -299 56 -306 q 90 -268 86 -275 q 104 -249 96 -260 q 122 -225 113 -239 q 165 -154 150 -185 q 207 -69 189 -110 l 232 -8 l 258 68 q 258 69 258 69 q 257 69 257 69 l 228 44 l 199 19 q 160 -15 197 18 l 96 -82 q 1 -210 42 -139 q -22 -264 -14 -235 q -32 -311 -32 -290 q -28 -332 -32 -324 q -11 -343 -24 -346 l 1 -339 z "},"Ý":{"ha":544,"x_min":-82,"x_max":586,"o":"m 14 -382 q -58 -361 -32 -385 q -76 -336 -69 -351 q -82 -306 -82 -324 q -79 -279 -82 -299 q -49 -199 -71 -246 q 15 -100 -26 -151 q 119 13 47 -60 l 174 64 q 196 83 188 78 l 217 103 q 285 158 238 122 q 290 168 289 163 l 317 256 l 328 294 q 327 294 328 294 q 326 296 326 294 q 313 278 321 285 q 293 258 306 271 q 271 236 281 244 q 228 200 243 211 q 149 164 186 172 q 121 161 139 161 q 49 186 82 161 l 42 192 q 16 230 25 214 q 4 265 7 246 q -3 299 -1 281 q -4 324 -4 318 l -4 339 q -1 379 -4 351 q 8 453 1 419 l 17 500 q 31 554 25 536 q 50 618 38 582 q 75 696 72 688 q 103 771 83 721 q 121 810 106 779 q 143 825 125 819 q 156 822 149 826 l 181 811 q 185 796 185 806 q 182 781 185 792 l 146 661 l 125 590 q 99 485 114 549 q 83 397 88 426 q 81 380 82 390 q 79 356 79 369 q 78 313 78 331 q 79 282 79 294 q 84 253 79 271 q 90 224 89 235 q 106 204 92 215 l 111 203 l 126 206 q 172 226 151 213 q 218 257 192 238 l 229 267 q 313 369 276 311 q 353 432 340 411 q 385 493 381 483 q 393 515 388 497 l 406 557 q 454 706 436 657 l 475 756 q 482 767 478 763 q 501 776 489 778 q 540 757 526 774 q 544 744 546 749 l 544 729 q 542 717 543 725 q 536 700 540 710 l 511 618 l 496 565 q 476 503 482 524 q 474 492 475 497 q 471 481 472 486 l 454 426 l 431 344 q 411 283 415 297 l 403 256 l 404 253 q 411 256 407 251 q 536 349 510 332 q 564 358 550 358 q 580 353 574 358 q 586 339 586 347 q 568 313 586 324 q 514 274 547 299 q 457 231 481 250 l 386 176 q 374 157 379 171 l 346 68 q 335 33 342 53 l 322 -3 q 313 -28 318 -17 q 306 -47 308 -39 q 268 -136 285 -104 q 259 -156 265 -144 q 249 -175 253 -168 q 242 -188 247 -179 q 231 -203 236 -197 q 226 -208 226 -206 q 215 -226 222 -217 q 206 -239 208 -235 l 200 -246 q 172 -279 189 -262 l 157 -296 q 141 -312 151 -303 q 122 -329 131 -321 l 111 -337 q 93 -350 101 -343 q 78 -361 85 -357 q 14 -382 36 -381 m 1 -339 q 29 -324 10 -337 q 45 -312 35 -319 q 63 -299 56 -306 q 90 -268 86 -275 q 104 -249 96 -260 q 122 -225 113 -239 q 165 -154 150 -185 q 207 -69 189 -110 l 232 -8 l 258 68 q 258 69 258 69 q 257 69 257 69 l 228 44 l 199 19 q 160 -15 197 18 l 96 -82 q 1 -210 42 -139 q -22 -264 -14 -235 q -32 -311 -32 -290 q -28 -332 -32 -324 q -11 -343 -24 -346 l 1 -339 m 372 874 q 358 878 367 874 q 346 894 350 883 q 346 907 343 901 q 381 997 364 956 q 386 1010 383 1006 q 399 1018 390 1018 q 419 1006 410 1018 q 425 985 429 994 l 401 928 l 385 886 q 383 882 385 885 q 381 878 382 879 q 372 874 378 874 z "},"Ŷ":{"ha":544,"x_min":-82,"x_max":586,"o":"m 14 -382 q -58 -361 -32 -385 q -76 -336 -69 -351 q -82 -306 -82 -324 q -79 -279 -82 -299 q -49 -199 -71 -246 q 15 -100 -26 -151 q 119 13 47 -60 l 174 64 q 196 83 188 78 l 217 103 q 285 158 238 122 q 290 168 289 163 l 317 256 l 328 294 q 327 294 328 294 q 326 296 326 294 q 313 278 321 285 q 293 258 306 271 q 271 236 281 244 q 228 200 243 211 q 149 164 186 172 q 121 161 139 161 q 49 186 82 161 l 42 192 q 16 230 25 214 q 4 265 7 246 q -3 299 -1 281 q -4 324 -4 318 l -4 339 q -1 379 -4 351 q 8 453 1 419 l 17 500 q 31 554 25 536 q 50 618 38 582 q 75 696 72 688 q 103 771 83 721 q 121 810 106 779 q 143 825 125 819 q 156 822 149 826 l 181 811 q 185 796 185 806 q 182 781 185 792 l 146 661 l 125 590 q 99 485 114 549 q 83 397 88 426 q 81 380 82 390 q 79 356 79 369 q 78 313 78 331 q 79 282 79 294 q 84 253 79 271 q 90 224 89 235 q 106 204 92 215 l 111 203 l 126 206 q 172 226 151 213 q 218 257 192 238 l 229 267 q 313 369 276 311 q 353 432 340 411 q 385 493 381 483 q 393 515 388 497 l 406 557 q 454 706 436 657 l 475 756 q 482 767 478 763 q 501 776 489 778 q 540 757 526 774 q 544 744 546 749 l 544 729 q 542 717 543 725 q 536 700 540 710 l 511 618 l 496 565 q 476 503 482 524 q 474 492 475 497 q 471 481 472 486 l 454 426 l 431 344 q 411 283 415 297 l 403 256 l 404 253 q 411 256 407 251 q 536 349 510 332 q 564 358 550 358 q 580 353 574 358 q 586 339 586 347 q 568 313 586 324 q 514 274 547 299 q 457 231 481 250 l 386 176 q 374 157 379 171 l 346 68 q 335 33 342 53 l 322 -3 q 313 -28 318 -17 q 306 -47 308 -39 q 268 -136 285 -104 q 259 -156 265 -144 q 249 -175 253 -168 q 242 -188 247 -179 q 231 -203 236 -197 q 226 -208 226 -206 q 215 -226 222 -217 q 206 -239 208 -235 l 200 -246 q 172 -279 189 -262 l 157 -296 q 141 -312 151 -303 q 122 -329 131 -321 l 111 -337 q 93 -350 101 -343 q 78 -361 85 -357 q 14 -382 36 -381 m 1 -339 q 29 -324 10 -337 q 45 -312 35 -319 q 63 -299 56 -306 q 90 -268 86 -275 q 104 -249 96 -260 q 122 -225 113 -239 q 165 -154 150 -185 q 207 -69 189 -110 l 232 -8 l 258 68 q 258 69 258 69 q 257 69 257 69 l 228 44 l 199 19 q 160 -15 197 18 l 96 -82 q 1 -210 42 -139 q -22 -264 -14 -235 q -32 -311 -32 -290 q -28 -332 -32 -324 q -11 -343 -24 -346 l 1 -339 m 403 874 q 386 881 393 874 l 381 886 q 369 903 371 893 l 361 931 l 358 939 l 349 931 l 319 894 q 304 883 313 885 q 292 889 294 881 q 285 893 292 890 q 275 902 278 896 q 276 914 272 908 q 303 949 289 933 l 332 981 q 350 990 338 989 l 356 990 q 371 985 365 990 q 399 938 394 965 q 410 896 404 910 q 411 888 411 893 q 403 874 411 881 z "},"Ÿ":{"ha":544,"x_min":-82,"x_max":586,"o":"m 14 -382 q -58 -361 -32 -385 q -76 -336 -69 -351 q -82 -306 -82 -324 q -79 -279 -82 -299 q -49 -199 -71 -246 q 15 -100 -26 -151 q 119 13 47 -60 l 174 64 q 196 83 188 78 l 217 103 q 285 158 238 122 q 290 168 289 163 l 317 256 l 328 294 q 327 294 328 294 q 326 296 326 294 q 313 278 321 285 q 293 258 306 271 q 271 236 281 244 q 228 200 243 211 q 149 164 186 172 q 121 161 139 161 q 49 186 82 161 l 42 192 q 16 230 25 214 q 4 265 7 246 q -3 299 -1 281 q -4 324 -4 318 l -4 339 q -1 379 -4 351 q 8 453 1 419 l 17 500 q 31 554 25 536 q 50 618 38 582 q 75 696 72 688 q 103 771 83 721 q 121 810 106 779 q 143 825 125 819 q 156 822 149 826 l 181 811 q 185 796 185 806 q 182 781 185 792 l 146 661 l 125 590 q 99 485 114 549 q 83 397 88 426 q 81 380 82 390 q 79 356 79 369 q 78 313 78 331 q 79 282 79 294 q 84 253 79 271 q 90 224 89 235 q 106 204 92 215 l 111 203 l 126 206 q 172 226 151 213 q 218 257 192 238 l 229 267 q 313 369 276 311 q 353 432 340 411 q 385 493 381 483 q 393 515 388 497 l 406 557 q 454 706 436 657 l 475 756 q 482 767 478 763 q 501 776 489 778 q 540 757 526 774 q 544 744 546 749 l 544 729 q 542 717 543 725 q 536 700 540 710 l 511 618 l 496 565 q 476 503 482 524 q 474 492 475 497 q 471 481 472 486 l 454 426 l 431 344 q 411 283 415 297 l 403 256 l 404 253 q 411 256 407 251 q 536 349 510 332 q 564 358 550 358 q 580 353 574 358 q 586 339 586 347 q 568 313 586 324 q 514 274 547 299 q 457 231 481 250 l 386 176 q 374 157 379 171 l 346 68 q 335 33 342 53 l 322 -3 q 313 -28 318 -17 q 306 -47 308 -39 q 268 -136 285 -104 q 259 -156 265 -144 q 249 -175 253 -168 q 242 -188 247 -179 q 231 -203 236 -197 q 226 -208 226 -206 q 215 -226 222 -217 q 206 -239 208 -235 l 200 -246 q 172 -279 189 -262 l 157 -296 q 141 -312 151 -303 q 122 -329 131 -321 l 111 -337 q 93 -350 101 -343 q 78 -361 85 -357 q 14 -382 36 -381 m 1 -339 q 29 -324 10 -337 q 45 -312 35 -319 q 63 -299 56 -306 q 90 -268 86 -275 q 104 -249 96 -260 q 122 -225 113 -239 q 165 -154 150 -185 q 207 -69 189 -110 l 232 -8 l 258 68 q 258 69 258 69 q 257 69 257 69 l 228 44 l 199 19 q 160 -15 197 18 l 96 -82 q 1 -210 42 -139 q -22 -264 -14 -235 q -32 -311 -32 -290 q -28 -332 -32 -324 q -11 -343 -24 -346 l 1 -339 m 442 871 q 417 878 431 871 q 408 888 414 879 q 403 906 403 897 q 406 917 403 914 q 429 928 415 928 q 458 915 446 928 q 465 889 469 901 q 457 875 463 881 q 447 871 456 874 l 442 871 m 328 889 q 309 896 315 889 q 301 904 303 903 q 297 926 293 914 q 325 943 307 943 q 346 937 336 943 q 357 921 356 931 l 358 910 q 351 894 358 899 q 328 889 344 889 z "},"Ỳ":{"ha":544,"x_min":-82,"x_max":586,"o":"m 14 -382 q -58 -361 -32 -385 q -76 -336 -69 -351 q -82 -306 -82 -324 q -79 -279 -82 -299 q -49 -199 -71 -246 q 15 -100 -26 -151 q 119 13 47 -60 l 174 64 q 196 83 188 78 l 217 103 q 285 158 238 122 q 290 168 289 163 l 317 256 l 328 294 q 327 294 328 294 q 326 296 326 294 q 313 278 321 285 q 293 258 306 271 q 271 236 281 244 q 228 200 243 211 q 149 164 186 172 q 121 161 139 161 q 49 186 82 161 l 42 192 q 16 230 25 214 q 4 265 7 246 q -3 299 -1 281 q -4 324 -4 318 l -4 339 q -1 379 -4 351 q 8 453 1 419 l 17 500 q 31 554 25 536 q 50 618 38 582 q 75 696 72 688 q 103 771 83 721 q 121 810 106 779 q 143 825 125 819 q 156 822 149 826 l 181 811 q 185 796 185 806 q 182 781 185 792 l 146 661 l 125 590 q 99 485 114 549 q 83 397 88 426 q 81 380 82 390 q 79 356 79 369 q 78 313 78 331 q 79 282 79 294 q 84 253 79 271 q 90 224 89 235 q 106 204 92 215 l 111 203 l 126 206 q 172 226 151 213 q 218 257 192 238 l 229 267 q 313 369 276 311 q 353 432 340 411 q 385 493 381 483 q 393 515 388 497 l 406 557 q 454 706 436 657 l 475 756 q 482 767 478 763 q 501 776 489 778 q 540 757 526 774 q 544 744 546 749 l 544 729 q 542 717 543 725 q 536 700 540 710 l 511 618 l 496 565 q 476 503 482 524 q 474 492 475 497 q 471 481 472 486 l 454 426 l 431 344 q 411 283 415 297 l 403 256 l 404 253 q 411 256 407 251 q 536 349 510 332 q 564 358 550 358 q 580 353 574 358 q 586 339 586 347 q 568 313 586 324 q 514 274 547 299 q 457 231 481 250 l 386 176 q 374 157 379 171 l 346 68 q 335 33 342 53 l 322 -3 q 313 -28 318 -17 q 306 -47 308 -39 q 268 -136 285 -104 q 259 -156 265 -144 q 249 -175 253 -168 q 242 -188 247 -179 q 231 -203 236 -197 q 226 -208 226 -206 q 215 -226 222 -217 q 206 -239 208 -235 l 200 -246 q 172 -279 189 -262 l 157 -296 q 141 -312 151 -303 q 122 -329 131 -321 l 111 -337 q 93 -350 101 -343 q 78 -361 85 -357 q 14 -382 36 -381 m 1 -339 q 29 -324 10 -337 q 45 -312 35 -319 q 63 -299 56 -306 q 90 -268 86 -275 q 104 -249 96 -260 q 122 -225 113 -239 q 165 -154 150 -185 q 207 -69 189 -110 l 232 -8 l 258 68 q 258 69 258 69 q 257 69 257 69 l 228 44 l 199 19 q 160 -15 197 18 l 96 -82 q 1 -210 42 -139 q -22 -264 -14 -235 q -32 -311 -32 -290 q -28 -332 -32 -324 q -11 -343 -24 -346 l 1 -339 m 353 872 q 328 883 335 872 q 314 908 315 901 q 294 971 308 929 l 290 982 q 289 990 289 985 q 294 999 289 996 l 303 1000 q 318 994 313 1000 q 325 989 319 992 q 336 972 335 982 q 351 922 347 944 q 358 900 353 913 q 360 892 360 896 q 361 886 360 889 l 360 881 q 353 872 360 872 z "},"Z":{"ha":481,"x_min":-147,"x_max":529,"o":"m -61 -257 q -86 -262 -78 -262 q -119 -253 -100 -262 l -131 -244 l -146 -231 l -147 -224 q -144 -211 -147 -219 l -124 -175 l -76 -96 q -46 -46 -65 -79 q -32 -21 -40 -37 l 14 58 q 50 122 24 74 q 63 144 56 132 q 81 174 71 157 q 104 215 88 188 l 142 285 q 176 349 158 313 l 219 429 l 275 536 q 332 653 314 614 q 381 754 365 719 q 404 814 400 796 l 375 818 q 330 822 356 821 q 294 824 304 824 q 236 826 256 826 l 207 828 q 181 828 194 829 q 154 829 168 828 q 51 832 86 829 q 0 842 14 838 q -11 853 -10 847 q -11 867 -12 858 q 10 874 -10 874 l 117 875 l 147 875 q 243 872 211 872 q 289 871 274 872 l 333 869 q 363 867 346 869 q 393 867 381 865 q 424 863 408 867 l 444 853 l 450 849 q 481 813 468 840 q 482 796 486 803 q 478 781 481 790 q 474 764 476 771 q 450 707 469 753 q 400 601 424 646 l 351 506 l 306 414 l 256 319 q 204 224 238 288 l 168 161 l 144 118 l 111 61 l 104 46 l 75 -3 q 51 -44 58 -31 l -11 -149 l -14 -154 l -7 -156 l 4 -151 q 85 -139 43 -139 q 144 -153 113 -139 q 214 -186 182 -168 q 231 -192 228 -192 q 250 -181 236 -192 q 275 -147 267 -167 l 303 -89 l 336 -19 l 388 100 l 418 178 l 440 236 l 467 306 l 479 339 q 490 357 482 350 q 508 364 499 364 q 524 356 518 364 q 525 335 529 349 q 507 282 510 289 q 492 233 503 263 l 451 117 q 438 82 446 101 q 426 53 431 63 l 400 -11 q 369 -78 381 -56 l 354 -111 q 343 -135 349 -122 q 331 -164 338 -149 q 297 -215 311 -200 q 281 -231 293 -221 q 256 -239 271 -239 l 249 -239 q 228 -236 242 -239 q 165 -212 208 -232 q 143 -203 147 -206 q 101 -196 128 -196 q 74 -199 89 -196 q 53 -203 60 -201 q 46 -206 47 -206 q 42 -208 44 -207 q 38 -210 40 -210 q 10 -221 25 -212 q -12 -233 -6 -229 q -37 -245 -25 -239 q -61 -257 -49 -251 z "},"a":{"ha":326,"x_min":-69,"x_max":369,"o":"m 154 -61 q 123 -57 138 -64 q 101 -35 108 -50 q 93 -7 96 -22 q 86 50 86 24 q 90 119 85 72 l 92 133 l 85 125 q 50 87 72 107 q 8 60 28 67 q -6 57 0 57 q -29 64 -18 57 l -46 72 q -69 125 -69 88 q -54 207 -69 151 q -19 301 -42 257 q 4 350 -6 335 q 28 389 17 374 q 82 429 49 419 q 107 433 94 433 q 144 421 125 433 q 164 406 146 419 q 169 411 169 411 q 175 424 172 419 q 197 444 181 438 q 207 444 203 447 q 240 429 218 440 q 247 413 250 424 q 246 401 247 408 q 243 389 244 393 q 219 303 235 353 q 193 201 200 236 q 178 135 182 157 q 172 89 175 119 l 164 13 l 164 8 q 169 11 165 7 q 181 29 174 19 q 194 51 188 39 q 236 139 217 93 l 257 185 l 292 264 l 329 347 q 338 358 332 354 q 351 363 344 363 q 365 356 360 363 q 367 340 369 350 q 356 311 358 321 q 294 165 293 163 q 251 68 260 86 q 206 -12 236 32 q 154 -61 175 -57 m 19 121 l 44 144 q 96 210 71 171 q 121 256 114 236 q 136 311 128 275 q 139 331 139 325 q 124 383 139 350 l 121 385 l 115 381 q 81 322 99 361 q 58 275 76 314 q 35 217 46 250 q 15 146 21 169 q 14 117 13 125 l 19 121 z "},"á":{"ha":326,"x_min":-69,"x_max":368,"o":"m 154 -61 q 123 -57 138 -64 q 101 -35 108 -50 q 93 -7 96 -22 q 86 50 86 24 q 90 119 85 72 l 92 133 l 85 125 q 50 87 72 107 q 8 60 28 67 q -6 57 0 57 q -29 64 -18 57 l -46 72 q -69 125 -69 88 q -54 207 -69 151 q -19 301 -42 257 q 4 350 -6 335 q 28 389 17 374 q 82 429 49 419 q 107 433 94 433 q 144 421 125 433 q 164 406 146 419 q 169 411 169 411 q 175 424 172 419 q 197 444 181 438 q 207 444 203 447 q 240 429 218 440 q 247 413 250 424 q 246 401 247 408 q 243 389 244 393 q 219 303 235 353 q 193 201 200 236 q 178 135 182 157 q 172 89 175 119 l 164 13 l 164 8 q 169 11 165 7 q 181 29 174 19 q 194 51 188 39 q 236 139 217 93 l 257 185 l 292 264 l 329 347 q 338 358 332 354 q 351 363 344 363 q 365 356 360 363 q 367 340 369 350 q 356 311 358 321 q 294 165 293 163 q 251 68 260 86 q 206 -12 236 32 q 154 -61 175 -57 m 19 121 l 44 144 q 96 210 71 171 q 121 256 114 236 q 136 311 128 275 q 139 331 139 325 q 124 383 139 350 l 121 385 l 115 381 q 81 322 99 361 q 58 275 76 314 q 35 217 46 250 q 15 146 21 169 q 14 117 13 125 l 19 121 m 182 521 q 168 526 176 521 q 156 542 160 531 q 156 554 153 549 q 190 644 174 603 q 196 657 193 653 q 208 665 200 665 q 229 653 219 665 q 235 632 239 642 l 211 575 l 194 533 q 193 529 194 532 q 190 525 192 526 q 182 521 188 521 z "},"â":{"ha":326,"x_min":-69,"x_max":368,"o":"m 154 -61 q 123 -57 138 -64 q 101 -35 108 -50 q 93 -7 96 -22 q 86 50 86 24 q 90 119 85 72 l 92 133 l 85 125 q 50 87 72 107 q 8 60 28 67 q -6 57 0 57 q -29 64 -18 57 l -46 72 q -69 125 -69 88 q -54 207 -69 151 q -19 301 -42 257 q 4 350 -6 335 q 28 389 17 374 q 82 429 49 419 q 107 433 94 433 q 144 421 125 433 q 164 406 146 419 q 169 411 169 411 q 175 424 172 419 q 197 444 181 438 q 207 444 203 447 q 240 429 218 440 q 247 413 250 424 q 246 401 247 408 q 243 389 244 393 q 219 303 235 353 q 193 201 200 236 q 178 135 182 157 q 172 89 175 119 l 164 13 l 164 8 q 169 11 165 7 q 181 29 174 19 q 194 51 188 39 q 236 139 217 93 l 257 185 l 292 264 l 329 347 q 338 358 332 354 q 351 363 344 363 q 365 356 360 363 q 367 340 369 350 q 356 311 358 321 q 294 165 293 163 q 251 68 260 86 q 206 -12 236 32 q 154 -61 175 -57 m 19 121 l 44 144 q 96 210 71 171 q 121 256 114 236 q 136 311 128 275 q 139 331 139 325 q 124 383 139 350 l 121 385 l 115 381 q 81 322 99 361 q 58 275 76 314 q 35 217 46 250 q 15 146 21 169 q 14 117 13 125 l 19 121 m 236 522 q 219 529 226 522 l 214 535 q 203 551 204 542 l 194 579 l 192 588 l 182 579 l 153 543 q 138 532 146 533 q 125 538 128 529 q 118 542 125 539 q 108 551 111 544 q 110 563 106 557 q 136 597 122 582 l 165 629 q 183 639 171 638 l 189 639 q 204 633 199 639 q 232 586 228 614 q 243 544 238 558 q 244 536 244 542 q 236 522 244 529 z "},"ä":{"ha":326,"x_min":-69,"x_max":368,"o":"m 154 -61 q 123 -57 138 -64 q 101 -35 108 -50 q 93 -7 96 -22 q 86 50 86 24 q 90 119 85 72 l 92 133 l 85 125 q 50 87 72 107 q 8 60 28 67 q -6 57 0 57 q -29 64 -18 57 l -46 72 q -69 125 -69 88 q -54 207 -69 151 q -19 301 -42 257 q 4 350 -6 335 q 28 389 17 374 q 82 429 49 419 q 107 433 94 433 q 144 421 125 433 q 164 406 146 419 q 169 411 169 411 q 175 424 172 419 q 197 444 181 438 q 207 444 203 447 q 240 429 218 440 q 247 413 250 424 q 246 401 247 408 q 243 389 244 393 q 219 303 235 353 q 193 201 200 236 q 178 135 182 157 q 172 89 175 119 l 164 13 l 164 8 q 169 11 165 7 q 181 29 174 19 q 194 51 188 39 q 236 139 217 93 l 257 185 l 292 264 l 329 347 q 338 358 332 354 q 351 363 344 363 q 365 356 360 363 q 367 340 369 350 q 356 311 358 321 q 294 165 293 163 q 251 68 260 86 q 206 -12 236 32 q 154 -61 175 -57 m 19 121 l 44 144 q 96 210 71 171 q 121 256 114 236 q 136 311 128 275 q 139 331 139 325 q 124 383 139 350 l 121 385 l 115 381 q 81 322 99 361 q 58 275 76 314 q 35 217 46 250 q 15 146 21 169 q 14 117 13 125 l 19 121 m 249 525 q 224 532 238 525 q 215 542 221 533 q 210 560 210 551 q 213 571 210 568 q 236 582 222 582 q 265 569 253 582 q 272 543 276 556 q 264 529 269 535 q 254 525 263 528 l 249 525 m 135 543 q 116 550 122 543 q 108 558 110 557 q 104 581 100 568 q 132 597 114 597 q 153 591 143 597 q 164 575 163 585 l 165 564 q 158 548 165 553 q 135 543 151 543 z "},"à":{"ha":326,"x_min":-69,"x_max":368,"o":"m 154 -61 q 123 -57 138 -64 q 101 -35 108 -50 q 93 -7 96 -22 q 86 50 86 24 q 90 119 85 72 l 92 133 l 85 125 q 50 87 72 107 q 8 60 28 67 q -6 57 0 57 q -29 64 -18 57 l -46 72 q -69 125 -69 88 q -54 207 -69 151 q -19 301 -42 257 q 4 350 -6 335 q 28 389 17 374 q 82 429 49 419 q 107 433 94 433 q 144 421 125 433 q 164 406 146 419 q 169 411 169 411 q 175 424 172 419 q 197 444 181 438 q 207 444 203 447 q 240 429 218 440 q 247 413 250 424 q 246 401 247 408 q 243 389 244 393 q 219 303 235 353 q 193 201 200 236 q 178 135 182 157 q 172 89 175 119 l 164 13 l 164 8 q 169 11 165 7 q 181 29 174 19 q 194 51 188 39 q 236 139 217 93 l 257 185 l 292 264 l 329 347 q 338 358 332 354 q 351 363 344 363 q 365 356 360 363 q 367 340 369 350 q 356 311 358 321 q 294 165 293 163 q 251 68 260 86 q 206 -12 236 32 q 154 -61 175 -57 m 19 121 l 44 144 q 96 210 71 171 q 121 256 114 236 q 136 311 128 275 q 139 331 139 325 q 124 383 139 350 l 121 385 l 115 381 q 81 322 99 361 q 58 275 76 314 q 35 217 46 250 q 15 146 21 169 q 14 117 13 125 l 19 121 m 189 515 q 164 526 171 515 q 150 551 151 544 q 131 614 144 572 l 126 625 q 125 633 125 628 q 131 642 125 639 l 139 643 q 154 638 149 643 q 161 632 156 635 q 172 615 171 625 q 188 565 183 588 q 194 543 189 556 q 196 535 196 539 q 197 529 196 532 l 196 524 q 189 515 196 515 z "},"å":{"ha":326,"x_min":-69,"x_max":368,"o":"m 154 -61 q 123 -57 138 -64 q 101 -35 108 -50 q 93 -7 96 -22 q 86 50 86 24 q 90 119 85 72 l 92 133 l 85 125 q 50 87 72 107 q 8 60 28 67 q -6 57 0 57 q -29 64 -18 57 l -46 72 q -69 125 -69 88 q -54 207 -69 151 q -19 301 -42 257 q 4 350 -6 335 q 28 389 17 374 q 82 429 49 419 q 107 433 94 433 q 144 421 125 433 q 164 406 146 419 q 169 411 169 411 q 175 424 172 419 q 197 444 181 438 q 207 444 203 447 q 240 429 218 440 q 247 413 250 424 q 246 401 247 408 q 243 389 244 393 q 219 303 235 353 q 193 201 200 236 q 178 135 182 157 q 172 89 175 119 l 164 13 l 164 8 q 169 11 165 7 q 181 29 174 19 q 194 51 188 39 q 236 139 217 93 l 257 185 l 292 264 l 329 347 q 338 358 332 354 q 351 363 344 363 q 365 356 360 363 q 367 340 369 350 q 356 311 358 321 q 294 165 293 163 q 251 68 260 86 q 206 -12 236 32 q 154 -61 175 -57 m 19 121 l 44 144 q 96 210 71 171 q 121 256 114 236 q 136 311 128 275 q 139 331 139 325 q 124 383 139 350 l 121 385 l 115 381 q 81 322 99 361 q 58 275 76 314 q 35 217 46 250 q 15 146 21 169 q 14 117 13 125 l 19 121 m 167 510 q 124 544 138 519 q 113 582 113 564 q 119 610 113 593 q 149 649 128 628 q 179 656 161 660 q 221 621 210 646 q 231 600 226 614 l 233 578 q 211 521 236 543 q 182 507 199 507 q 167 510 178 507 m 167 546 q 185 567 178 551 q 189 594 189 582 q 183 614 189 604 q 171 601 171 608 q 167 593 169 597 q 163 582 164 589 q 160 568 160 576 q 167 546 160 554 z "},"ã":{"ha":326,"x_min":-69,"x_max":368,"o":"m 154 -61 q 123 -57 138 -64 q 101 -35 108 -50 q 93 -7 96 -22 q 86 50 86 24 q 90 119 85 72 l 92 133 l 85 125 q 50 87 72 107 q 8 60 28 67 q -6 57 0 57 q -29 64 -18 57 l -46 72 q -69 125 -69 88 q -54 207 -69 151 q -19 301 -42 257 q 4 350 -6 335 q 28 389 17 374 q 82 429 49 419 q 107 433 94 433 q 144 421 125 433 q 164 406 146 419 q 169 411 169 411 q 175 424 172 419 q 197 444 181 438 q 207 444 203 447 q 240 429 218 440 q 247 413 250 424 q 246 401 247 408 q 243 389 244 393 q 219 303 235 353 q 193 201 200 236 q 178 135 182 157 q 172 89 175 119 l 164 13 l 164 8 q 169 11 165 7 q 181 29 174 19 q 194 51 188 39 q 236 139 217 93 l 257 185 l 292 264 l 329 347 q 338 358 332 354 q 351 363 344 363 q 365 356 360 363 q 367 340 369 350 q 356 311 358 321 q 294 165 293 163 q 251 68 260 86 q 206 -12 236 32 q 154 -61 175 -57 m 19 121 l 44 144 q 96 210 71 171 q 121 256 114 236 q 136 311 128 275 q 139 331 139 325 q 124 383 139 350 l 121 385 l 115 381 q 81 322 99 361 q 58 275 76 314 q 35 217 46 250 q 15 146 21 169 q 14 117 13 125 l 19 121 m 213 521 q 185 526 197 521 l 157 544 l 140 553 q 125 551 135 557 q 100 535 108 543 q 88 524 94 528 q 65 513 72 513 q 51 522 56 513 q 49 540 47 531 q 63 565 51 551 q 104 594 82 588 q 122 599 113 599 q 139 594 131 599 q 175 575 153 589 l 194 563 q 213 564 204 558 q 236 583 225 572 q 257 589 243 589 q 275 582 268 589 q 276 564 282 575 q 263 543 269 551 q 239 525 256 535 q 231 522 236 522 l 213 521 z "},"æ":{"ha":553,"x_min":-51,"x_max":606,"o":"m 119 18 q 111 46 114 31 q 104 103 104 76 q 108 172 103 125 l 110 186 l 103 178 q 68 140 90 160 q 26 113 46 119 q 13 110 18 110 q -11 117 0 110 l -28 125 q -51 178 -51 140 q -36 260 -51 204 q -1 354 -24 310 q 22 403 13 388 q 46 442 35 426 q 100 482 67 472 q 125 486 113 486 q 163 474 144 486 q 182 458 164 472 q 188 464 188 464 q 193 476 190 472 q 215 497 199 490 q 225 497 221 500 q 258 482 236 493 q 265 465 268 476 q 264 453 265 461 q 261 442 263 446 l 251 406 q 260 418 256 411 q 269 435 264 425 l 282 450 l 310 481 l 335 500 q 388 525 353 515 q 403 528 393 528 q 419 525 414 528 l 438 518 q 447 513 443 517 q 461 479 463 499 q 447 429 456 449 q 404 360 432 394 q 383 336 394 346 q 322 285 344 300 q 281 263 308 276 l 272 258 q 269 256 272 258 q 253 186 257 222 l 251 150 q 261 86 250 121 q 264 80 263 83 q 267 72 265 76 q 290 60 276 58 q 321 64 307 60 q 417 119 367 74 q 474 185 444 144 q 518 254 490 207 q 563 350 533 281 q 573 364 565 358 q 589 369 581 369 q 601 363 597 369 q 601 343 606 356 q 560 249 589 306 q 504 154 532 193 q 481 128 497 144 q 414 65 446 89 q 347 28 376 38 q 304 21 328 21 q 229 42 265 21 q 158 -10 190 -10 q 119 18 133 -10 m 182 61 q 188 64 183 60 l 193 75 l 185 92 l 185 93 q 182 65 182 76 l 182 61 m 38 174 l 63 197 q 114 263 89 224 q 139 308 132 289 q 154 364 146 328 q 157 383 157 378 q 142 436 157 403 l 139 438 l 133 433 q 99 375 117 414 q 76 328 94 367 q 53 269 64 303 q 33 199 39 222 q 32 169 31 178 l 38 174 m 297 321 q 354 369 315 326 q 407 460 388 406 q 385 443 392 453 q 376 434 381 438 q 367 425 371 431 l 354 411 q 326 369 335 383 l 310 344 q 297 321 308 342 z "},"b":{"ha":385,"x_min":-32,"x_max":429,"o":"m 11 -49 q -31 -12 -21 -40 q -32 0 -32 -8 q -28 24 -32 11 q -6 64 -22 42 q 57 126 24 97 q 192 232 97 161 q 204 250 203 239 l 208 292 q 204 344 210 308 q 192 375 203 356 q 171 382 186 388 q 144 367 160 379 q 106 325 124 350 q 51 222 72 272 l 42 197 q 26 189 35 188 q 4 193 14 189 q -17 207 -10 196 q -24 229 -25 218 q -14 294 -18 275 q 0 351 -7 328 l 15 419 l 21 450 q 26 481 24 458 l 38 529 q 43 560 40 540 l 58 624 l 75 694 l 103 782 q 122 838 115 822 q 153 910 131 863 q 178 946 167 935 q 194 960 189 957 q 221 967 208 967 q 253 957 239 967 q 274 929 268 947 q 279 865 281 893 q 249 726 276 808 q 206 624 233 685 l 168 553 q 121 474 154 526 q 110 457 118 468 q 103 440 106 453 q 89 379 93 394 q 94 380 93 378 q 97 383 96 382 q 142 414 119 406 q 163 418 153 418 q 260 371 219 419 q 278 339 271 358 q 283 319 282 328 q 286 306 285 311 l 286 300 q 292 301 289 299 q 296 303 294 303 q 345 331 314 314 q 396 356 376 347 q 411 360 404 360 q 424 356 419 360 q 429 347 429 351 q 421 335 429 339 l 294 264 q 285 244 285 256 q 278 210 283 233 q 265 163 274 186 q 253 133 263 157 q 232 90 244 110 q 226 81 231 89 q 211 57 218 64 q 189 29 192 33 q 167 7 174 11 q 154 -6 154 -6 q 147 -10 151 -8 q 138 -17 142 -12 q 93 -39 121 -31 l 86 -44 l 68 -49 q 42 -53 54 -53 q 11 -49 25 -53 m 21 -6 q 49 7 36 -1 q 69 22 54 11 q 92 43 83 32 l 108 58 l 125 76 q 157 122 143 94 l 179 164 l 182 178 l 181 178 l 171 171 q 108 121 171 171 l 58 72 q 26 31 43 57 q 19 8 21 17 q 21 -6 17 0 m 136 594 q 165 646 156 626 q 188 699 175 665 q 217 781 203 736 q 233 881 232 838 l 233 886 q 229 911 233 897 q 222 900 222 901 q 218 888 221 893 q 214 879 215 883 q 188 790 207 860 q 178 758 182 768 l 147 643 l 138 594 l 136 594 z "},"c":{"ha":351,"x_min":-49,"x_max":406,"o":"m 53 -35 q 4 -17 17 -26 q -18 6 -14 -1 l -32 25 q -39 43 -37 35 q -49 122 -49 81 q -31 253 -49 183 q 6 351 -18 301 q 53 433 26 399 q 92 468 69 454 q 101 472 96 472 q 129 476 114 476 q 150 474 136 476 q 203 438 183 465 q 221 396 214 421 q 226 374 224 379 q 231 338 231 361 l 232 325 l 232 321 q 221 304 232 311 q 213 301 215 301 q 201 307 207 301 q 183 329 188 317 q 174 361 181 336 q 158 410 169 390 q 147 424 154 418 q 132 410 139 418 q 117 388 126 400 q 103 367 108 375 q 65 283 82 328 l 47 226 q 35 147 36 174 q 33 113 32 132 q 33 86 33 93 q 42 43 35 64 q 47 28 46 36 q 60 13 50 17 q 101 29 79 14 q 142 61 113 35 q 207 133 194 117 q 240 179 225 156 l 324 299 q 356 344 317 289 q 382 363 364 363 q 399 356 393 363 q 400 342 406 350 q 374 299 392 321 l 350 263 l 307 200 q 285 164 293 175 l 253 121 q 177 29 229 83 q 88 -33 125 -25 q 65 -36 71 -36 q 53 -35 57 -36 z "},"ç":{"ha":351,"x_min":-49,"x_max":406,"o":"m 53 -35 q 4 -17 17 -26 q -18 6 -14 -1 l -32 25 q -39 43 -37 35 q -49 122 -49 81 q -31 253 -49 183 q 6 351 -18 301 q 53 433 26 399 q 92 468 69 454 q 101 472 96 472 q 129 476 114 476 q 150 474 136 476 q 203 438 183 465 q 221 396 214 421 q 226 374 224 379 q 231 338 231 361 l 232 325 l 232 321 q 221 304 232 311 q 213 301 215 301 q 201 307 207 301 q 183 329 188 317 q 174 361 181 336 q 158 410 169 390 q 147 424 154 418 q 132 410 139 418 q 117 388 126 400 q 103 367 108 375 q 65 283 82 328 l 47 226 q 35 147 36 174 q 33 113 32 132 q 33 86 33 93 q 42 43 35 64 q 47 28 46 36 q 60 13 50 17 q 101 29 79 14 q 142 61 113 35 q 207 133 194 117 q 240 179 225 156 l 324 299 q 356 344 317 289 q 382 363 364 363 q 399 356 393 363 q 400 342 406 350 q 374 299 392 321 l 350 263 l 307 200 q 285 164 293 175 l 253 121 q 177 29 229 83 q 88 -33 125 -25 q 65 -36 71 -36 q 53 -35 57 -36 m 47 -206 q 25 -210 36 -210 q -25 -186 -8 -210 q -32 -171 -29 -182 l -32 -164 q -22 -129 -32 -144 q -15 -119 -21 -125 q -1 -115 -8 -115 q 7 -120 4 -117 q 10 -125 10 -124 q 16 -127 11 -126 q 24 -131 21 -128 q 26 -137 24 -132 q 16 -147 22 -142 q 8 -160 10 -153 q 8 -172 6 -168 l 13 -172 q 25 -168 21 -172 q 72 -111 61 -146 q 74 -101 74 -107 q 71 -87 74 -93 q 67 -88 69 -89 q 61 -89 64 -87 l 38 -101 q 17 -108 24 -110 q -12 -93 -6 -103 q -17 -72 -19 -83 q -12 -53 -17 -61 q 3 -21 -7 -37 l 4 -18 q 19 -7 11 -7 q 33 -14 26 -7 l 43 -21 q 55 -31 53 -26 q 54 -47 57 -36 l 54 -50 l 57 -53 q 83 -62 71 -54 q 97 -72 94 -71 q 114 -115 114 -86 q 100 -160 114 -136 q 47 -206 82 -190 z "},"d":{"ha":399,"x_min":-42,"x_max":492,"o":"m 224 -171 q 174 -137 189 -164 q 147 -81 154 -106 l 143 -72 q 135 -35 136 -53 q 131 4 132 -12 q 131 32 131 21 q 132 58 131 46 q 133 83 133 71 l 135 103 q 107 78 117 85 q 83 58 96 67 q 40 46 63 46 q -18 72 8 46 q -33 93 -31 89 q -40 114 -39 107 q -42 133 -42 121 q -39 174 -42 146 q -19 265 -35 214 q -3 319 -4 317 q 11 360 6 347 q 33 415 22 393 q 65 471 49 451 q 133 510 90 504 q 149 508 139 511 q 199 479 183 499 l 204 475 q 211 492 208 481 l 228 558 l 254 654 q 276 731 267 700 q 294 786 290 774 l 315 849 q 330 890 319 861 q 350 940 340 919 q 378 990 369 978 q 404 1022 389 1011 q 425 1033 411 1028 q 433 1035 431 1036 q 469 1026 453 1035 q 482 1013 478 1019 q 490 988 488 1003 l 492 963 q 489 928 492 950 q 458 772 482 858 q 428 671 436 694 q 375 535 406 606 q 318 400 357 489 q 265 292 297 351 q 257 258 257 278 l 257 251 q 250 239 257 243 l 239 236 q 233 210 236 231 q 228 181 229 193 q 225 160 226 168 l 221 131 l 215 61 q 213 -8 213 17 q 214 -35 213 -22 q 215 -62 215 -49 l 215 -68 q 218 -90 215 -74 l 221 -110 q 226 -131 221 -117 q 250 -108 240 -124 q 309 27 276 -75 q 382 275 342 129 l 404 351 q 419 364 408 364 q 437 354 429 364 q 443 331 444 344 q 413 215 442 319 q 352 11 385 111 q 296 -124 319 -89 q 263 -161 283 -144 q 224 -171 249 -174 m 43 97 q 47 99 44 99 q 50 100 49 99 q 67 111 56 103 q 142 188 114 151 q 146 195 143 190 q 149 204 149 200 l 150 217 q 156 251 153 226 l 172 333 q 179 358 174 342 l 183 374 l 188 396 q 189 402 188 399 q 190 410 190 406 q 188 421 190 418 q 160 460 178 446 q 157 458 158 458 q 156 457 156 458 q 133 429 147 449 q 111 389 125 417 l 99 360 q 82 313 83 318 q 63 257 71 282 q 53 217 60 244 q 43 167 46 189 q 39 113 39 140 q 43 97 39 103 m 286 450 q 289 454 289 450 q 347 592 325 533 q 404 758 382 681 q 431 865 422 825 q 442 947 440 908 l 442 954 l 440 954 q 438 950 438 951 q 396 831 421 911 l 375 767 l 354 700 l 335 633 l 318 575 l 299 507 q 291 474 293 489 q 286 450 289 460 z "},"ð":{"ha":833,"x_min":0,"x_max":0,"o":""},"e":{"ha":340,"x_min":-49,"x_max":386,"o":"m 128 24 q 83 17 103 17 q 7 39 47 17 q -35 88 -22 56 q -47 138 -46 113 q -49 165 -49 147 q -47 193 -49 185 q -33 263 -43 233 q -7 332 -25 290 q 22 386 6 360 q 50 431 25 392 l 63 446 l 90 476 l 115 496 q 168 521 133 511 q 183 524 174 524 q 200 521 194 524 l 218 514 q 228 508 225 511 q 242 475 243 494 q 228 425 236 444 q 185 356 213 390 q 164 332 175 342 q 103 281 125 296 q 61 258 89 272 l 53 254 q 50 251 53 254 q 33 182 38 218 l 32 146 q 42 82 31 117 q 44 76 43 79 q 47 68 46 72 q 71 56 57 54 q 101 60 88 56 q 197 115 147 69 q 254 181 225 140 q 299 250 271 203 q 343 346 314 276 q 353 360 346 354 q 369 365 361 365 q 382 358 378 365 q 382 339 386 351 q 341 245 369 301 q 285 150 313 189 q 261 124 278 140 q 194 61 226 85 q 128 24 156 33 m 78 317 q 135 365 96 322 q 188 456 168 401 q 165 439 172 449 q 156 430 161 433 q 147 421 151 426 l 135 407 q 107 365 115 379 l 90 340 q 78 317 89 338 z "},"é":{"ha":340,"x_min":-49,"x_max":383,"o":"m 128 24 q 83 17 103 17 q 7 39 47 17 q -35 88 -22 56 q -47 138 -46 113 q -49 165 -49 147 q -47 193 -49 185 q -33 263 -43 233 q -7 332 -25 290 q 22 386 6 360 q 50 431 25 392 l 63 446 l 90 476 l 115 496 q 168 521 133 511 q 183 524 174 524 q 200 521 194 524 l 218 514 q 228 508 225 511 q 242 475 243 494 q 228 425 236 444 q 185 356 213 390 q 164 332 175 342 q 103 281 125 296 q 61 258 89 272 l 53 254 q 50 251 53 254 q 33 182 38 218 l 32 146 q 42 82 31 117 q 44 76 43 79 q 47 68 46 72 q 71 56 57 54 q 101 60 88 56 q 197 115 147 69 q 254 181 225 140 q 299 250 271 203 q 343 346 314 276 q 353 360 346 354 q 369 365 361 365 q 382 358 378 365 q 382 339 386 351 q 341 245 369 301 q 285 150 313 189 q 261 124 278 140 q 194 61 226 85 q 128 24 156 33 m 78 317 q 135 365 96 322 q 188 456 168 401 q 165 439 172 449 q 156 430 161 433 q 147 421 151 426 l 135 407 q 107 365 115 379 l 90 340 q 78 317 89 338 m 210 588 q 196 592 204 588 q 183 608 188 597 q 183 621 181 615 q 218 711 201 669 q 224 724 221 719 q 236 732 228 732 q 257 720 247 732 q 263 699 267 708 l 239 642 l 222 600 q 221 596 222 599 q 218 592 219 593 q 210 588 215 588 z "},"ê":{"ha":340,"x_min":-49,"x_max":383,"o":"m 128 24 q 83 17 103 17 q 7 39 47 17 q -35 88 -22 56 q -47 138 -46 113 q -49 165 -49 147 q -47 193 -49 185 q -33 263 -43 233 q -7 332 -25 290 q 22 386 6 360 q 50 431 25 392 l 63 446 l 90 476 l 115 496 q 168 521 133 511 q 183 524 174 524 q 200 521 194 524 l 218 514 q 228 508 225 511 q 242 475 243 494 q 228 425 236 444 q 185 356 213 390 q 164 332 175 342 q 103 281 125 296 q 61 258 89 272 l 53 254 q 50 251 53 254 q 33 182 38 218 l 32 146 q 42 82 31 117 q 44 76 43 79 q 47 68 46 72 q 71 56 57 54 q 101 60 88 56 q 197 115 147 69 q 254 181 225 140 q 299 250 271 203 q 343 346 314 276 q 353 360 346 354 q 369 365 361 365 q 382 358 378 365 q 382 339 386 351 q 341 245 369 301 q 285 150 313 189 q 261 124 278 140 q 194 61 226 85 q 128 24 156 33 m 78 317 q 135 365 96 322 q 188 456 168 401 q 165 439 172 449 q 156 430 161 433 q 147 421 151 426 l 135 407 q 107 365 115 379 l 90 340 q 78 317 89 338 m 268 571 q 251 578 258 571 l 246 583 q 235 600 236 590 l 226 628 l 224 636 l 214 628 l 185 592 q 169 581 178 582 q 157 586 160 578 q 150 590 157 588 q 140 599 143 593 q 142 611 138 606 q 168 646 154 631 l 197 678 q 215 688 203 686 l 221 688 q 236 682 231 688 q 264 635 260 663 q 275 593 269 607 q 276 585 276 590 q 268 571 276 578 z "},"ë":{"ha":340,"x_min":-49,"x_max":383,"o":"m 128 24 q 83 17 103 17 q 7 39 47 17 q -35 88 -22 56 q -47 138 -46 113 q -49 165 -49 147 q -47 193 -49 185 q -33 263 -43 233 q -7 332 -25 290 q 22 386 6 360 q 50 431 25 392 l 63 446 l 90 476 l 115 496 q 168 521 133 511 q 183 524 174 524 q 200 521 194 524 l 218 514 q 228 508 225 511 q 242 475 243 494 q 228 425 236 444 q 185 356 213 390 q 164 332 175 342 q 103 281 125 296 q 61 258 89 272 l 53 254 q 50 251 53 254 q 33 182 38 218 l 32 146 q 42 82 31 117 q 44 76 43 79 q 47 68 46 72 q 71 56 57 54 q 101 60 88 56 q 197 115 147 69 q 254 181 225 140 q 299 250 271 203 q 343 346 314 276 q 353 360 346 354 q 369 365 361 365 q 382 358 378 365 q 382 339 386 351 q 341 245 369 301 q 285 150 313 189 q 261 124 278 140 q 194 61 226 85 q 128 24 156 33 m 78 317 q 135 365 96 322 q 188 456 168 401 q 165 439 172 449 q 156 430 161 433 q 147 421 151 426 l 135 407 q 107 365 115 379 l 90 340 q 78 317 89 338 m 286 569 q 261 576 275 569 q 253 587 258 578 q 247 604 247 596 q 250 615 247 613 q 274 626 260 626 q 302 613 290 626 q 310 588 314 600 q 301 574 307 579 q 292 569 300 572 l 286 569 m 172 588 q 153 594 160 588 q 146 603 147 601 q 142 625 138 613 q 169 642 151 642 q 190 635 181 642 q 201 619 200 629 l 203 608 q 196 592 203 597 q 172 588 189 588 z "},"è":{"ha":340,"x_min":-49,"x_max":383,"o":"m 128 24 q 83 17 103 17 q 7 39 47 17 q -35 88 -22 56 q -47 138 -46 113 q -49 165 -49 147 q -47 193 -49 185 q -33 263 -43 233 q -7 332 -25 290 q 22 386 6 360 q 50 431 25 392 l 63 446 l 90 476 l 115 496 q 168 521 133 511 q 183 524 174 524 q 200 521 194 524 l 218 514 q 228 508 225 511 q 242 475 243 494 q 228 425 236 444 q 185 356 213 390 q 164 332 175 342 q 103 281 125 296 q 61 258 89 272 l 53 254 q 50 251 53 254 q 33 182 38 218 l 32 146 q 42 82 31 117 q 44 76 43 79 q 47 68 46 72 q 71 56 57 54 q 101 60 88 56 q 197 115 147 69 q 254 181 225 140 q 299 250 271 203 q 343 346 314 276 q 353 360 346 354 q 369 365 361 365 q 382 358 378 365 q 382 339 386 351 q 341 245 369 301 q 285 150 313 189 q 261 124 278 140 q 194 61 226 85 q 128 24 156 33 m 78 317 q 135 365 96 322 q 188 456 168 401 q 165 439 172 449 q 156 430 161 433 q 147 421 151 426 l 135 407 q 107 365 115 379 l 90 340 q 78 317 89 338 m 219 576 q 194 588 201 576 q 181 613 182 606 q 161 675 175 633 l 157 686 q 156 694 156 689 q 161 703 156 700 l 169 704 q 185 699 179 704 q 192 693 186 696 q 203 676 201 686 q 218 626 214 649 q 225 604 219 617 q 226 597 226 600 q 228 590 226 593 l 226 585 q 219 576 226 576 z "},"f":{"ha":292,"x_min":-62,"x_max":396,"o":"m 31 -150 q -18 -140 11 -150 l -22 -137 q -47 -107 -37 -126 q -54 -83 -49 -97 q -60 -57 -60 -68 l -60 -51 q -61 -35 -60 -44 q -61 -18 -62 -25 q -57 56 -61 18 q -50 115 -56 76 q -44 142 -47 132 l -50 149 q -57 168 -57 158 q -43 194 -57 185 l -37 199 l -33 204 q -32 208 -32 206 l -24 247 l -33 251 q -31 268 -31 265 l -17 275 q -14 289 -17 281 l 14 389 l 26 431 q 36 461 29 438 q 74 572 51 510 l 96 631 q 114 674 106 656 l 125 700 q 167 783 149 751 q 222 868 196 835 q 246 896 247 897 q 286 929 276 924 q 299 935 290 932 q 324 942 315 940 q 335 943 328 943 q 368 932 353 943 q 390 903 383 921 q 396 857 396 888 q 385 790 394 828 q 335 656 367 721 q 288 567 310 606 q 256 513 278 549 q 199 431 235 476 q 151 374 163 385 q 128 346 153 375 l 106 324 l 79 299 q 71 283 71 290 l 56 224 q 49 192 54 210 q 58 189 51 189 q 183 268 111 217 q 292 353 256 319 q 328 372 310 372 q 344 367 338 372 q 350 356 350 363 q 340 338 350 347 q 217 241 290 294 q 81 158 143 188 l 85 149 q 108 99 99 129 q 117 60 114 81 q 119 7 119 26 q 118 -25 119 -14 q 85 -114 111 -75 q 58 -139 71 -129 q 31 -150 47 -150 m 28 -97 q 31 -97 29 -97 q 32 -96 32 -96 q 49 -74 47 -78 q 68 -10 64 -43 q 71 31 71 18 q 60 100 71 71 q 44 135 56 113 q 42 138 44 136 q 39 138 40 139 q 28 78 31 99 q 21 6 22 31 q 25 -89 18 -40 q 28 -97 25 -92 m 108 392 q 144 436 143 433 q 197 508 181 483 l 243 585 q 283 663 258 610 q 333 797 319 736 q 343 874 343 832 q 338 899 343 888 q 324 889 331 896 q 296 856 313 881 q 269 817 276 831 q 222 722 236 756 q 208 692 215 710 l 179 619 q 156 556 163 578 q 128 476 136 503 l 124 461 l 107 411 q 105 402 107 408 q 104 389 103 396 l 108 392 z "},"g":{"ha":358,"x_min":-253,"x_max":413,"o":"m -175 -510 q -210 -500 -190 -510 q -233 -478 -224 -494 q -253 -392 -253 -443 q -226 -287 -250 -336 q -161 -169 -208 -244 q -62 -44 -125 -114 q 33 54 -14 11 l 79 99 q 93 121 89 107 q 100 150 94 131 q 101 156 101 151 q 96 153 100 157 l 81 136 q 56 111 69 121 q 40 101 53 110 q 15 89 28 93 q 8 86 13 86 l -7 85 q -54 101 -36 85 q -68 124 -60 107 q -71 154 -71 135 q -64 200 -71 181 q -14 322 -40 272 q 33 390 3 354 q 69 415 49 406 q 110 424 90 424 q 131 419 122 424 q 157 395 147 408 q 167 363 167 382 q 176 390 168 365 q 203 453 194 438 q 208 464 206 461 q 232 475 215 475 q 249 471 240 475 q 263 457 257 465 q 267 447 267 453 l 265 425 l 253 371 q 235 306 243 333 l 213 235 l 213 229 l 222 236 q 294 303 244 258 q 331 331 313 318 q 364 354 342 340 q 379 356 371 358 q 388 354 381 356 q 401 347 396 353 q 401 331 413 339 l 397 328 q 367 308 382 321 q 349 293 351 296 q 300 249 331 279 q 274 226 290 240 q 246 199 257 211 l 211 168 q 196 153 207 161 q 181 131 185 143 q 172 98 176 113 q 164 71 167 83 l 144 7 q 133 -28 140 -8 l 121 -69 l 88 -165 q 44 -269 64 -233 q 17 -333 36 -292 l -3 -367 q -15 -386 -4 -368 q -42 -422 -22 -400 q -93 -476 -61 -450 q -165 -508 -128 -507 l -175 -510 m -182 -475 q -128 -432 -150 -456 q -116 -417 -121 -424 q -107 -406 -111 -411 q -64 -328 -89 -381 q -42 -272 -53 -306 l -31 -244 q -18 -214 -28 -239 q 0 -162 -10 -193 l 22 -101 l 58 11 q 58 18 63 15 l 53 14 l -18 -58 q -67 -114 -44 -82 q -128 -196 -96 -147 q -176 -275 -154 -233 q -207 -369 -201 -336 q -210 -401 -210 -381 q -204 -444 -210 -426 q -198 -458 -203 -447 q -185 -475 -193 -468 l -182 -475 m 13 133 q 44 160 35 150 q 119 260 85 200 q 126 313 126 271 q 123 363 126 340 q 114 381 119 385 q 82 335 92 361 l 51 274 l 46 263 q 26 211 43 256 q 17 180 24 201 q 7 142 10 158 q 6 129 6 138 l 13 133 z "},"h":{"ha":451,"x_min":-47,"x_max":501,"o":"m 314 -74 q 297 -88 308 -83 q 272 -93 286 -93 q 238 -84 254 -93 q 211 -57 221 -75 q 193 -11 197 -31 q 192 -4 193 -8 q 189 7 192 0 q 186 54 186 38 q 189 100 186 69 q 213 229 199 176 q 221 271 214 236 q 226 290 224 281 q 232 307 229 299 l 243 351 l 243 357 l 228 343 q 182 289 206 319 q 144 240 154 256 q 127 215 136 231 q 113 192 118 200 q 76 128 99 172 l 51 74 q 31 17 33 28 q 25 -1 25 6 q 18 -11 24 -6 q -7 -19 6 -19 q -43 0 -32 -19 q -47 29 -47 15 q -44 69 -47 42 l -37 136 q -28 218 -32 188 q -7 350 -18 299 q 13 439 4 407 q 24 488 15 451 l 33 535 q 51 601 40 557 l 60 628 q 81 693 67 660 q 83 703 82 699 q 86 714 85 708 q 106 771 90 726 q 126 829 106 771 q 188 944 160 906 q 236 994 213 981 l 239 996 q 275 1003 260 1003 q 296 999 286 1003 q 328 981 310 993 q 339 965 336 975 q 343 929 343 947 l 342 900 q 313 774 335 833 q 286 703 294 719 q 222 567 257 626 q 163 474 197 521 q 94 390 118 415 q 81 364 85 379 l 65 281 q 60 239 63 267 l 51 196 q 54 185 49 190 q 57 189 57 188 q 132 299 75 221 q 224 406 168 346 l 261 440 q 292 451 274 451 q 324 435 311 451 q 336 394 336 418 q 335 378 336 383 l 318 314 l 296 224 q 282 153 290 199 q 268 26 268 83 q 269 -3 268 18 q 274 -40 271 -24 l 275 -43 q 295 -19 285 -39 q 328 49 306 0 l 342 79 l 360 119 l 385 175 l 429 276 q 456 347 436 288 q 465 360 458 356 q 481 364 472 364 q 496 358 490 364 q 500 344 501 353 q 490 312 499 338 q 476 274 481 286 q 456 219 472 260 q 403 103 439 181 q 388 67 393 83 l 371 29 q 336 -37 357 -3 q 314 -74 322 -62 m 118 490 l 165 563 q 211 650 186 596 q 244 738 232 700 q 285 876 268 796 q 288 932 288 894 q 283 939 288 938 q 261 913 275 932 q 217 832 239 882 q 214 822 215 828 q 208 810 213 817 q 194 775 199 782 l 181 739 l 169 706 q 158 671 167 693 q 135 589 146 632 q 108 490 131 574 q 107 482 108 485 l 110 481 l 118 490 z "},"i":{"ha":271,"x_min":-57,"x_max":319,"o":"m 25 19 q -37 61 -18 24 q -57 125 -56 92 q -51 169 -57 151 q -49 183 -50 175 q -43 203 -47 192 q -36 228 -40 213 q -28 253 -32 243 q -17 289 -22 272 q -7 318 -11 306 q 21 386 1 349 l 31 404 q 69 424 40 424 q 100 411 92 424 q 103 394 103 406 q 94 358 103 381 q 83 326 86 336 q 76 308 79 317 q 71 294 74 300 q 57 250 64 275 l 49 221 l 40 186 q 26 135 36 174 q 22 94 22 117 q 24 74 22 81 q 29 56 24 63 q 46 56 35 53 q 82 76 67 65 q 146 142 107 94 q 215 245 168 168 q 274 346 261 322 q 296 363 279 363 q 313 356 306 363 q 315 338 319 349 q 268 249 311 322 q 207 151 225 176 l 174 110 q 92 33 136 60 q 39 18 61 18 q 25 19 29 18 m 122 503 q 90 513 103 506 q 79 535 79 521 q 81 547 81 539 q 99 567 85 565 q 126 563 113 568 q 143 551 139 558 q 146 536 146 546 q 140 513 146 524 q 122 503 135 503 z "},"í":{"ha":271,"x_min":-58,"x_max":318,"o":"m 24 21 q -39 63 -19 25 q -58 126 -57 93 q -53 171 -58 153 q -50 185 -51 176 q -44 204 -49 193 q -37 229 -42 214 q -29 254 -33 244 q -18 290 -24 274 q -8 319 -12 307 q 19 388 0 350 l 29 406 q 68 425 39 425 q 99 413 90 425 q 101 396 101 407 q 93 360 101 382 q 82 328 85 338 q 75 310 78 318 q 69 296 72 301 q 56 251 63 276 l 47 222 l 39 188 q 25 136 35 175 q 21 96 21 118 q 22 75 21 82 q 28 57 22 64 q 44 57 33 54 q 81 78 65 67 q 144 143 106 96 q 213 247 167 169 q 272 347 260 324 q 294 364 278 364 q 311 357 304 364 q 314 339 318 350 q 267 251 310 324 q 206 153 224 178 l 172 111 q 90 35 135 61 q 38 19 60 19 q 24 21 28 19 m 96 485 q 82 490 90 485 q 69 506 74 494 q 69 518 68 513 q 104 608 88 567 q 110 621 107 617 q 122 629 114 629 q 143 617 133 629 q 149 596 153 606 l 125 539 l 108 497 q 107 493 108 496 q 104 489 106 490 q 96 485 103 485 z "},"î":{"ha":271,"x_min":-58,"x_max":318,"o":"m 24 21 q -39 63 -19 25 q -58 126 -57 93 q -53 171 -58 153 q -50 185 -51 176 q -44 204 -49 193 q -37 229 -42 214 q -29 254 -33 244 q -18 290 -24 274 q -8 319 -12 307 q 19 388 0 350 l 29 406 q 68 425 39 425 q 99 413 90 425 q 101 396 101 407 q 93 360 101 382 q 82 328 85 338 q 75 310 78 318 q 69 296 72 301 q 56 251 63 276 l 47 222 l 39 188 q 25 136 35 175 q 21 96 21 118 q 22 75 21 82 q 28 57 22 64 q 44 57 33 54 q 81 78 65 67 q 144 143 106 96 q 213 247 167 169 q 272 347 260 324 q 294 364 278 364 q 311 357 304 364 q 314 339 318 350 q 267 251 310 324 q 206 153 224 178 l 172 111 q 90 35 135 61 q 38 19 60 19 q 24 21 28 19 m 149 479 q 132 486 139 479 l 126 492 q 115 508 117 499 l 107 536 l 104 544 l 94 536 l 65 500 q 50 489 58 490 q 38 494 40 486 q 31 499 38 496 q 21 508 24 501 q 22 519 18 514 q 49 554 35 539 l 78 586 q 96 596 83 594 l 101 596 q 117 590 111 596 q 144 543 140 571 q 156 501 150 515 q 157 493 157 499 q 149 479 157 486 z "},"ï":{"ha":271,"x_min":-58,"x_max":318,"o":"m 24 21 q -39 63 -19 25 q -58 126 -57 93 q -53 171 -58 153 q -50 185 -51 176 q -44 204 -49 193 q -37 229 -42 214 q -29 254 -33 244 q -18 290 -24 274 q -8 319 -12 307 q 19 388 0 350 l 29 406 q 68 425 39 425 q 99 413 90 425 q 101 396 101 407 q 93 360 101 382 q 82 328 85 338 q 75 310 78 318 q 69 296 72 301 q 56 251 63 276 l 47 222 l 39 188 q 25 136 35 175 q 21 96 21 118 q 22 75 21 82 q 28 57 22 64 q 44 57 33 54 q 81 78 65 67 q 144 143 106 96 q 213 247 167 169 q 272 347 260 324 q 294 364 278 364 q 311 357 304 364 q 314 339 318 350 q 267 251 310 324 q 206 153 224 178 l 172 111 q 90 35 135 61 q 38 19 60 19 q 24 21 28 19 m 168 488 q 143 494 157 488 q 135 505 140 496 q 129 522 129 514 q 132 533 129 531 q 156 544 142 544 q 184 531 172 544 q 192 506 196 518 q 183 492 189 497 q 174 488 182 490 l 168 488 m 54 506 q 35 513 42 506 q 28 521 29 519 q 24 543 19 531 q 51 560 33 560 q 72 553 63 560 q 83 538 82 547 l 85 526 q 78 510 85 515 q 54 506 71 506 z "},"ì":{"ha":271,"x_min":-58,"x_max":318,"o":"m 24 21 q -39 63 -19 25 q -58 126 -57 93 q -53 171 -58 153 q -50 185 -51 176 q -44 204 -49 193 q -37 229 -42 214 q -29 254 -33 244 q -18 290 -24 274 q -8 319 -12 307 q 19 388 0 350 l 29 406 q 68 425 39 425 q 99 413 90 425 q 101 396 101 407 q 93 360 101 382 q 82 328 85 338 q 75 310 78 318 q 69 296 72 301 q 56 251 63 276 l 47 222 l 39 188 q 25 136 35 175 q 21 96 21 118 q 22 75 21 82 q 28 57 22 64 q 44 57 33 54 q 81 78 65 67 q 144 143 106 96 q 213 247 167 169 q 272 347 260 324 q 294 364 278 364 q 311 357 304 364 q 314 339 318 350 q 267 251 310 324 q 206 153 224 178 l 172 111 q 90 35 135 61 q 38 19 60 19 q 24 21 28 19 m 113 494 q 88 506 94 494 q 74 531 76 524 q 54 593 68 551 l 50 604 q 49 613 49 607 q 54 621 49 618 l 63 622 q 78 617 72 622 q 85 611 79 614 q 96 594 94 604 q 111 544 107 567 q 118 522 113 535 q 119 515 119 518 q 121 508 119 511 l 119 503 q 113 494 119 494 z "},"j":{"ha":211,"x_min":-300,"x_max":257,"o":"m -247 -514 q -290 -471 -276 -507 q -300 -414 -300 -446 q -296 -369 -300 -393 q -251 -242 -282 -308 q -187 -125 -228 -189 q -149 -67 -162 -86 l -132 -44 q -76 33 -96 8 q -60 71 -64 53 l -46 126 l -31 193 l -18 257 q 4 374 -10 296 q 15 417 7 389 q 39 433 19 433 q 68 424 54 433 q 82 403 82 414 q 81 365 82 378 q 67 268 71 296 l 54 194 l 56 193 l 69 206 l 122 258 q 181 316 142 278 q 224 356 219 354 q 239 361 235 361 q 251 356 246 361 q 257 346 257 351 q 249 331 257 339 l 100 181 l 63 140 q 42 118 56 135 q 35 106 38 114 l 25 64 l 13 11 l -1 -39 q -17 -93 -6 -57 l -37 -171 l -71 -290 q -106 -381 -82 -326 q -117 -400 -110 -390 q -137 -439 -132 -431 q -168 -487 -157 -472 q -226 -517 -192 -517 q -247 -514 -233 -517 m -239 -481 q -228 -469 -233 -478 q -204 -425 -215 -456 q -167 -319 -181 -372 l -156 -286 l -137 -224 l -122 -169 l -96 -71 q -95 -66 -94 -68 q -96 -62 -96 -64 q -94 -61 -94 -62 l -94 -61 l -94 -62 q -104 -72 -100 -67 l -135 -121 q -203 -239 -178 -186 q -247 -361 -231 -299 q -254 -417 -254 -393 q -250 -458 -254 -437 q -239 -481 -246 -472 m 81 535 q 50 563 57 535 l 50 568 q 55 581 50 575 q 67 588 60 588 q 107 563 97 588 q 108 554 108 560 q 89 536 108 540 l 81 535 z "},"k":{"ha":376,"x_min":-65,"x_max":419,"o":"m 206 -32 q 165 -14 183 -31 q 118 40 139 6 q 78 154 86 114 q 68 168 75 163 l 39 113 q 21 69 31 94 q 7 39 18 64 q 2 26 4 33 q -4 11 0 18 q -26 -6 -12 -6 l -37 -3 l -56 6 q -65 19 -64 11 q -62 51 -65 40 q -51 110 -54 90 l -46 139 q -36 186 -40 169 l -29 215 l -18 263 l -10 303 l -1 340 q 15 413 13 396 q 22 442 21 432 q 40 511 32 482 l 60 592 q 83 685 64 611 l 106 763 l 139 864 l 153 906 q 172 953 157 915 q 204 1021 186 990 q 244 1072 221 1054 q 288 1083 264 1088 q 307 1076 292 1082 q 339 1038 332 1067 q 344 985 344 1014 q 343 953 344 964 q 325 836 340 906 q 293 722 311 771 q 268 658 281 686 q 232 576 246 607 q 217 549 225 565 q 200 522 208 532 q 172 481 172 481 q 128 424 144 442 q 108 404 108 404 q 93 381 99 396 q 82 336 92 369 q 83 331 83 333 q 83 326 82 329 q 94 336 92 331 q 149 397 103 344 q 172 424 156 407 q 194 433 182 433 q 206 431 201 433 q 217 426 211 428 q 228 421 222 424 q 228 404 231 415 l 218 386 l 167 314 q 140 279 154 294 l 122 254 l 114 239 q 142 172 128 219 l 154 129 q 162 103 157 118 q 171 68 167 88 q 193 26 178 39 q 224 14 208 14 q 236 18 232 14 q 268 67 258 49 q 300 135 290 111 q 342 243 329 203 q 376 343 358 288 q 397 357 382 357 q 413 350 407 357 q 418 332 419 343 q 390 242 415 321 q 381 213 381 213 q 325 74 356 133 q 285 3 300 26 q 263 -19 272 -12 q 221 -33 243 -33 q 206 -32 211 -33 m 119 486 q 167 557 143 510 q 213 651 196 613 q 275 836 256 749 q 283 876 278 847 q 290 928 289 906 l 292 950 q 293 975 293 958 q 290 1018 293 988 l 288 1026 l 282 1021 q 274 1003 278 1011 q 268 990 271 996 q 239 910 256 965 q 233 893 236 903 q 228 876 231 883 q 220 850 225 863 q 213 824 215 838 l 200 788 q 190 756 196 769 l 182 728 q 158 638 167 675 l 136 553 q 124 510 135 549 q 122 499 124 507 q 121 486 119 492 q 119 485 121 486 q 119 486 118 485 z "},"l":{"ha":274,"x_min":-53,"x_max":339,"o":"m 8 -58 q -35 -37 -17 -60 q -50 -1 -44 -28 q -53 44 -53 14 q -51 82 -53 69 q -43 146 -51 85 l -39 175 l -21 268 l -4 333 q 11 399 1 360 l 13 403 l 26 453 q 42 515 38 494 l 51 550 q 56 560 53 553 q 60 572 58 567 q 79 636 63 581 q 101 701 99 694 q 125 760 99 694 l 139 794 q 182 878 163 847 q 210 917 196 901 q 239 943 217 926 l 240 943 q 281 951 253 951 q 301 949 290 951 q 322 931 318 944 q 335 889 331 915 q 326 776 339 840 q 320 750 324 765 q 314 714 317 735 q 290 628 303 665 q 264 556 282 600 q 256 540 260 547 q 250 526 253 533 q 200 438 222 471 q 171 396 200 438 q 140 361 163 383 q 99 324 122 340 l 74 310 q 64 269 69 297 q 53 217 56 239 l 47 188 q 40 154 46 176 l 31 72 q 25 13 25 33 l 28 -12 q 47 1 39 -8 q 81 36 71 22 l 118 83 q 129 101 126 94 l 196 207 q 268 328 242 278 l 281 353 q 304 368 289 368 q 319 361 314 368 q 319 344 325 354 l 307 315 l 264 238 q 233 186 244 201 q 160 68 192 115 l 125 21 q 88 -21 122 18 q 53 -50 75 -36 q 22 -58 43 -56 q 15 -59 19 -58 q 8 -58 11 -60 m 90 369 q 100 379 97 372 q 147 439 133 418 q 186 504 178 489 q 254 668 225 576 q 281 803 274 732 q 283 849 283 818 q 282 886 283 874 q 281 895 282 889 q 275 908 279 901 q 263 892 275 908 q 221 803 239 853 q 208 770 215 790 q 196 738 200 750 l 172 668 l 151 607 q 136 556 146 585 q 133 544 136 553 l 117 482 q 110 451 115 469 l 101 421 l 100 417 q 94 394 97 408 q 89 372 92 381 l 90 369 z "},"m":{"ha":547,"x_min":-43,"x_max":585,"o":"m 354 -228 q 328 -222 344 -228 l 314 -214 q 297 -143 297 -185 q 304 -51 297 -103 q 310 7 307 -12 q 317 51 311 19 q 324 96 318 65 q 326 117 324 103 q 326 133 329 128 q 322 126 324 131 q 319 119 321 122 l 314 107 q 275 21 289 49 q 242 1 265 -1 q 233 3 236 1 q 196 43 197 7 q 199 93 196 76 l 208 147 l 226 267 l 226 271 q 224 269 225 269 q 222 268 222 269 l 206 242 q 149 146 188 210 l 111 88 l 100 75 l 74 39 q 51 15 65 26 q 22 4 38 4 l 13 6 q -20 19 -6 6 q -39 51 -35 32 l -42 71 q -42 95 -42 74 q -42 133 -43 117 q 1 336 -36 219 q 17 379 8 364 l 21 385 q 32 396 28 394 q 46 394 36 397 l 67 390 q 79 374 79 386 q 78 358 79 363 l 69 299 l 61 253 l 56 219 q 44 153 47 175 q 38 82 40 129 q 37 79 36 81 q 38 76 38 78 q 47 86 43 81 q 100 161 79 125 l 167 267 l 228 365 q 239 382 231 371 q 268 392 253 393 q 306 364 292 390 q 307 356 307 363 q 310 319 310 333 q 307 283 310 308 l 304 246 l 299 192 q 306 204 304 200 q 347 274 326 243 q 360 286 353 285 q 372 288 364 288 q 396 281 385 288 l 403 275 q 417 250 417 267 q 418 235 418 246 q 414 165 418 201 l 410 121 q 403 65 404 86 q 397 31 400 53 q 394 3 396 17 q 390 -26 392 -11 q 382 -90 390 -29 q 381 -97 382 -92 q 383 -104 381 -101 q 391 -87 389 -96 q 394 -75 393 -78 l 403 -49 q 413 -18 407 -29 q 422 11 417 -1 q 429 32 426 24 l 461 128 l 482 185 q 517 281 503 246 q 550 340 532 317 q 572 354 560 354 q 585 340 585 354 q 581 326 585 335 q 489 65 532 204 q 444 -76 471 14 q 421 -143 438 -99 q 406 -187 411 -168 q 404 -192 404 -189 q 360 -228 393 -219 l 354 -228 z "}}}
